<svg width="175" height="71" viewBox="0 0 175 71" fill="none" xmlns="http://www.w3.org/2000/svg">
<g clip-path="url(#clip0_554_420)">
<path d="M175.094 43.0444C174.381 45.3296 172.436 46.2962 170.472 47.0827C164.984 49.278 159.715 48.9571 154.96 45.2553C151.039 42.1835 149.079 38.0473 149.146 33.0306C149.244 27.1101 151.941 22.6765 157.053 19.726C160.15 17.9416 163.529 17.6403 167.014 18.2351C168.731 18.5133 170.384 19.0964 171.895 19.9568C173.295 20.7669 174.639 21.6356 175.094 23.3417V24.6526C175.067 24.6839 175.02 24.7113 175.012 24.7504C174.891 25.3877 174.6 25.9808 174.171 26.4675C173.741 26.9542 173.188 27.3166 172.57 27.5167C171.952 27.7168 171.291 27.7472 170.657 27.6047C170.023 27.4623 169.439 27.1522 168.967 26.707C167.777 25.6478 166.271 25.0085 164.682 24.8874C161.071 24.5704 157.99 26.574 156.932 29.8649C156.473 31.301 156.52 32.7685 156.567 34.2281C156.736 39.3151 161.056 42.5122 165.976 41.2717C167.068 40.9864 168.079 40.4504 168.928 39.7064C170.464 38.3838 172.526 38.376 173.918 39.6595C174.487 40.2393 174.893 40.9588 175.094 41.7452V43.0444Z" fill="#237CC1"/>
<path d="M40.8882 33.019C39.3868 32.1425 37.9676 31.3246 36.5759 30.4911C32.4518 28.065 28.3316 25.6336 24.2154 23.197C24.0539 23.0774 23.857 23.0152 23.6559 23.0202C23.4549 23.0251 23.2613 23.097 23.1059 23.2244C18.6787 26.1906 14.2514 29.145 9.82414 32.0877C9.12185 32.609 8.38586 33.0835 7.62095 33.5081C6.93175 33.8581 6.1699 34.0419 5.39663 34.0446C4.62336 34.0473 3.86024 33.8688 3.1686 33.5237C2.47696 33.1785 1.8761 32.6761 1.41429 32.057C0.952492 31.4379 0.642632 30.7193 0.509619 29.9589C0.125434 27.7832 1.52496 25.3766 3.71246 24.3905C7.20149 22.8253 10.6879 21.2444 14.1717 19.6478C14.7362 19.3934 15.2968 19.1274 15.9554 18.8221C15.728 18.7047 15.5987 18.6343 15.4654 18.5717L3.0225 12.9837C2.09711 12.5452 1.33003 11.8321 0.826192 10.9418C0.322354 10.0515 0.106361 9.02761 0.20776 8.01012C0.310744 6.96116 0.7376 5.97002 1.42933 5.17369C2.12107 4.37736 3.04352 3.81516 4.06921 3.5648C4.74837 3.3997 5.45488 3.38025 6.14212 3.50774C6.82937 3.63523 7.48171 3.90675 8.0561 4.30438C12.8545 7.53402 17.6542 10.7663 22.4552 14.0011C23.2902 14.5646 23.298 14.5764 24.1448 14.0011L38.736 3.99133C39.6568 3.28199 40.7526 2.83444 41.9075 2.69608C43.1289 2.64094 44.3291 3.02905 45.2861 3.78866C46.2431 4.54828 46.8922 5.62804 47.1136 6.82836C47.4781 9.17624 46.3099 11.3011 44.0166 12.3615C40.6844 13.9085 37.3482 15.4438 34.0082 16.9673C32.9575 17.4525 31.9069 17.926 30.872 18.4112C30.7622 18.4621 30.6603 18.5286 30.4799 18.6265C30.7622 18.8065 30.9896 18.9669 31.2287 19.1L45.3573 27.1571C46.2393 27.6619 47.1292 28.155 47.9956 28.6832C48.1353 28.7921 48.3091 28.8483 48.4862 28.8418C48.6633 28.8354 48.8325 28.7668 48.9639 28.648C52.8842 25.854 56.8162 23.0679 60.76 20.2896C61.8419 19.5069 62.9083 18.7243 64.0294 18.0082C65.0953 17.3403 66.3732 17.0952 67.6111 17.3212C68.8491 17.5472 69.9573 18.2279 70.7174 19.2291C72.1796 21.1035 72.2855 25.0362 69.1493 26.6406C67.3577 27.5602 65.4956 28.335 63.6609 29.1685C61.0474 30.3502 58.4431 31.5242 55.8479 32.6903C55.7224 32.7451 55.6009 32.8116 55.3892 32.9173C55.6087 33.0307 55.7812 33.1168 55.9224 33.1912C60.1641 35.1477 64.4215 37.0691 68.6475 39.0609C69.2668 39.3583 69.8188 39.7786 70.2698 40.2962C70.7208 40.8139 71.0613 41.4179 71.2705 42.0713C71.4796 42.7248 71.553 43.414 71.4862 44.0967C71.4194 44.7794 71.2138 45.4414 70.8819 46.0421C70.55 46.6428 70.0989 47.1696 69.5561 47.5904C69.0133 48.0111 68.3902 48.3169 67.7249 48.489C67.0597 48.6611 66.3662 48.696 65.687 48.5915C65.0078 48.487 64.3571 48.2452 63.7746 47.8811C61.9125 46.7072 60.1249 45.4041 58.3216 44.1323C55.2455 41.967 52.1785 39.7848 49.1207 37.5856C48.9567 37.4328 48.7419 37.3458 48.5176 37.3415C48.2933 37.3372 48.0752 37.4157 47.9055 37.5622C42.7987 40.9562 37.6762 44.3293 32.5381 47.6815C30.3349 49.1216 27.575 48.879 25.8462 47.1376C23.9645 45.2397 24.0664 41.9918 26.1481 40.094C26.772 39.5522 27.477 39.1112 28.2376 38.787C32.2362 36.9361 36.2584 35.1321 40.2688 33.3086L40.8882 33.019Z" fill="#237CC1"/>
<path d="M138.702 45.4904C136.056 47.9478 132.857 48.4722 129.478 48.2609C126.446 48.1235 123.555 46.9427 121.296 44.9191C119.051 42.9283 117.581 40.2111 117.145 37.2454C116.663 34.244 116.651 31.2427 117.537 28.2961C119.234 22.7198 124.386 18.5132 130.172 18.0319C133.089 17.7614 136.023 18.3289 138.628 19.6676C138.726 19.7185 138.824 19.7615 138.922 19.8085C139.191 19.4292 139.489 19.0708 139.812 18.7363C140.315 18.2333 140.962 17.8973 141.663 17.774C142.364 17.6508 143.087 17.7463 143.732 18.0475C144.392 18.2969 144.957 18.7451 145.35 19.33C145.743 19.9148 145.943 20.6073 145.923 21.3111C145.923 25.3103 145.9 29.3135 145.888 33.3127C145.87 39.9703 145.853 46.6226 145.837 53.2697C145.837 56.4862 144.715 59.6021 142.663 62.0822C140.611 64.5623 137.758 66.2517 134.594 66.8601C132.913 67.164 131.203 67.2716 129.498 67.1809C128.678 67.1239 127.913 66.7524 127.361 66.1443C126.81 65.5362 126.516 64.7388 126.541 63.9191C126.566 63.0995 126.908 62.3212 127.495 61.7475C128.082 61.1738 128.868 60.8492 129.69 60.8416C130.956 60.8416 132.226 60.9199 133.465 60.5403C134.921 60.0755 136.2 59.1784 137.132 57.9688C138.063 56.7591 138.603 55.2945 138.679 53.7706C138.749 51.0314 138.702 48.2805 138.702 45.4904ZM124.048 33.0936C124.092 34.0567 124.188 35.0168 124.335 35.9697C124.667 37.5154 125.506 38.9062 126.72 39.9219C127.933 40.9376 129.452 41.5201 131.034 41.5773C134.872 41.6986 137.593 39.2568 138.346 36.2241C138.691 34.8349 138.585 33.4301 138.589 32.0292C138.589 27.9556 135.88 25.0286 131.83 24.7234C130.297 24.5916 128.764 24.9633 127.462 25.7821C126.161 26.6008 125.163 27.8216 124.621 29.2587C124.207 30.4938 124.013 31.7917 124.048 33.0936Z" fill="#237CC1"/>
<path d="M91.8279 20.8532C94.5721 18.2823 97.822 17.7814 101.284 18.0553C103.46 18.2156 105.564 18.9019 107.415 20.0549C109.938 21.5969 111.817 23.997 112.707 26.8129C113.848 30.2321 113.991 33.9047 113.119 37.4019C111.723 42.9938 107.964 46.5195 102.409 47.8852C94.3448 49.8731 86.7277 44.8368 84.9283 36.6858C84.6801 35.5111 84.5566 34.3136 84.5598 33.1131C84.5324 23.3889 84.5598 13.6687 84.5598 3.94845C84.5356 3.06508 84.8359 2.20339 85.4043 1.52582C85.9726 0.848245 86.7696 0.401604 87.645 0.270097C88.1683 0.183868 88.7041 0.214259 89.2142 0.35909C89.7243 0.503921 90.1959 0.759605 90.5953 1.10781C90.9948 1.45602 91.3121 1.88812 91.5245 2.37315C91.7369 2.85817 91.8392 3.3841 91.824 3.91323C91.824 9.36815 91.824 14.8231 91.824 20.278L91.8279 20.8532ZM106.274 33.1483V32.0213C106.274 27.9438 103.624 25.0637 99.5626 24.7272C97.9597 24.5785 96.354 24.9814 95.012 25.869C93.67 26.7565 92.6724 28.0755 92.1847 29.6069C91.7927 30.8513 91.7927 32.1309 91.8358 33.4105C91.8314 34.3439 91.9168 35.2756 92.0906 36.1927C92.4411 37.6549 93.2535 38.9659 94.4077 39.9319C95.5618 40.898 96.9966 41.468 98.5002 41.5576C101.977 41.7259 104.729 39.9924 105.847 36.8893C106.227 35.6809 106.372 34.4111 106.274 33.1483Z" fill="#237CC1"/>
<path d="M53.4134 19.8868C53.4261 20.5483 53.3053 21.2056 53.058 21.8194C52.8107 22.4332 52.4421 22.9911 51.9742 23.4596C51.5062 23.9282 50.9485 24.2978 50.3344 24.5466C49.7202 24.7953 49.0621 24.918 48.3994 24.9074C47.085 24.9013 45.826 24.3781 44.8954 23.4515C43.9649 22.5248 43.4378 21.2693 43.4285 19.9573C43.4139 19.2922 43.535 18.6311 43.7844 18.0142C44.0339 17.3973 44.4065 16.8375 44.8796 16.3689C45.3527 15.9004 45.9164 15.5328 46.5363 15.2886C47.1563 15.0444 47.8195 14.9287 48.4857 14.9485C49.1369 14.9394 49.7834 15.0612 50.3866 15.3064C50.9899 15.5516 51.5376 15.9154 51.9972 16.376C52.4569 16.8367 52.8191 17.3848 53.0624 17.9879C53.3057 18.591 53.425 19.2368 53.4134 19.8868Z" fill="#237CC1"/>
<path d="M23.3098 10.1743C20.8518 10.3777 18.3703 8.26074 18.1508 5.77198C17.8842 2.79408 19.8482 0.481417 22.8551 0.23489C25.5992 0.00792748 27.9161 2.06233 28.0925 4.95805C28.13 5.61594 28.0352 6.27467 27.8137 6.89542C27.5921 7.51617 27.2484 8.0864 26.8027 8.5725C26.357 9.0586 25.8183 9.45074 25.2185 9.72584C24.6186 10.0009 23.9696 10.1534 23.3098 10.1743Z" fill="#237CC1"/>
</g>
<defs>
<clipPath id="clip0_554_420">
<rect width="175" height="71" fill="white"/>
</clipPath>
</defs>
</svg>
