<svg width="62" height="37" viewBox="0 0 62 37" fill="none" xmlns="http://www.w3.org/2000/svg">
<path d="M48.5864 37H12.4378C6.2195 37 0.501342 31.8713 0.0361944 25.574C-0.147335 23.161 0.369902 20.7463 1.52389 18.6289C2.67788 16.5114 4.41795 14.784 6.52874 13.6606C8.63953 12.5372 11.0284 12.067 13.3996 12.3083C15.7708 12.5496 18.0203 13.4918 19.8697 15.0182L16.0226 19.8237C14.9373 18.9236 13.5767 18.4362 12.1755 18.4456C10.5615 18.4456 9.0137 19.0967 7.87247 20.2557C6.73124 21.4147 6.0901 22.9866 6.0901 24.6257C6.0901 26.2647 6.73124 27.8366 7.87247 28.9956C9.0137 30.1546 10.5615 30.8057 12.1755 30.8057H25.5738V13.6294C25.5738 6.78873 30.5331 0.843082 37.227 0.0830057C40.4759 -0.286372 43.744 0.58555 46.3946 2.52896C49.0453 4.47238 50.8888 7.34815 51.5661 10.5962C54.7644 11.2841 57.5961 13.1563 59.5098 15.8482C61.4234 18.5401 62.282 21.8589 61.9183 25.1584C61.1838 31.9672 55.3223 37 48.5864 37ZM31.6732 30.8057H48.6773C52.2726 30.8057 55.4342 28.1419 55.8539 24.5156C55.9717 23.5188 55.8817 22.5081 55.5898 21.549C55.2979 20.5899 54.8105 19.7039 54.1595 18.9485C53.5084 18.1932 52.7081 17.5854 51.8106 17.1647C50.9131 16.7439 49.9385 16.5196 48.9501 16.5063L45.75 16.5454V13.2636C45.7374 12.2598 45.517 11.27 45.1031 10.3584C44.6892 9.44682 44.0911 8.63383 43.3477 7.97228C42.6043 7.31073 41.7321 6.81541 40.7879 6.5185C39.8436 6.22158 38.8485 6.12971 37.867 6.24886C34.2962 6.67152 31.6732 9.88587 31.6732 13.5371V30.8057Z" fill="white"/>
</svg>
