<svg width="206" height="76" viewBox="0 0 206 76" fill="none" xmlns="http://www.w3.org/2000/svg">
<path d="M59.2163 0C59.2163 1.40392 59.2163 2.72117 59.2163 4.03843C59.2163 13.6925 59.1618 23.3491 59.2311 33.0032C59.3005 42.3428 56.2598 50.6227 50.842 58.0855C45.387 65.6003 38.1319 71.0625 30.2231 75.7323C29.9359 75.9007 29.4035 75.9626 29.1386 75.8115C17.3621 69.0767 7.70015 60.3511 2.67358 47.3494C0.910572 42.7836 -0.0476946 38.0717 0.00182819 33.1196C0.108302 22.5592 0.0364942 11.994 0.0364942 1.43115C0.0364942 0.980514 0.0364942 0.529874 0.0364942 0C19.754 0 39.4096 0 59.2163 0ZM4.31527 4.68715C4.31527 5.24674 4.31527 5.68995 4.31527 6.13564C4.31527 15.089 4.39698 24.0449 4.28803 32.9958C4.21127 39.4335 5.90247 45.3611 9.00755 50.905C13.7469 59.3706 20.9128 65.3205 29.2599 69.978C29.562 70.1463 30.1538 70.0844 30.4732 69.8987C36.4952 66.3927 42.0442 62.275 46.4914 56.85C52.1816 49.9072 55.3783 42.0531 55.2668 32.9314C55.1554 23.978 55.2421 15.0246 55.2421 6.07126C55.2421 5.63053 55.2421 5.19227 55.2421 4.68715C38.2359 4.68715 21.3759 4.68715 4.31527 4.68715Z" fill="#237CC1"/>
<path d="M74.2767 13.5764C74.1132 18.0506 73.9349 22.5248 73.7963 26.9991C73.722 29.4058 73.7542 29.4058 76.1214 29.8416C76.4854 29.9084 76.8444 30.0025 77.2579 30.0991C77.2852 30.3417 77.3248 30.5769 77.3297 30.8122C77.3347 31.0127 77.2976 31.2158 77.2728 31.4757C74.5416 31.4757 71.8401 31.4757 69.0545 31.4757C69.0297 31.0375 69.0074 30.6388 68.9802 30.1585C69.8419 29.9282 70.6615 29.7079 71.595 29.4602C71.902 23.3098 72.2116 17.1518 72.5236 10.9048C71.6792 10.6596 70.8596 10.4195 69.9137 10.1446C69.8964 9.75588 69.8766 9.32257 69.8493 8.75308C72.4196 8.75308 74.9254 8.72585 77.4288 8.79022C77.7235 8.79765 78.1221 9.2681 78.2707 9.61227C79.952 13.4997 81.5937 17.4044 83.2502 21.3042C83.4557 21.787 83.6761 22.2624 83.9782 22.9433C84.1961 22.5149 84.3496 22.2649 84.4561 21.9925C86.1201 17.7882 87.7667 13.5764 89.4579 9.382C89.5693 9.1022 90.0101 8.78279 90.3023 8.77784C92.6075 8.72832 94.9128 8.75061 97.3048 8.75061C97.3048 9.23343 97.3048 9.65684 97.3048 10.1421C96.5198 10.3551 95.7349 10.5705 94.8385 10.8132C95.1134 17.0181 95.3858 23.2181 95.6631 29.4503C96.5595 29.6905 97.3865 29.9158 98.2531 30.1486C98.2531 30.5621 98.2531 30.9657 98.2531 31.451C94.7519 31.451 91.2679 31.451 87.7023 31.451C87.6825 31.0449 87.6602 30.6487 87.6354 30.1535C88.3362 29.9827 88.9949 29.7598 89.6733 29.6732C90.3468 29.5865 90.5672 29.3018 90.54 28.6332C90.3518 23.6143 90.1933 18.5954 89.8268 13.5046C89.6981 13.7497 89.5421 13.9874 89.4406 14.2449C87.4052 19.3654 85.3871 24.4933 83.3319 29.6063C83.1759 29.9975 82.7674 30.2872 82.4752 30.624C82.1483 30.2798 81.6927 29.9926 81.5169 29.5865C79.1893 24.2407 76.9014 18.8801 74.6035 13.5219C74.4946 13.5393 74.3856 13.5591 74.2767 13.5764Z" fill="#237CC1"/>
<path d="M168.682 61.7673C165.837 61.7673 163.009 61.7673 160.149 61.7673C159.813 60.8462 160.09 60.3411 161.058 60.247C161.945 60.1603 162.128 59.6552 162.113 58.8134C162.058 55.9288 162.039 53.0392 162.118 50.1546C162.148 49.0776 161.9 48.3595 160.882 47.8965C160.533 47.738 160.315 47.2849 160.038 46.968C160.375 46.7327 160.682 46.4084 161.056 46.2796C162.757 45.6953 164.475 45.1679 166.307 44.5811C166.394 45.5764 166.468 46.4109 166.518 46.9853C168.345 46.2276 170.101 45.1852 171.99 44.7989C174.35 44.3186 175.692 45.2793 176.811 47.5449C177.297 47.1561 177.747 46.7699 178.225 46.4158C179.939 45.1431 181.788 44.4028 183.987 44.8336C185.78 45.1852 186.82 46.2796 187.204 47.9955C187.392 48.8299 187.456 49.7089 187.464 50.5681C187.493 53.6582 187.476 56.7483 187.476 59.7666C188.1 60.5466 189.965 59.8162 189.511 61.7301C186.671 61.7301 183.811 61.7301 180.954 61.7301C180.795 60.5961 180.795 60.5961 182.724 59.9028C182.724 56.7954 182.769 53.6657 182.702 50.5384C182.677 49.3697 182.157 48.3422 180.907 47.993C179.562 47.6167 178.376 48.102 177.359 48.9538C177.143 49.132 177.131 49.6248 177.128 49.9739C177.111 52.8189 177.173 55.6663 177.091 58.5088C177.061 59.5859 177.284 60.2396 178.438 60.3559C178.634 60.3757 178.817 60.507 179.027 60.5961C179.027 60.9675 179.027 61.329 179.027 61.7549C176.212 61.7549 173.429 61.7549 170.626 61.7549C170.027 60.0167 171.701 60.4302 172.389 59.8632C172.389 56.7533 172.429 53.6236 172.369 50.4963C172.347 49.3103 171.78 48.3446 170.552 47.9658C169.556 47.6588 167.496 48.2233 167.013 48.9736C166.832 49.2533 166.82 49.6743 166.82 50.0308C166.805 52.9996 166.85 55.9709 166.788 58.9372C166.771 59.7864 167.1 60.1579 167.843 60.2519C168.798 60.3807 168.954 60.9081 168.682 61.7673Z" fill="#237CC1"/>
<path d="M141.095 59.2318C141.739 60.1158 143.552 59.3507 143.128 61.2374C141.165 61.594 139.154 61.958 137.022 62.3467C136.874 61.7326 136.737 61.1656 136.567 60.4575C135.034 61.7376 133.409 62.5448 131.453 62.4012C127.766 62.1288 125.191 59.2814 124.869 55.1365C124.446 49.657 128.749 44.9624 134.249 44.903C134.908 44.8955 135.564 44.903 136.415 44.903C136.415 43.4545 136.435 41.9515 136.391 40.4535C136.386 40.248 136.086 39.993 135.866 39.8667C135.403 39.6042 134.868 39.4606 134.422 39.1759C134.152 39.005 133.915 38.6807 133.83 38.3786C133.801 38.2697 134.232 37.9205 134.496 37.8562C136.648 37.3139 138.81 36.8137 141.09 36.2715C141.095 44.0339 141.095 51.7245 141.095 59.2318ZM136.433 53.5815C136.433 52.1801 136.361 50.7737 136.455 49.3772C136.534 48.1912 135.925 47.5177 135.021 47.0101C133.345 46.0692 131.364 46.7154 130.376 48.4833C128.935 51.0609 129.396 55.8545 131.297 58.1003C132.412 59.4151 134.046 59.8583 135.517 59.2789C136.158 59.0263 136.49 58.6747 136.453 57.9096C136.383 56.4711 136.433 55.025 136.433 53.5815Z" fill="#237CC1"/>
<path d="M81.3733 38.3813C83.9435 45.2251 86.489 51.955 88.98 58.7022C89.3143 59.611 89.76 60.2003 90.7455 60.2399C91.6963 60.2795 91.9588 60.7722 91.7013 61.7255C88.3015 61.7255 84.8646 61.7255 81.4278 61.723C81.2371 60.5147 81.2371 60.5147 83.8296 59.8858C83.2007 58.1179 82.5915 56.3574 81.9279 54.6168C81.866 54.4583 81.4476 54.3642 81.1925 54.3617C79.2116 54.3419 77.2307 54.3196 75.2523 54.3791C74.9229 54.389 74.4376 54.7257 74.3113 55.0278C73.6849 56.5431 73.1574 58.0956 72.5657 59.7149C73.826 59.9774 75.0195 60.225 76.2502 60.4825C76.2502 60.9257 76.2502 61.3169 76.2502 61.7626C73.5041 61.7626 70.7952 61.7626 68.0516 61.7626C67.6678 60.7821 68.0145 60.2894 69.0248 60.2126C70.0598 60.1334 70.5253 59.5292 70.8794 58.576C73.1079 52.6037 75.4504 46.6711 77.6343 40.6841C78.1196 39.3495 78.7832 38.6141 80.1798 38.5398C80.5487 38.5274 80.9102 38.4482 81.3733 38.3813ZM75.3117 52.1061C77.2827 52.1061 79.115 52.1061 81.0737 52.1061C80.1179 49.4517 79.1968 46.894 78.2038 44.1282C77.196 46.9039 76.2749 49.4394 75.3117 52.1061Z" fill="#237CC1"/>
<path d="M137.938 31.4728C137.366 29.5142 139.201 30.1456 139.897 29.4102C139.897 25.976 139.941 22.4327 139.842 18.892C139.83 18.4364 139.067 18.0031 138.659 17.5549C138.377 17.2429 138.109 16.9186 137.834 16.5992C138.183 16.3714 138.503 16.0619 138.884 15.9282C140.583 15.3389 142.299 14.8016 144.074 14.2222C144.186 15.1829 144.285 16.0346 144.403 17.0721C144.904 16.6858 145.302 16.3639 145.716 16.0619C147.286 14.9155 148.972 14.1603 150.993 14.4277C153.233 14.7248 154.598 15.8687 154.776 18.1219C154.996 20.8679 154.942 23.6361 155.004 26.3944C155.014 26.8054 155.006 27.2189 155.006 27.6324C155.006 29.5687 155.006 29.5687 156.975 30.1927C156.995 30.5591 157.014 30.9578 157.039 31.448C154.159 31.448 151.339 31.448 148.425 31.448C148.4 31.084 148.373 30.6928 148.338 30.2199C148.965 29.9995 149.569 29.7866 150.161 29.5761C150.161 26.3498 150.203 23.1533 150.138 19.9567C150.116 18.8078 149.504 17.9313 148.296 17.6143C146.969 17.2677 145.877 17.8347 144.857 18.5627C144.686 18.684 144.659 19.0802 144.656 19.3476C144.644 22.7274 144.649 26.1072 144.649 29.4498C145.312 30.1085 147.135 29.6157 146.461 31.4728C143.646 31.4728 140.818 31.4728 137.938 31.4728Z" fill="#237CC1"/>
<path d="M134.236 14.4575C134.236 19.4121 134.236 24.2305 134.236 28.9151C134.905 29.7793 136.777 29.0909 136.418 30.9901C134.301 31.3144 132.199 31.6363 129.992 31.9755C129.859 31.1758 129.74 30.4701 129.606 29.6778C128.796 30.2349 128.12 30.7697 127.383 31.1956C125.852 32.0795 124.216 32.3197 122.497 31.8096C120.746 31.2921 119.491 29.8115 119.397 27.7687C119.261 24.847 119.238 21.9154 119.288 18.9887C119.305 17.9265 119.05 17.3 118 16.9707C117.676 16.8692 117.466 16.3987 117.203 16.0967C117.51 15.8986 117.795 15.5816 118.127 15.5197C120.018 15.1657 121.92 14.8735 123.975 14.5343C123.975 15.3514 123.975 16.0793 123.975 16.8098C123.975 19.8206 123.928 22.834 123.993 25.8448C124.047 28.4521 125.719 29.502 128.19 28.6254C129.111 28.2986 129.557 27.8306 129.527 26.7486C129.445 23.7006 129.497 20.6476 129.497 17.5501C128.888 17.3198 128.286 17.1564 127.756 16.8642C127.499 16.7231 127.264 16.3517 127.231 16.062C127.214 15.9035 127.62 15.5767 127.873 15.5296C129.938 15.1533 132.01 14.8265 134.236 14.4575Z" fill="#237CC1"/>
<path d="M107.601 32.0697C102.46 32.0153 98.7929 28.3656 98.8524 23.3615C98.9118 18.2361 102.864 14.267 107.846 14.3313C113.1 14.4007 116.582 17.8127 116.549 22.8588C116.512 28.1056 112.61 32.1242 107.601 32.0697ZM111.726 24.3148C111.481 22.0566 111.186 19.9099 110.049 17.9662C109.324 16.7281 108.358 15.7526 106.786 15.9928C105.283 16.223 104.587 17.3893 104.275 18.7288C103.55 21.8684 103.834 24.9437 105.122 27.905C105.315 28.3507 105.61 28.7692 105.929 29.1406C107.549 31.0298 109.797 30.7648 110.725 28.4646C111.253 27.1597 111.406 25.7038 111.726 24.3148Z" fill="#237CC1"/>
<path d="M124.594 59.8759C124.426 61.7899 122.839 61.6909 121.732 62.035C119.513 62.7258 118.345 62.144 117.332 60.022C116.203 61.1857 115.054 62.2405 113.306 62.3495C111.075 62.4881 109.096 61.3516 108.524 59.455C107.858 57.2464 108.623 55.1516 110.773 54.1711C112.476 53.3961 114.328 52.9009 116.156 52.4527C117.084 52.2249 117.409 51.8436 117.275 50.9547C117.144 50.0658 117.225 49.0729 116.847 48.3103C116.507 47.6269 115.745 46.9188 115.027 46.7133C113.58 46.2948 113.117 46.79 113.08 48.3054C113.073 48.5926 113.11 48.8996 113.026 49.1645C112.825 49.8009 113.479 50.8185 112.159 50.9745C110.988 51.1132 109.78 51.3633 109.037 50.1748C108.438 49.2141 108.752 48.2137 109.505 47.4635C111.795 45.1732 114.653 44.4353 117.778 44.8191C120.521 45.1558 121.789 46.5746 121.89 49.3304C121.997 52.2522 121.977 55.1789 121.992 58.1055C122.002 60.0963 122.002 59.8338 123.745 59.8363C123.948 59.8388 124.151 59.8561 124.594 59.8759ZM117.28 53.6809C116.344 53.9879 115.641 54.2033 114.95 54.4509C114.682 54.545 114.43 54.6936 114.187 54.8446C112.937 55.6295 112.543 57.1622 113.271 58.3804C113.813 59.2866 114.705 59.5961 115.601 59.2718C116.242 59.039 117.104 58.4423 117.206 57.8876C117.441 56.5902 117.28 55.2185 117.28 53.6809Z" fill="#237CC1"/>
<path d="M195.226 66.1153C196.606 64.1691 196.489 62.3146 195.558 60.1976C193.783 56.174 192.309 52.0192 190.668 47.9387C190.492 47.5029 190.096 46.9681 189.692 46.8467C188.826 46.5892 188.704 46.099 188.915 45.2744C191.614 45.2744 194.352 45.2744 197.086 45.2744C197.655 46.7427 196.385 46.6932 195.511 47.082C196.633 50.229 197.747 53.3538 198.958 56.7534C200.154 53.433 201.256 50.3751 202.36 47.3023C201.773 46.5546 199.805 47.1364 200.444 45.2373C202.268 45.2373 204.111 45.2373 206 45.2373C206 45.6706 206 46.0668 206 46.5768C204.517 46.6165 204.185 47.7604 203.754 48.8944C201.491 54.8518 199.193 60.7992 196.893 66.7442C196.296 68.2868 195.504 69.666 193.671 69.9953C192.25 70.2503 191.138 69.6932 190.631 68.4898C190.168 67.3905 190.534 66.0732 191.49 65.4047C192.54 64.6693 193.78 64.808 194.85 65.781C194.976 65.89 195.098 65.9965 195.226 66.1153Z" fill="#237CC1"/>
<path d="M158.701 52.007C155.19 52.007 151.669 52.007 148.076 52.007C148.048 54.5474 148.722 56.6619 150.866 57.9396C153.56 59.5416 156.002 58.5759 158.243 56.8204C159.045 57.1993 159.161 57.6004 158.622 58.3407C156.309 61.5125 153.08 62.9387 149.762 62.1687C146.045 61.307 143.705 57.9643 143.767 53.6065C143.832 48.9515 147.437 44.876 151.669 44.6729C155.873 44.4699 158.921 47.5897 158.701 52.007ZM148.165 50.3629C150.094 50.3629 151.928 50.3629 153.766 50.3629C153.528 47.8943 152.523 46.4507 151.069 46.4309C149.576 46.4111 148.539 47.7928 148.165 50.3629Z" fill="#237CC1"/>
<path d="M105.937 56.7534C106.209 57.0109 106.444 57.2313 106.672 57.4467C104.089 62.6984 97.4187 63.9958 93.6822 59.9995C91.0352 57.1719 90.7083 52.0093 92.9616 48.6047C95.1926 45.2324 99.6002 43.774 103.297 45.2076C104.518 45.6805 105.568 46.3986 106.088 47.6713C106.476 48.6196 106.447 49.5704 105.667 50.3008C104.807 51.1055 103.723 51.1179 102.646 50.8357C102.482 50.7936 102.339 50.4841 102.274 50.2736C102.069 49.6051 101.905 48.9242 101.725 48.2482C101.177 46.2203 99.0208 45.6657 97.4558 47.1785C96.0989 48.4884 95.8364 50.1944 95.9132 51.9672C96.0122 54.1758 96.5991 56.2211 98.419 57.6572C100.593 59.3681 103.302 59.0437 105.937 56.7534Z" fill="#237CC1"/>
<path d="M160.355 17.0847C159.461 17.0847 158.768 17.0847 157.98 17.0847C157.98 16.5449 157.98 16.0745 157.98 15.4629C160.709 15.3787 161.722 13.0215 163.294 11.3452C163.665 10.9491 164.188 10.6916 164.943 10.1567C164.943 11.989 164.943 13.3731 164.943 14.8637C166.575 14.8637 168.085 14.8637 169.645 14.8637C169.645 15.6585 169.645 16.3468 169.645 17.1417C168.1 17.1417 166.592 17.1417 164.963 17.1417C164.963 20.6601 164.901 24.0721 164.998 27.4816C165.032 28.6627 165.993 29.2768 167.137 29.3139C167.986 29.3411 168.841 29.1554 169.725 29.0613C170.21 29.8066 169.992 30.386 169.158 30.6411C167.602 31.1189 166.043 31.785 164.453 31.8939C161.761 32.0796 160.288 30.5569 160.263 27.8555C160.233 24.7208 160.323 21.5862 160.36 18.454C160.36 18.0504 160.355 17.6468 160.355 17.0847Z" fill="#237CC1"/>
<path d="M53.2295 31.3641C50.3572 31.3641 47.5591 31.3641 44.7611 31.3641C40.2644 31.3641 35.7653 31.3814 31.2686 31.3467C30.4663 31.3418 29.8968 31.5646 29.3248 32.1416C23.2781 38.2277 17.2016 44.289 10.88 50.6079C9.87719 48.32 8.80998 46.2203 8.02504 44.0191C6.82163 40.6369 6.20755 37.1456 6.24469 33.5108C6.33136 25.0526 6.27193 16.5945 6.27193 8.1363C6.27193 7.68814 6.27193 7.2375 6.27193 6.7002C21.9583 6.7002 37.5629 6.7002 53.2295 6.7002C53.2295 14.8786 53.2295 23.0322 53.2295 31.3641ZM12.128 9.99086C12.128 14.3512 12.1057 18.5109 12.1676 22.6707C12.1726 23.0347 12.6505 23.5695 13.0293 23.7181C15.6218 24.7382 18.2738 25.6147 20.849 26.672C21.9335 27.1177 22.8373 27.0681 23.8946 26.6497C26.7818 25.5058 29.7086 24.4633 32.5859 23.3962C32.5859 18.8873 32.5859 14.5047 32.5859 9.98095C29.4684 11.063 26.4723 12.1549 23.439 13.1305C22.768 13.3459 21.9063 13.3385 21.2328 13.1231C18.2317 12.1574 15.2678 11.0828 12.128 9.99086ZM9.11702 11.8132C9.07245 12.0608 9.02045 12.2193 9.02045 12.3753C9.0155 16.5425 8.99321 20.7072 9.05264 24.8719C9.05759 25.2309 9.54539 25.7583 9.92424 25.9069C13.7821 27.4197 17.6548 28.8905 21.5473 30.3093C22.0623 30.4975 22.7705 30.4826 23.283 30.287C26.9997 28.8633 30.6768 27.3356 34.3984 25.9267C35.2255 25.6122 35.4112 25.1938 35.4037 24.3891C35.3666 20.5958 35.3889 16.8 35.3839 13.0042C35.3839 12.613 35.3468 12.2218 35.327 11.8578C34.6584 11.8578 34.1459 11.8578 33.5293 11.8578C33.5293 12.3877 33.5293 12.8334 33.5293 13.2815C33.5293 16.6638 33.512 20.0461 33.5442 23.4284C33.5516 24.1068 33.356 24.4287 32.6973 24.6788C29.5179 25.8945 26.3733 27.2018 23.1914 28.4126C22.7135 28.5934 22.0549 28.5959 21.572 28.4201C18.2936 27.239 15.0474 25.9638 11.7714 24.7753C11.0633 24.5178 10.8503 24.1662 10.8602 23.4358C10.8974 20.0114 10.8776 16.5895 10.8776 13.1651C10.8776 12.7269 10.8776 12.2862 10.8776 11.8083C10.2115 11.8132 9.7212 11.8132 9.11702 11.8132Z" fill="#237CC1"/>
<path d="M53.222 33.4216C53.5761 37.0986 52.7516 40.5576 51.6348 43.9547C48.9458 52.1356 43.5601 58.2885 36.8151 63.3719C34.8466 64.855 32.7146 66.1203 30.6966 67.539C30.0082 68.0244 29.4882 67.9946 28.8172 67.5267C27.8787 66.868 26.8685 66.3109 25.9077 65.7241C29.4313 62.2477 32.9127 58.8085 36.3645 55.4015C36.3645 56.3968 36.3645 57.5903 36.3645 58.8655C37.0083 58.8655 37.5184 58.8655 38.1423 58.8655C38.1423 57.1347 38.1423 55.4634 38.1423 53.6831C40.2545 53.6831 42.2552 53.6831 44.4664 53.6831C44.0009 52.8462 43.6295 52.1801 43.1813 51.3705C44.9864 49.9492 46.8138 48.5131 48.7427 46.9953C48.0642 46.6115 47.5046 46.2946 46.8584 45.9281C47.2025 44.7396 47.5467 43.5486 47.9355 42.1967C46.6033 42.4468 45.4519 42.6622 44.251 42.8875C43.9316 42.224 43.6196 41.5703 43.2754 40.8547C42.8792 41.1444 42.5573 41.3821 42.0423 41.7585C42.332 40.1713 42.5845 38.7823 42.8891 37.1184C41.7402 37.8513 40.7695 38.4703 39.685 39.1636C38.8976 37.7918 38.1275 36.4498 37.2707 34.9543C36.4487 36.3855 35.6811 37.7176 34.854 39.1561C33.8462 38.5173 32.8632 37.8958 31.6573 37.1307C31.9545 38.7748 32.212 40.1961 32.4967 41.7708C32.056 41.4341 31.7415 41.1915 31.4444 40.9661C30.4391 41.1939 31.1225 43.1079 29.565 42.7514C28.6513 42.5409 27.7203 42.4097 26.6159 42.2091C26.8734 43.1277 27.022 43.9621 27.3439 44.7223C27.75 45.678 27.5816 46.2574 26.5565 46.5521C26.3311 46.6165 26.1355 46.7873 25.8211 46.9705C26.2494 47.3519 26.6258 47.6861 26.918 47.9486C23.543 51.321 20.1928 54.6661 16.6791 58.1771C15.1563 56.2805 13.5964 54.3417 11.9621 52.3089C12.3187 51.9251 12.5787 51.628 12.856 51.3482C18.6006 45.6013 24.3403 39.8494 30.1073 34.1273C30.4762 33.7608 31.0532 33.3894 31.5385 33.3845C38.5905 33.3374 45.6451 33.3523 52.6971 33.3572C52.8556 33.3548 53.0116 33.3919 53.222 33.4216Z" fill="#237CC1"/>
<path d="M34.9382 46.1952C34.693 44.4743 34.4504 42.756 34.1854 40.894C34.6732 41.1465 35.0248 41.3273 35.4681 41.5551C36.0574 40.53 36.622 39.5421 37.2682 38.4204C37.8996 39.5198 38.4617 40.4978 39.0535 41.5328C39.4794 41.3273 39.8707 41.1391 40.4451 40.8643C40.091 42.756 39.7617 44.5041 39.3853 46.5047C40.5615 45.4821 41.5643 44.608 42.6736 43.6424C43.0971 45.3954 44.2683 44.5808 45.2365 44.4743C45.7936 45.3756 43.9538 46.4849 45.5856 47.2896C44.3252 48.2726 43.0649 49.1986 41.8813 50.2138C41.4727 50.5654 41.2622 51.1448 40.8017 51.8752C38.6128 51.8752 35.9782 51.8752 33.7323 51.8752C33.2965 51.177 33.0885 50.5827 32.675 50.2262C31.5236 49.2308 30.2855 48.337 29.0202 47.354C30.4316 46.4453 29.0252 45.5217 29.1514 44.5263C30.0354 44.306 31.4369 45.6207 31.8306 43.6944C32.93 44.566 33.9428 45.3682 34.958 46.1729C34.9902 46.2199 35.0224 46.267 35.057 46.3116C35.0694 46.2818 35.0793 46.2497 35.0917 46.2199C35.0397 46.2125 34.9902 46.2051 34.9382 46.1952Z" fill="#237CC1"/>
<path d="M23.8798 64.3746C22.1688 62.9682 20.2349 61.3786 18.4124 59.8806C21.9162 56.3844 25.3357 52.9699 28.8791 49.4316C29.5278 49.9343 30.4143 50.6201 31.3429 51.3382C30.9343 52.0959 30.5753 52.7669 30.1172 53.6186C31.7539 53.6186 33.2322 53.6186 34.7649 53.6186C31.1027 57.2386 27.5445 60.7546 23.8798 64.3746Z" fill="#237CC1"/>
<path d="M13.9034 12.4673C16.3473 13.324 18.6353 14.104 20.901 14.9508C21.1808 15.0548 21.5126 15.5054 21.515 15.8C21.5596 18.8035 21.5423 21.8094 21.5423 25.006C19.0463 24.0898 16.6643 23.2306 14.302 22.317C14.099 22.2378 13.9207 21.8069 13.9182 21.5395C13.8935 18.5732 13.9034 15.6094 13.9034 12.4673ZM20.3141 21.9703C20.4553 21.8688 20.5989 21.7673 20.74 21.6658C20.4676 21.1285 20.324 20.299 19.8956 20.1059C18.3926 19.4274 16.793 18.9719 15.2281 18.4296C15.1216 18.4989 15.0176 18.5683 14.9112 18.6401C15.139 19.212 15.2182 20.1108 15.6243 20.2965C17.1298 20.9799 18.7418 21.4306 20.3141 21.9703ZM20.2844 18.5509C20.4305 18.4544 20.5791 18.3578 20.7252 18.2612C20.4602 17.7289 20.324 16.9093 19.9031 16.7187C18.3951 16.0353 16.793 15.5648 14.8047 14.8666C15.1415 15.7753 15.2009 16.6964 15.5995 16.8796C17.1026 17.5655 18.7121 18.0136 20.2844 18.5509Z" fill="#237CC1"/>
<path d="M23.1022 25.0184C23.1022 21.7995 23.0849 18.8307 23.127 15.8619C23.1319 15.5574 23.4266 15.082 23.6965 14.9829C25.9993 14.1213 28.3294 13.3265 30.7807 12.4673C30.7807 15.6094 30.7931 18.6128 30.7609 21.6163C30.7585 21.8688 30.5208 22.2625 30.2979 22.3492C27.9678 23.243 25.618 24.0923 23.1022 25.0184ZM29.5476 14.9978C28.1684 15.4831 26.8932 16.0501 25.5561 16.3646C24.2734 16.6667 24.0035 17.3302 24.4072 18.5658C25.7121 18.1151 26.9972 17.5803 28.3294 17.2411C29.5377 16.9341 29.9488 16.3151 29.5476 14.9978ZM24.4121 21.9629C25.7591 21.5073 27.0913 20.9973 28.4581 20.6085C29.6615 20.2668 30.0131 19.6255 29.4634 18.442C28.1412 18.8901 26.8536 19.4101 25.5214 19.7568C24.2784 20.0811 23.9961 20.767 24.4121 21.9629Z" fill="#237CC1"/>
</svg>
