<svg width="1149" height="660" viewBox="0 0 1149 660" fill="none" xmlns="http://www.w3.org/2000/svg">
<g filter="url(#filter0_di_623_356)">
<g clip-path="url(#clip0_623_356)">
<rect x="84" y="68" width="988.93" height="500" rx="8" fill="white"/>
<rect width="989" height="428" transform="translate(84 90)" fill="#111111"/>
<g clip-path="url(#clip1_623_356)">
<rect x="91" y="169.226" width="483.429" height="269.549" fill="#242424"/>
<rect width="51" height="17" transform="translate(92 422.226)" fill="#0A0A0A"/>
<path d="M100.705 426.05V431.609C100.701 432.38 100.458 433.011 99.9746 433.501C99.4954 433.992 98.8441 434.267 98.0205 434.327L97.7341 434.338C96.8394 434.338 96.1263 434.096 95.5947 433.614C95.0632 433.131 94.7936 432.466 94.7861 431.62V426.05H95.853V431.586C95.853 432.178 96.0159 432.638 96.3416 432.968C96.6672 433.293 97.1314 433.456 97.7341 433.456C98.3443 433.456 98.8104 433.293 99.1323 432.968C99.458 432.642 99.6208 432.184 99.6208 431.592V426.05H100.705ZM102.766 428.15L102.8 428.914C103.264 428.33 103.87 428.038 104.619 428.038C105.903 428.038 106.55 428.762 106.562 430.211V434.226H105.523V430.205C105.519 429.767 105.418 429.443 105.22 429.234C105.025 429.024 104.72 428.919 104.304 428.919C103.967 428.919 103.672 429.009 103.417 429.189C103.163 429.368 102.964 429.604 102.822 429.896V434.226H101.783V428.15H102.766ZM108.797 434.226H107.758V428.15H108.797V434.226ZM107.674 426.538C107.674 426.37 107.725 426.228 107.826 426.112C107.93 425.996 108.084 425.938 108.286 425.938C108.488 425.938 108.642 425.996 108.747 426.112C108.851 426.228 108.904 426.37 108.904 426.538C108.904 426.707 108.851 426.847 108.747 426.959C108.642 427.072 108.488 427.128 108.286 427.128C108.084 427.128 107.93 427.072 107.826 426.959C107.725 426.847 107.674 426.707 107.674 426.538ZM117.069 430.615H113.638V434.226H112.56V426.05H117.625V426.937H113.638V429.733H117.069V430.615ZM117.895 431.132C117.895 430.536 118.011 430.001 118.243 429.526C118.479 429.05 118.805 428.683 119.22 428.425C119.64 428.167 120.117 428.038 120.652 428.038C121.479 428.038 122.148 428.324 122.657 428.897C123.17 429.469 123.426 430.231 123.426 431.182V431.255C123.426 431.847 123.312 432.378 123.084 432.85C122.859 433.318 122.535 433.683 122.112 433.945C121.693 434.207 121.21 434.338 120.663 434.338C119.84 434.338 119.172 434.052 118.659 433.479C118.15 432.906 117.895 432.148 117.895 431.205V431.132ZM118.94 431.255C118.94 431.929 119.095 432.47 119.406 432.878C119.72 433.286 120.139 433.49 120.663 433.49C121.191 433.49 121.61 433.284 121.921 432.872C122.232 432.457 122.387 431.877 122.387 431.132C122.387 430.465 122.228 429.926 121.91 429.514C121.596 429.099 121.176 428.891 120.652 428.891C120.139 428.891 119.726 429.095 119.411 429.503C119.097 429.911 118.94 430.495 118.94 431.255ZM126.184 430.368L127.531 428.15H128.744L126.756 431.154L128.806 434.226H127.604L126.2 431.951L124.797 434.226H123.589L125.639 431.154L123.651 428.15H124.853L126.184 430.368ZM131.799 434.338C130.976 434.338 130.306 434.068 129.789 433.529C129.272 432.986 129.014 432.262 129.014 431.356V431.165C129.014 430.563 129.128 430.025 129.357 429.554C129.589 429.078 129.911 428.708 130.322 428.442C130.738 428.172 131.187 428.038 131.67 428.038C132.46 428.038 133.074 428.298 133.512 428.818C133.95 429.338 134.169 430.083 134.169 431.053V431.485H130.053C130.068 432.084 130.242 432.569 130.575 432.94C130.912 433.307 131.339 433.49 131.855 433.49C132.222 433.49 132.533 433.415 132.788 433.265C133.042 433.116 133.265 432.917 133.456 432.67L134.09 433.164C133.581 433.947 132.818 434.338 131.799 434.338ZM131.67 428.891C131.251 428.891 130.899 429.045 130.614 429.352C130.33 429.655 130.154 430.082 130.087 430.632H133.13V430.553C133.1 430.025 132.958 429.617 132.703 429.329C132.449 429.037 132.104 428.891 131.67 428.891ZM138.454 432.614C138.454 432.333 138.347 432.116 138.134 431.963C137.924 431.805 137.555 431.671 137.028 431.558C136.503 431.446 136.086 431.311 135.775 431.154C135.468 430.997 135.24 430.81 135.09 430.593C134.944 430.375 134.871 430.117 134.871 429.818C134.871 429.32 135.081 428.899 135.5 428.554C135.923 428.21 136.462 428.038 137.117 428.038C137.806 428.038 138.364 428.215 138.791 428.571C139.221 428.927 139.436 429.382 139.436 429.936H138.392C138.392 429.651 138.27 429.406 138.027 429.2C137.787 428.994 137.484 428.891 137.117 428.891C136.739 428.891 136.444 428.973 136.23 429.138C136.017 429.303 135.91 429.518 135.91 429.784C135.91 430.035 136.009 430.224 136.208 430.351C136.406 430.478 136.764 430.6 137.28 430.716C137.801 430.832 138.222 430.971 138.544 431.132C138.866 431.293 139.103 431.487 139.257 431.716C139.414 431.94 139.493 432.215 139.493 432.541C139.493 433.084 139.275 433.52 138.841 433.849C138.407 434.175 137.844 434.338 137.151 434.338C136.664 434.338 136.234 434.252 135.86 434.08C135.485 433.907 135.191 433.668 134.978 433.361C134.768 433.05 134.664 432.715 134.664 432.356H135.702C135.721 432.704 135.86 432.981 136.118 433.187C136.38 433.389 136.724 433.49 137.151 433.49C137.544 433.49 137.859 433.411 138.094 433.254C138.334 433.093 138.454 432.88 138.454 432.614Z" fill="white"/>
</g>
<g clip-path="url(#clip2_623_356)">
<rect x="582" y="169.226" width="484.352" height="269.549" fill="#242424"/>
<rect width="49" height="17" transform="translate(582 422.226)" fill="#0A0A0A"/>
<path d="M590.963 431.631C590.862 432.496 590.542 433.164 590.003 433.636C589.467 434.104 588.754 434.338 587.863 434.338C586.897 434.338 586.123 433.992 585.539 433.299C584.958 432.607 584.668 431.68 584.668 430.52V429.733C584.668 428.973 584.803 428.305 585.073 427.729C585.346 427.152 585.731 426.711 586.229 426.404C586.727 426.093 587.304 425.938 587.959 425.938C588.827 425.938 589.524 426.181 590.048 426.667C590.572 427.15 590.877 427.82 590.963 428.678H589.879C589.786 428.026 589.582 427.555 589.267 427.263C588.956 426.971 588.52 426.825 587.959 426.825C587.27 426.825 586.729 427.079 586.336 427.588C585.947 428.097 585.752 428.822 585.752 429.761V430.553C585.752 431.44 585.937 432.146 586.308 432.67C586.678 433.194 587.197 433.456 587.863 433.456C588.462 433.456 588.921 433.322 589.239 433.052C589.561 432.779 589.774 432.305 589.879 431.631H590.963ZM595.568 434.226C595.508 434.106 595.459 433.892 595.422 433.585C594.939 434.087 594.362 434.338 593.692 434.338C593.093 434.338 592.601 434.169 592.216 433.833C591.834 433.492 591.643 433.061 591.643 432.541C591.643 431.908 591.882 431.418 592.362 431.07C592.844 430.718 593.522 430.542 594.394 430.542H595.405V430.065C595.405 429.702 595.296 429.413 595.079 429.2C594.862 428.983 594.542 428.874 594.119 428.874C593.748 428.874 593.438 428.968 593.187 429.155C592.936 429.342 592.811 429.569 592.811 429.834H591.766C591.766 429.531 591.873 429.239 592.086 428.958C592.304 428.674 592.596 428.449 592.962 428.285C593.333 428.12 593.739 428.038 594.181 428.038C594.881 428.038 595.429 428.214 595.826 428.565C596.223 428.914 596.429 429.395 596.444 430.009V432.805C596.444 433.363 596.515 433.806 596.657 434.136V434.226H595.568ZM593.844 433.434C594.17 433.434 594.478 433.35 594.77 433.181C595.062 433.013 595.274 432.794 595.405 432.524V431.278H594.591C593.318 431.278 592.682 431.65 592.682 432.395C592.682 432.721 592.79 432.975 593.007 433.159C593.224 433.342 593.503 433.434 593.844 433.434ZM601.363 433.625C600.959 434.1 600.366 434.338 599.583 434.338C598.936 434.338 598.441 434.151 598.101 433.776C597.764 433.398 597.594 432.84 597.59 432.103V428.15H598.629V432.075C598.629 432.996 599.003 433.456 599.752 433.456C600.545 433.456 601.073 433.161 601.335 432.569V428.15H602.374V434.226H601.386L601.363 433.625ZM607.035 432.614C607.035 432.333 606.928 432.116 606.715 431.963C606.505 431.805 606.137 431.671 605.609 431.558C605.085 431.446 604.667 431.311 604.357 431.154C604.05 430.997 603.821 430.81 603.672 430.593C603.526 430.375 603.453 430.117 603.453 429.818C603.453 429.32 603.662 428.899 604.081 428.554C604.504 428.21 605.044 428.038 605.699 428.038C606.387 428.038 606.945 428.215 607.372 428.571C607.802 428.927 608.018 429.382 608.018 429.936H606.973C606.973 429.651 606.852 429.406 606.608 429.2C606.369 428.994 606.065 428.891 605.699 428.891C605.321 428.891 605.025 428.973 604.811 429.138C604.598 429.303 604.491 429.518 604.491 429.784C604.491 430.035 604.591 430.224 604.789 430.351C604.987 430.478 605.345 430.6 605.861 430.716C606.382 430.832 606.803 430.971 607.125 431.132C607.447 431.293 607.685 431.487 607.838 431.716C607.995 431.94 608.074 432.215 608.074 432.541C608.074 433.084 607.857 433.52 607.422 433.849C606.988 434.175 606.425 434.338 605.732 434.338C605.246 434.338 604.815 434.252 604.441 434.08C604.066 433.907 603.773 433.668 603.559 433.361C603.35 433.05 603.245 432.715 603.245 432.356H604.284C604.302 432.704 604.441 432.981 604.699 433.187C604.961 433.389 605.306 433.49 605.732 433.49C606.125 433.49 606.44 433.411 606.676 433.254C606.915 433.093 607.035 432.88 607.035 432.614ZM612.718 434.226C612.658 434.106 612.61 433.892 612.572 433.585C612.089 434.087 611.513 434.338 610.843 434.338C610.244 434.338 609.751 434.169 609.366 433.833C608.984 433.492 608.793 433.061 608.793 432.541C608.793 431.908 609.033 431.418 609.512 431.07C609.995 430.718 610.672 430.542 611.545 430.542H612.555V430.065C612.555 429.702 612.447 429.413 612.23 429.2C612.012 428.983 611.692 428.874 611.269 428.874C610.899 428.874 610.588 428.968 610.337 429.155C610.086 429.342 609.961 429.569 609.961 429.834H608.917C608.917 429.531 609.023 429.239 609.237 428.958C609.454 428.674 609.746 428.449 610.113 428.285C610.483 428.12 610.889 428.038 611.331 428.038C612.031 428.038 612.58 428.214 612.976 428.565C613.373 428.914 613.579 429.395 613.594 430.009V432.805C613.594 433.363 613.665 433.806 613.807 434.136V434.226H612.718ZM610.994 433.434C611.32 433.434 611.629 433.35 611.921 433.181C612.213 433.013 612.424 432.794 612.555 432.524V431.278H611.741C610.468 431.278 609.832 431.65 609.832 432.395C609.832 432.721 609.94 432.975 610.158 433.159C610.375 433.342 610.654 433.434 610.994 433.434ZM619.906 431.255C619.906 432.184 619.693 432.93 619.266 433.496C618.839 434.057 618.266 434.338 617.548 434.338C616.78 434.338 616.187 434.066 615.768 433.524L615.717 434.226H614.763V425.601H615.801V428.818C616.221 428.298 616.799 428.038 617.536 428.038C618.274 428.038 618.852 428.316 619.272 428.874C619.695 429.432 619.906 430.196 619.906 431.165V431.255ZM618.867 431.137C618.867 430.43 618.731 429.883 618.457 429.498C618.184 429.112 617.791 428.919 617.278 428.919C616.593 428.919 616.101 429.237 615.801 429.874V432.502C616.12 433.138 616.616 433.456 617.289 433.456C617.787 433.456 618.175 433.264 618.452 432.878C618.729 432.492 618.867 431.912 618.867 431.137ZM621.889 434.226H620.85V425.601H621.889V434.226ZM625.618 434.338C624.794 434.338 624.124 434.068 623.607 433.529C623.091 432.986 622.832 432.262 622.832 431.356V431.165C622.832 430.563 622.947 430.025 623.175 429.554C623.407 429.078 623.729 428.708 624.141 428.442C624.556 428.172 625.006 428.038 625.488 428.038C626.278 428.038 626.892 428.298 627.33 428.818C627.768 429.338 627.987 430.083 627.987 431.053V431.485H623.871C623.886 432.084 624.06 432.569 624.394 432.94C624.73 433.307 625.157 433.49 625.674 433.49C626.041 433.49 626.351 433.415 626.606 433.265C626.86 433.116 627.083 432.917 627.274 432.67L627.909 433.164C627.4 433.947 626.636 434.338 625.618 434.338ZM625.488 428.891C625.069 428.891 624.717 429.045 624.433 429.352C624.148 429.655 623.972 430.082 623.905 430.632H626.948V430.553C626.919 430.025 626.776 429.617 626.522 429.329C626.267 429.037 625.923 428.891 625.488 428.891Z" fill="white"/>
</g>
<rect x="581" y="168.226" width="486.352" height="271.549" stroke="url(#paint0_linear_623_356)" stroke-width="2"/>
<path d="M1011 102C1011 99.7909 1012.79 98 1015 98H1061C1063.21 98 1065 99.7909 1065 102V119C1065 121.209 1063.21 123 1061 123H1015C1012.79 123 1011 121.209 1011 119V102Z" fill="#242424"/>
<rect x="1019" y="105" width="3" height="3" rx="1" fill="#C4C4C4"/>
<rect x="1019" y="109" width="3" height="3" rx="1" fill="#C4C4C4"/>
<rect x="1019" y="113" width="3" height="3" rx="1" fill="#C4C4C4"/>
<rect x="1023" y="105" width="3" height="3" rx="1" fill="#C4C4C4"/>
<rect x="1023" y="109" width="3" height="3" rx="1" fill="#C4C4C4"/>
<rect x="1023" y="113" width="3" height="3" rx="1" fill="#C4C4C4"/>
<rect x="1027" y="105" width="3" height="3" rx="1" fill="#C4C4C4"/>
<rect x="1027" y="109" width="3" height="3" rx="1" fill="#C4C4C4"/>
<rect x="1027" y="113" width="3" height="3" rx="1" fill="#C4C4C4"/>
<path d="M1035.64 114H1036.96L1039.72 106.25H1038.42L1036.34 112.55H1036.25L1034.18 106.25H1032.87L1035.64 114ZM1041 107.125C1041.4 107.125 1041.73 106.797 1041.73 106.4C1041.73 105.997 1041.4 105.669 1041 105.669C1040.6 105.669 1040.27 105.997 1040.27 106.4C1040.27 106.797 1040.6 107.125 1041 107.125ZM1040.41 114H1041.57V108.167H1040.41V114ZM1045.17 114.113C1046.66 114.113 1047.47 113.253 1047.66 112.485L1047.67 112.437L1046.55 112.442L1046.53 112.485C1046.39 112.786 1045.94 113.157 1045.2 113.157C1044.24 113.157 1043.62 112.507 1043.6 111.39H1047.74V110.981C1047.74 109.23 1046.74 108.054 1045.11 108.054C1043.48 108.054 1042.43 109.273 1042.43 111.094V111.1C1042.43 112.947 1043.46 114.113 1045.17 114.113ZM1045.12 109.01C1045.91 109.01 1046.49 109.515 1046.58 110.557H1043.62C1043.72 109.553 1044.32 109.01 1045.12 109.01ZM1049.65 114H1050.84L1052.04 109.649H1052.13L1053.34 114H1054.54L1056.15 108.167H1054.99L1053.95 112.668H1053.86L1052.66 108.167H1051.55L1050.35 112.668H1050.26L1049.21 108.167H1048.04L1049.65 114Z" fill="#D5D6D5"/>
<rect x="92" y="98" width="26" height="26" rx="4" fill="#111111"/>
<path d="M105 117C105.75 117 111 114.176 111 107.824C110.613 107.824 107.323 107.118 105 105C102.678 107.118 99.387 107.824 99 107.824C99 114.176 104.251 117 105 117Z" fill="#69D569"/>
<path d="M103 111L104.667 112.5L108 109.5" stroke="#111111" stroke-linecap="round" stroke-linejoin="round"/>
<rect x="123" y="98" width="128" height="26" rx="4" fill="#111111" fill-opacity="0.4"/>
<path d="M133.598 115.202C135.962 115.202 137.428 113.557 137.428 110.951V110.94C137.428 108.329 135.956 106.695 133.598 106.695C131.245 106.695 129.763 108.329 129.763 110.94V110.951C129.763 113.557 131.223 115.202 133.598 115.202ZM133.598 113.95C132.138 113.95 131.24 112.771 131.24 110.951V110.94C131.24 109.11 132.161 107.947 133.598 107.947C135.036 107.947 135.951 109.11 135.951 110.94V110.951C135.951 112.771 135.041 113.95 133.598 113.95ZM138.369 115H139.767V111.434C139.767 110.558 140.379 110.002 141.311 110.002C141.553 110.002 141.783 110.036 142.007 110.081V108.829C141.873 108.79 141.654 108.761 141.44 108.761C140.632 108.761 140.07 109.149 139.862 109.806H139.767V108.863H138.369V115ZM143.297 107.835C143.752 107.835 144.128 107.47 144.128 107.01C144.128 106.555 143.752 106.184 143.297 106.184C142.836 106.184 142.46 106.555 142.46 107.01C142.46 107.47 142.836 107.835 143.297 107.835ZM142.595 115H143.993V108.863H142.595V115ZM147.775 117.156C149.567 117.156 150.701 116.263 150.701 114.848V108.863H149.303V109.873H149.23C148.882 109.177 148.219 108.761 147.371 108.761C145.788 108.761 144.822 109.986 144.822 111.76V111.771C144.822 113.512 145.788 114.714 147.343 114.714C148.191 114.714 148.859 114.354 149.213 113.697H149.308V114.871C149.308 115.657 148.752 116.101 147.798 116.101C147.017 116.101 146.551 115.825 146.456 115.432L146.45 115.416H145.052L145.046 115.432C145.187 116.466 146.158 117.156 147.775 117.156ZM147.775 113.602C146.804 113.602 146.254 112.855 146.254 111.771V111.76C146.254 110.676 146.804 109.924 147.775 109.924C148.741 109.924 149.331 110.676 149.331 111.76V111.771C149.331 112.855 148.747 113.602 147.775 113.602ZM152.557 107.835C153.012 107.835 153.388 107.47 153.388 107.01C153.388 106.555 153.012 106.184 152.557 106.184C152.097 106.184 151.721 106.555 151.721 107.01C151.721 107.47 152.097 107.835 152.557 107.835ZM151.855 115H153.254V108.863H151.855V115ZM154.397 115H155.795V111.423C155.795 110.502 156.312 109.918 157.143 109.918C157.991 109.918 158.378 110.401 158.378 111.356V115H159.776V111.03C159.776 109.57 159.029 108.745 157.659 108.745C156.772 108.745 156.183 109.143 155.891 109.8H155.795V108.863H154.397V115ZM162.526 115.101C163.334 115.101 163.985 114.753 164.322 114.158H164.418V115H165.799V110.805C165.799 109.508 164.912 108.745 163.334 108.745C161.874 108.745 160.886 109.43 160.751 110.463L160.746 110.513H162.065L162.071 110.491C162.211 110.087 162.627 109.856 163.267 109.856C164.019 109.856 164.418 110.193 164.418 110.805V111.333L162.84 111.429C161.346 111.519 160.51 112.159 160.51 113.254V113.265C160.51 114.382 161.358 115.101 162.526 115.101ZM161.891 113.198V113.186C161.891 112.681 162.256 112.395 163.037 112.344L164.418 112.254V112.748C164.418 113.478 163.795 114.029 162.952 114.029C162.335 114.029 161.891 113.72 161.891 113.198ZM166.959 115H168.358V106.487H166.959V115ZM175.001 115.202C176.944 115.202 178.163 114.214 178.163 112.636V112.63C178.163 111.406 177.45 110.721 175.743 110.362L174.872 110.177C173.862 109.963 173.452 109.604 173.452 109.031V109.025C173.452 108.335 174.092 107.914 174.99 107.914C175.917 107.908 176.518 108.357 176.619 108.986L176.63 109.053H178.017L178.011 108.98C177.91 107.678 176.793 106.695 174.996 106.695C173.244 106.695 171.997 107.672 171.997 109.121V109.126C171.997 110.334 172.716 111.109 174.373 111.457L175.243 111.636C176.287 111.861 176.708 112.215 176.708 112.799V112.804C176.708 113.501 176.023 113.984 175.046 113.984C174.019 113.984 173.294 113.534 173.227 112.855L173.221 112.799H171.818L171.823 112.877C171.924 114.276 173.12 115.202 175.001 115.202ZM181.721 115.124C183.557 115.124 184.674 113.922 184.674 111.934V111.923C184.674 109.946 183.551 108.745 181.721 108.745C179.896 108.745 178.767 109.952 178.767 111.923V111.934C178.767 113.922 179.879 115.124 181.721 115.124ZM181.721 113.989C180.749 113.989 180.193 113.231 180.193 111.94V111.928C180.193 110.637 180.749 109.873 181.721 109.873C182.686 109.873 183.242 110.637 183.242 111.928V111.94C183.242 113.231 182.692 113.989 181.721 113.989ZM187.536 115.124C188.423 115.124 189.046 114.725 189.333 114.068H189.428V115H190.826V108.863H189.428V112.439C189.428 113.36 188.945 113.944 188.041 113.944C187.199 113.944 186.845 113.461 186.845 112.512V108.863H185.447V112.833C185.447 114.292 186.154 115.124 187.536 115.124ZM191.958 115H193.357V111.423C193.357 110.502 193.873 109.918 194.704 109.918C195.552 109.918 195.94 110.401 195.94 111.356V115H197.338V111.03C197.338 109.57 196.591 108.745 195.221 108.745C194.334 108.745 193.744 109.143 193.452 109.8H193.357V108.863H191.958V115ZM200.626 115.101C201.491 115.101 202.153 114.708 202.49 114.04H202.586V115H203.99V106.487H202.586V109.84H202.49C202.17 109.177 201.468 108.761 200.626 108.761C199.071 108.761 198.11 109.974 198.11 111.928V111.94C198.11 113.883 199.087 115.101 200.626 115.101ZM201.064 113.922C200.109 113.922 199.531 113.175 199.531 111.94V111.928C199.531 110.693 200.115 109.941 201.064 109.941C202.013 109.941 202.608 110.699 202.608 111.928V111.94C202.608 113.169 202.019 113.922 201.064 113.922ZM206.211 110.94C206.728 110.94 207.104 110.553 207.104 110.059C207.104 109.559 206.728 109.171 206.211 109.171C205.7 109.171 205.318 109.559 205.318 110.059C205.318 110.553 205.7 110.94 206.211 110.94ZM206.211 115.112C206.728 115.112 207.104 114.719 207.104 114.225C207.104 113.725 206.728 113.338 206.211 113.338C205.7 113.338 205.318 113.725 205.318 114.225C205.318 114.719 205.7 115.112 206.211 115.112ZM214.511 115.202C216.875 115.202 218.341 113.557 218.341 110.951V110.94C218.341 108.329 216.87 106.695 214.511 106.695C212.159 106.695 210.676 108.329 210.676 110.94V110.951C210.676 113.557 212.136 115.202 214.511 115.202ZM214.511 113.95C213.051 113.95 212.153 112.771 212.153 110.951V110.94C212.153 109.11 213.074 107.947 214.511 107.947C215.949 107.947 216.864 109.11 216.864 110.94V110.951C216.864 112.771 215.954 113.95 214.511 113.95ZM219.731 115H221.129V109.946H222.438V108.863H221.107V108.335C221.107 107.751 221.36 107.436 222.017 107.436C222.213 107.436 222.387 107.448 222.494 107.464V106.487C222.269 106.448 222.017 106.431 221.719 106.431C220.355 106.431 219.731 107.032 219.731 108.256V108.863H218.726V109.946H219.731V115ZM223.693 115H225.092V109.946H226.4V108.863H225.069V108.335C225.069 107.751 225.322 107.436 225.979 107.436C226.175 107.436 226.349 107.448 226.456 107.464V106.487C226.231 106.448 225.979 106.431 225.681 106.431C224.317 106.431 223.693 107.032 223.693 108.256V108.863H222.688V109.946H223.693V115Z" fill="white"/>
<path d="M237 109L241 113L245 109H237Z" fill="white"/>
<g filter="url(#filter1_i_623_356)">
<rect width="989" height="22" transform="translate(84 68)" fill="#393A3B"/>
<ellipse cx="95.5645" cy="78.2905" rx="4.5" ry="4.5" fill="#ED695E"/>
<circle cx="109.964" cy="78.2905" r="4.5" fill="#F4BE4F"/>
<circle cx="124.364" cy="78.2905" r="4.5" fill="#63C454"/>
</g>
<rect width="989" height="50" transform="translate(84 518)" fill="#1B1B1B"/>
<path d="M1007 536C1007 532.134 1010.13 529 1014 529H1056C1059.87 529 1063 532.134 1063 536V550C1063 553.866 1059.87 557 1056 557H1014C1010.13 557 1007 553.866 1007 550V536Z" fill="#AB342E"/>
<path d="M1024.25 547H1030.05V545.271H1026.4V543.543H1029.83V541.961H1026.4V540.273H1030.05V538.545H1024.25V547ZM1031.7 547H1033.77V543.273C1033.77 542.523 1034.17 542.014 1034.84 542.014C1035.54 542.014 1035.87 542.459 1035.87 543.25V547H1037.94V542.787C1037.94 541.223 1037.19 540.326 1035.74 540.326C1034.82 540.326 1034.16 540.783 1033.88 541.498H1033.77V540.479H1031.7V547ZM1041.78 547.1C1042.71 547.1 1043.38 546.695 1043.69 546.004H1043.8V547H1045.88V538.035H1043.8V541.527H1043.69C1043.38 540.807 1042.68 540.379 1041.78 540.379C1040.13 540.379 1039.18 541.609 1039.18 543.73V543.742C1039.18 545.852 1040.16 547.1 1041.78 547.1ZM1042.55 545.406C1041.77 545.406 1041.29 544.779 1041.29 543.742V543.73C1041.29 542.705 1041.78 542.072 1042.55 542.072C1043.31 542.072 1043.82 542.699 1043.82 543.736V543.748C1043.82 544.785 1043.33 545.406 1042.55 545.406Z" fill="white"/>
<path d="M86 530.27C86 526.284 86 524.29 86.7881 522.773C87.4522 521.495 88.4947 520.452 89.7732 519.788C91.2903 519 93.2836 519 97.27 519H149.73C153.716 519 155.71 519 157.227 519.788C158.505 520.452 159.548 521.495 160.212 522.773C161 524.29 161 526.284 161 530.27V555.73C161 559.716 161 561.71 160.212 563.227C159.548 564.505 158.505 565.548 157.227 566.212C155.71 567 153.716 567 149.73 567H97.27C93.2836 567 91.2903 567 89.7732 566.212C88.4947 565.548 87.4522 564.505 86.7881 563.227C86 561.71 86 559.716 86 555.73V530.27Z" fill="#1B1B1B"/>
<rect x="120" y="524" width="8" height="14" rx="4" fill="#ACACAC"/>
<path fill-rule="evenodd" clip-rule="evenodd" d="M118.803 534.748C118.745 534.338 118.414 534 118 534C117.586 534 117.246 534.337 117.291 534.749C117.637 537.878 120.121 540.363 123.25 540.709V543.25H121C120.586 543.25 120.25 543.586 120.25 544C120.25 544.414 120.586 544.75 121 544.75H127C127.414 544.75 127.75 544.414 127.75 544C127.75 543.586 127.414 543.25 127 543.25H124.75V540.709C127.879 540.363 130.364 537.878 130.709 534.749C130.755 534.337 130.414 534 130 534C129.586 534 129.256 534.338 129.197 534.748C128.834 537.293 126.646 539.25 124 539.25C121.355 539.25 119.166 537.293 118.803 534.748Z" fill="#ACACAC"/>
<g clip-path="url(#clip3_623_356)">
<path d="M150.47 535.804C150.73 536.063 151.15 536.063 151.41 535.804L153.647 533.573C153.842 533.378 154.158 533.378 154.353 533.573L156.59 535.804C156.85 536.063 157.27 536.063 157.53 535.804C157.789 535.544 157.789 535.123 157.53 534.863L154.354 531.687C154.158 531.492 153.842 531.492 153.646 531.687L150.47 534.863C150.211 535.123 150.211 535.544 150.47 535.804Z" fill="#ACACAC"/>
</g>
<path d="M101.864 561H102.96V555.312H103.046L105.318 561H106.209L108.487 555.312H108.567V561H109.663V553.25H108.277L105.806 559.432H105.721L103.25 553.25H101.864V561ZM112.867 561.113C113.716 561.113 114.307 560.748 114.586 560.119H114.677V561H115.837V555.167H114.677V558.588C114.677 559.528 114.178 560.114 113.243 560.114C112.389 560.114 112.035 559.636 112.035 558.669V555.167H110.869V558.943C110.869 560.323 111.551 561.113 112.867 561.113ZM119.171 561.038C119.396 561.038 119.611 561.011 119.799 560.979V560.049C119.638 560.065 119.536 560.071 119.359 560.071C118.784 560.071 118.548 559.813 118.548 559.185V556.085H119.799V555.167H118.548V553.695H117.361V555.167H116.448V556.085H117.361V559.464C117.361 560.586 117.887 561.038 119.171 561.038ZM122.993 561.113C124.486 561.113 125.292 560.253 125.485 559.485L125.496 559.437L124.373 559.442L124.352 559.485C124.212 559.786 123.766 560.157 123.02 560.157C122.058 560.157 121.446 559.507 121.425 558.39H125.56V557.981C125.56 556.23 124.561 555.054 122.934 555.054C121.306 555.054 120.254 556.273 120.254 558.094V558.1C120.254 559.947 121.285 561.113 122.993 561.113ZM122.939 556.01C123.729 556.01 124.314 556.515 124.405 557.557H121.441C121.543 556.553 122.144 556.01 122.939 556.01Z" fill="#ACACAC"/>
<path d="M161 530.27C161 526.284 161 524.29 161.788 522.773C162.452 521.495 163.495 520.452 164.773 519.788C166.29 519 168.284 519 172.27 519H235.73C239.716 519 241.71 519 243.227 519.788C244.505 520.452 245.548 521.495 246.212 522.773C247 524.29 247 526.284 247 530.27V555.73C247 559.716 247 561.71 246.212 563.227C245.548 564.505 244.505 565.548 243.227 566.212C241.71 567 239.716 567 235.73 567H172.27C168.284 567 166.29 567 164.773 566.212C163.495 565.548 162.452 564.505 161.788 563.227C161 561.71 161 559.716 161 555.73V530.27Z" fill="#1B1B1B"/>
<path d="M210 531.566C210 531.215 210.184 530.889 210.486 530.709L213.486 528.909C214.152 528.509 215 528.989 215 529.766V539.234C215 540.011 214.152 540.491 213.486 540.091L210.486 538.291C210.184 538.111 210 537.785 210 537.434V531.566Z" fill="#ACACAC"/>
<path fill-rule="evenodd" clip-rule="evenodd" d="M207.212 528.667C206.578 528.245 205.818 528 205 528H195C193.895 528 193 528.895 193 530V537C193 538.59 193.927 539.963 195.271 540.608L207.212 528.667ZM199.121 541H207C208.105 541 209 540.105 209 539V532C209 531.726 208.973 531.459 208.92 531.201L199.121 541Z" fill="#ACACAC"/>
<path d="M214 524L194 544" stroke="#EE6762" stroke-width="1.5" stroke-linecap="round"/>
<g clip-path="url(#clip4_623_356)">
<path d="M236.47 535.804C236.73 536.063 237.15 536.063 237.41 535.804L239.647 533.573C239.842 533.378 240.158 533.378 240.353 533.573L242.59 535.804C242.85 536.063 243.27 536.063 243.53 535.804C243.789 535.544 243.789 535.123 243.53 534.863L240.354 531.687C240.158 531.492 239.842 531.492 239.646 531.687L236.47 534.863C236.211 535.123 236.211 535.544 236.47 535.804Z" fill="#ACACAC"/>
</g>
<path d="M180.899 561.188C182.704 561.188 183.859 560.264 183.859 558.782V558.776C183.859 557.627 183.193 556.972 181.565 556.623L180.722 556.435C179.718 556.22 179.31 555.844 179.31 555.269V555.264C179.31 554.533 179.981 554.109 180.889 554.109C181.829 554.104 182.436 554.565 182.538 555.199L182.548 555.269H183.714L183.708 555.194C183.623 553.991 182.548 553.062 180.905 553.062C179.261 553.062 178.101 553.985 178.096 555.323V555.328C178.096 556.472 178.772 557.203 180.346 557.536L181.195 557.718C182.221 557.938 182.64 558.325 182.64 558.921V558.927C182.64 559.646 181.936 560.141 180.948 560.141C179.911 560.141 179.165 559.689 179.1 558.986L179.095 558.927H177.913L177.918 558.997C178.026 560.302 179.148 561.188 180.899 561.188ZM186.961 561.038C187.187 561.038 187.402 561.011 187.59 560.979V560.049C187.429 560.065 187.326 560.071 187.149 560.071C186.575 560.071 186.338 559.813 186.338 559.185V556.085H187.59V555.167H186.338V553.695H185.151V555.167H184.238V556.085H185.151V559.464C185.151 560.586 185.678 561.038 186.961 561.038ZM189.999 561.097C190.773 561.097 191.385 560.764 191.729 560.173H191.82V561H192.975V557.009C192.975 555.785 192.148 555.054 190.681 555.054C189.355 555.054 188.436 555.693 188.296 556.649L188.291 556.687H189.414L189.419 556.666C189.559 556.252 189.983 556.016 190.628 556.016C191.417 556.016 191.82 556.37 191.82 557.009V557.525L190.241 557.616C188.85 557.702 188.066 558.309 188.066 559.351V559.362C188.066 560.42 188.887 561.097 189.999 561.097ZM189.226 559.313V559.303C189.226 558.776 189.591 558.486 190.397 558.438L191.82 558.347V558.846C191.82 559.598 191.181 560.167 190.311 560.167C189.682 560.167 189.226 559.851 189.226 559.313ZM194.068 561H195.234V557.514C195.234 556.671 195.841 556.123 196.732 556.123C196.953 556.123 197.151 556.15 197.361 556.193V555.119C197.243 555.092 197.038 555.065 196.85 555.065C196.072 555.065 195.529 555.43 195.32 556.048H195.234V555.167H194.068V561ZM200.425 561.038C200.651 561.038 200.866 561.011 201.054 560.979V560.049C200.893 560.065 200.791 560.071 200.613 560.071C200.039 560.071 199.802 559.813 199.802 559.185V556.085H201.054V555.167H199.802V553.695H198.615V555.167H197.702V556.085H198.615V559.464C198.615 560.586 199.142 561.038 200.425 561.038ZM206.619 561H207.946L210.707 553.25H209.402L207.328 559.55H207.237L205.164 553.25H203.859L206.619 561ZM211.983 554.125C212.38 554.125 212.713 553.797 212.713 553.4C212.713 552.997 212.38 552.669 211.983 552.669C211.58 552.669 211.253 552.997 211.253 553.4C211.253 553.797 211.58 554.125 211.983 554.125ZM211.398 561H212.558V555.167H211.398V561ZM215.832 561.097C216.648 561.097 217.287 560.721 217.626 560.082H217.717V561H218.877V552.879H217.717V556.091H217.626C217.314 555.462 216.632 555.065 215.832 555.065C214.35 555.065 213.415 556.23 213.415 558.078V558.089C213.415 559.92 214.366 561.097 215.832 561.097ZM216.165 560.103C215.187 560.103 214.602 559.34 214.602 558.089V558.078C214.602 556.827 215.187 556.064 216.165 556.064C217.132 556.064 217.733 556.832 217.733 558.078V558.089C217.733 559.335 217.137 560.103 216.165 560.103ZM222.511 561.113C224.005 561.113 224.81 560.253 225.004 559.485L225.014 559.437L223.892 559.442L223.87 559.485C223.731 559.786 223.285 560.157 222.538 560.157C221.577 560.157 220.965 559.507 220.943 558.39H225.079V557.981C225.079 556.23 224.08 555.054 222.452 555.054C220.825 555.054 219.772 556.273 219.772 558.094V558.1C219.772 559.947 220.803 561.113 222.511 561.113ZM222.458 556.01C223.247 556.01 223.833 556.515 223.924 557.557H220.959C221.061 556.553 221.663 556.01 222.458 556.01ZM228.385 561.113C230.093 561.113 231.141 559.969 231.141 558.089V558.078C231.141 556.198 230.088 555.054 228.385 555.054C226.677 555.054 225.625 556.204 225.625 558.078V558.089C225.625 559.969 226.672 561.113 228.385 561.113ZM228.385 560.141C227.381 560.141 226.817 559.383 226.817 558.089V558.078C226.817 556.784 227.381 556.026 228.385 556.026C229.384 556.026 229.954 556.784 229.954 558.078V558.089C229.954 559.378 229.384 560.141 228.385 560.141Z" fill="#ACACAC"/>
<path d="M291 530.27C291 526.284 291 524.29 291.788 522.773C292.452 521.495 293.495 520.452 294.773 519.788C296.29 519 298.284 519 302.27 519H357.73C361.716 519 363.71 519 365.227 519.788C366.505 520.452 367.548 521.495 368.212 522.773C369 524.29 369 526.284 369 530.27V555.73C369 559.716 369 561.71 368.212 563.227C367.548 564.505 366.505 565.548 365.227 566.212C363.71 567 361.716 567 357.73 567H302.27C298.284 567 296.29 567 294.773 566.212C293.495 565.548 292.452 564.505 291.788 563.227C291 561.71 291 559.716 291 555.73V530.27Z" fill="#1B1B1B"/>
<mask id="mask0_623_356" style="mask-type:alpha" maskUnits="userSpaceOnUse" x="322" y="525" width="16" height="17">
<path d="M330 542C331 542 338 538 338 529C337.484 529 333.097 528 330 525C326.904 528 322.516 529 322 529C322 538 329.001 542 330 542Z" fill="#C4C4C4"/>
</mask>
<g mask="url(#mask0_623_356)">
<rect x="321" y="524" width="9" height="9.5" fill="#ACACAC"/>
<rect x="330" y="533.5" width="9" height="9.5" fill="#ACACAC"/>
</g>
<path d="M330 542C331 542 338 538 338 529C337.484 529 333.097 528 330 525C326.904 528 322.516 529 322 529C322 538 329.001 542 330 542Z" stroke="#ACACAC" stroke-linejoin="round"/>
<path d="M313.97 561.188C315.775 561.188 316.929 560.264 316.929 558.782V558.776C316.929 557.627 316.263 556.972 314.636 556.623L313.793 556.435C312.788 556.22 312.38 555.844 312.38 555.269V555.264C312.38 554.533 313.051 554.109 313.959 554.109C314.899 554.104 315.506 554.565 315.608 555.199L315.619 555.269H316.784L316.779 555.194C316.693 553.991 315.619 553.062 313.975 553.062C312.332 553.062 311.172 553.985 311.166 555.323V555.328C311.166 556.472 311.843 557.203 313.417 557.536L314.265 557.718C315.291 557.938 315.71 558.325 315.71 558.921V558.927C315.71 559.646 315.007 560.141 314.018 560.141C312.982 560.141 312.235 559.689 312.171 558.986L312.165 558.927H310.984L310.989 558.997C311.096 560.302 312.219 561.188 313.97 561.188ZM320.279 561.113C321.772 561.113 322.578 560.253 322.771 559.485L322.782 559.437L321.659 559.442L321.638 559.485C321.498 559.786 321.052 560.157 320.306 560.157C319.344 560.157 318.732 559.507 318.71 558.39H322.846V557.981C322.846 556.23 321.847 555.054 320.22 555.054C318.592 555.054 317.54 556.273 317.54 558.094V558.1C317.54 559.947 318.571 561.113 320.279 561.113ZM320.225 556.01C321.015 556.01 321.6 556.515 321.691 557.557H318.727C318.829 556.553 319.43 556.01 320.225 556.01ZM326.137 561.113C327.581 561.113 328.414 560.334 328.623 559.201L328.634 559.152H327.517L327.506 559.179C327.318 559.808 326.867 560.141 326.137 560.141C325.175 560.141 324.579 559.356 324.579 558.067V558.057C324.579 556.8 325.164 556.026 326.137 556.026C326.91 556.026 327.383 556.456 327.512 557.031L327.517 557.047L328.634 557.042V557.015C328.473 555.881 327.597 555.054 326.131 555.054C324.429 555.054 323.392 556.209 323.392 558.057V558.067C323.392 559.953 324.434 561.113 326.137 561.113ZM331.35 561.113C332.198 561.113 332.789 560.748 333.068 560.119H333.16V561H334.32V555.167H333.16V558.588C333.16 559.528 332.66 560.114 331.726 560.114C330.872 560.114 330.517 559.636 330.517 558.669V555.167H329.352V558.943C329.352 560.323 330.034 561.113 331.35 561.113ZM335.451 561H336.617V557.514C336.617 556.671 337.224 556.123 338.115 556.123C338.335 556.123 338.534 556.15 338.744 556.193V555.119C338.625 555.092 338.421 555.065 338.233 555.065C337.454 555.065 336.912 555.43 336.703 556.048H336.617V555.167H335.451V561ZM339.912 554.125C340.31 554.125 340.643 553.797 340.643 553.4C340.643 552.997 340.31 552.669 339.912 552.669C339.509 552.669 339.182 552.997 339.182 553.4C339.182 553.797 339.509 554.125 339.912 554.125ZM339.327 561H340.487V555.167H339.327V561ZM343.836 561.038C344.062 561.038 344.277 561.011 344.465 560.979V560.049C344.304 560.065 344.202 560.071 344.024 560.071C343.45 560.071 343.213 559.813 343.213 559.185V556.085H344.465V555.167H343.213V553.695H342.026V555.167H341.113V556.085H342.026V559.464C342.026 560.586 342.553 561.038 343.836 561.038ZM345.843 563.052C347.025 563.052 347.616 562.617 348.11 561.226L350.28 555.167H349.055L347.599 559.829H347.497L346.036 555.167H344.78L346.896 561.005L346.81 561.306C346.638 561.897 346.31 562.128 345.768 562.128C345.634 562.128 345.489 562.123 345.376 562.106V563.025C345.526 563.041 345.698 563.052 345.843 563.052Z" fill="#ACACAC"/>
<path d="M369 530.27C369 526.284 369 524.29 369.788 522.773C370.452 521.495 371.495 520.452 372.773 519.788C374.29 519 376.284 519 380.27 519H443.73C447.716 519 449.71 519 451.227 519.788C452.505 520.452 453.548 521.495 454.212 522.773C455 524.29 455 526.284 455 530.27V555.73C455 559.716 455 561.71 454.212 563.227C453.548 564.505 452.505 565.548 451.227 566.212C449.71 567 447.716 567 443.73 567H380.27C376.284 567 374.29 567 372.773 566.212C371.495 565.548 370.452 564.505 369.788 563.227C369 561.71 369 559.716 369 555.73V530.27Z" fill="#1B1B1B"/>
<circle cx="408" cy="530" r="4" fill="#ACACAC"/>
<circle cx="417.5" cy="531.5" r="3.5" fill="#ACACAC"/>
<path d="M412.846 543C413.923 543 415 541.654 415 540.308C415 537.077 411.21 536 408 536C404.79 536 401 537.077 401 540.308C401 541.654 402.077 543 403.154 543H412.846Z" fill="#ACACAC"/>
<path fill-rule="evenodd" clip-rule="evenodd" d="M413.304 542.922C414.208 542.616 415 541.462 415 540.308C415 539.232 414.58 538.395 413.9 537.757C412.79 538.33 412 539.266 412 540.692C412 541.668 412.605 542.644 413.304 542.922ZM415.573 543H421.308C422.154 543 423 541.846 423 540.692C423 537.923 420.022 537 417.5 537C416.824 537 416.114 537.066 415.439 537.217C416.084 538.022 416.5 539.044 416.5 540.308C416.5 541.317 416.122 542.274 415.573 543Z" fill="#ACACAC"/>
<g clip-path="url(#clip5_623_356)">
<path d="M444.47 535.804C444.73 536.063 445.15 536.063 445.41 535.804L447.647 533.573C447.842 533.378 448.158 533.378 448.353 533.573L450.59 535.804C450.85 536.063 451.27 536.063 451.53 535.804C451.789 535.544 451.789 535.123 451.53 534.863L448.354 531.687C448.158 531.492 447.842 531.492 447.646 531.687L444.47 534.863C444.211 535.123 444.211 535.544 444.47 535.804Z" fill="#ACACAC"/>
</g>
<path d="M384.104 561H385.307V558.352H387.122C388.642 558.352 389.695 557.315 389.695 555.801V555.79C389.695 554.27 388.642 553.25 387.122 553.25H384.104V561ZM386.821 554.265C387.863 554.265 388.47 554.829 388.47 555.795V555.806C388.47 556.778 387.863 557.342 386.821 557.342H385.307V554.265H386.821ZM391.949 561.097C392.722 561.097 393.334 560.764 393.678 560.173H393.769V561H394.924V557.009C394.924 555.785 394.097 555.054 392.631 555.054C391.304 555.054 390.386 555.693 390.246 556.649L390.241 556.687H391.363L391.369 556.666C391.508 556.252 391.933 556.016 392.577 556.016C393.367 556.016 393.769 556.37 393.769 557.009V557.525L392.19 557.616C390.799 557.702 390.015 558.309 390.015 559.351V559.362C390.015 560.42 390.837 561.097 391.949 561.097ZM391.175 559.313V559.303C391.175 558.776 391.54 558.486 392.346 558.438L393.769 558.347V558.846C393.769 559.598 393.13 560.167 392.26 560.167C391.632 560.167 391.175 559.851 391.175 559.313ZM396.018 561H397.183V557.514C397.183 556.671 397.79 556.123 398.682 556.123C398.902 556.123 399.101 556.15 399.31 556.193V555.119C399.192 555.092 398.988 555.065 398.8 555.065C398.021 555.065 397.479 555.43 397.269 556.048H397.183V555.167H396.018V561ZM402.375 561.038C402.601 561.038 402.815 561.011 403.003 560.979V560.049C402.842 560.065 402.74 560.071 402.563 560.071C401.988 560.071 401.752 559.813 401.752 559.185V556.085H403.003V555.167H401.752V553.695H400.565V555.167H399.652V556.085H400.565V559.464C400.565 560.586 401.091 561.038 402.375 561.038ZM404.419 554.125C404.817 554.125 405.15 553.797 405.15 553.4C405.15 552.997 404.817 552.669 404.419 552.669C404.016 552.669 403.689 552.997 403.689 553.4C403.689 553.797 404.016 554.125 404.419 554.125ZM403.834 561H404.994V555.167H403.834V561ZM408.596 561.113C410.041 561.113 410.873 560.334 411.083 559.201L411.093 559.152H409.976L409.965 559.179C409.777 559.808 409.326 560.141 408.596 560.141C407.634 560.141 407.038 559.356 407.038 558.067V558.057C407.038 556.8 407.624 556.026 408.596 556.026C409.369 556.026 409.842 556.456 409.971 557.031L409.976 557.047L411.093 557.042V557.015C410.932 555.881 410.057 555.054 408.59 555.054C406.888 555.054 405.851 556.209 405.851 558.057V558.067C405.851 559.953 406.893 561.113 408.596 561.113ZM412.472 554.125C412.869 554.125 413.202 553.797 413.202 553.4C413.202 552.997 412.869 552.669 412.472 552.669C412.069 552.669 411.741 552.997 411.741 553.4C411.741 553.797 412.069 554.125 412.472 554.125ZM411.886 561H413.046V555.167H411.886V561ZM414.194 562.944H415.359V560.076H415.445C415.757 560.705 416.439 561.097 417.239 561.097C418.721 561.097 419.656 559.937 419.656 558.089V558.078C419.656 556.241 418.711 555.065 417.239 555.065C416.423 555.065 415.783 555.446 415.445 556.085H415.359V555.167H414.194V562.944ZM416.911 560.103C415.939 560.103 415.338 559.335 415.338 558.089V558.078C415.338 556.832 415.939 556.064 416.911 556.064C417.883 556.064 418.469 556.821 418.469 558.078V558.089C418.469 559.34 417.883 560.103 416.911 560.103ZM422.108 561.097C422.882 561.097 423.494 560.764 423.838 560.173H423.929V561H425.084V557.009C425.084 555.785 424.257 555.054 422.791 555.054C421.464 555.054 420.545 555.693 420.406 556.649L420.4 556.687H421.523L421.528 556.666C421.668 556.252 422.092 556.016 422.737 556.016C423.526 556.016 423.929 556.37 423.929 557.009V557.525L422.35 557.616C420.959 557.702 420.175 558.309 420.175 559.351V559.362C420.175 560.42 420.997 561.097 422.108 561.097ZM421.335 559.313V559.303C421.335 558.776 421.7 558.486 422.506 558.438L423.929 558.347V558.846C423.929 559.598 423.29 560.167 422.42 560.167C421.792 560.167 421.335 559.851 421.335 559.313ZM426.178 561H427.343V557.579C427.343 556.639 427.875 556.053 428.729 556.053C429.583 556.053 429.986 556.531 429.986 557.498V561H431.146V557.224C431.146 555.833 430.426 555.054 429.121 555.054C428.272 555.054 427.714 555.43 427.429 556.053H427.343V555.167H426.178V561ZM434.425 561.038C434.651 561.038 434.866 561.011 435.054 560.979V560.049C434.893 560.065 434.791 560.071 434.613 560.071C434.039 560.071 433.802 559.813 433.802 559.185V556.085H435.054V555.167H433.802V553.695H432.615V555.167H431.702V556.085H432.615V559.464C432.615 560.586 433.142 561.038 434.425 561.038ZM437.898 561.113C439.284 561.113 440.315 560.377 440.315 559.297V559.287C440.315 558.443 439.778 557.965 438.656 557.702L437.732 557.493C437.077 557.337 436.808 557.111 436.808 556.746V556.735C436.808 556.268 437.27 555.951 437.909 555.951C438.564 555.951 438.978 556.257 439.091 556.666V556.676H440.203V556.671C440.1 555.72 439.246 555.054 437.914 555.054C436.593 555.054 435.648 555.785 435.648 556.8V556.805C435.648 557.659 436.158 558.159 437.259 558.411L438.188 558.626C438.865 558.782 439.139 559.029 439.139 559.394V559.405C439.139 559.883 438.64 560.21 437.92 560.21C437.227 560.21 436.803 559.915 436.658 559.475L436.652 559.469H435.487V559.475C435.6 560.452 436.491 561.113 437.898 561.113Z" fill="#ACACAC"/>
<path d="M455 530.27C455 526.284 455 524.29 455.788 522.773C456.452 521.495 457.495 520.452 458.773 519.788C460.29 519 462.284 519 466.27 519H521.73C525.716 519 527.71 519 529.227 519.788C530.505 520.452 531.548 521.495 532.212 522.773C533 524.29 533 526.284 533 530.27V555.73C533 559.716 533 561.71 532.212 563.227C531.548 564.505 530.505 565.548 529.227 566.212C527.71 567 525.716 567 521.73 567H466.27C462.284 567 460.29 567 458.773 566.212C457.495 565.548 456.452 564.505 455.788 563.227C455 561.71 455 559.716 455 555.73V530.27Z" fill="#1B1B1B"/>
<path fill-rule="evenodd" clip-rule="evenodd" d="M487 526C485.343 526 484 527.343 484 529V536.333C484 537.99 485.343 539.333 487 539.333H487.889V542.463C487.889 542.922 488.457 543.139 488.763 542.795L491.84 539.333H501C502.657 539.333 504 537.99 504 536.333V529C504 527.343 502.657 526 501 526H487Z" fill="#ACACAC"/>
<path d="M486.457 561.188C488.186 561.188 489.449 560.2 489.674 558.712V558.68H488.482L488.471 558.701C488.251 559.577 487.483 560.125 486.457 560.125C485.06 560.125 484.19 558.97 484.19 557.133V557.122C484.19 555.28 485.06 554.125 486.451 554.125C487.472 554.125 488.251 554.743 488.476 555.693V555.709H489.669L489.674 555.683C489.47 554.141 488.159 553.062 486.451 553.062C484.298 553.062 482.96 554.619 482.96 557.122V557.133C482.96 559.63 484.303 561.188 486.457 561.188ZM490.628 561H491.794V557.579C491.794 556.639 492.325 556.053 493.179 556.053C494.033 556.053 494.436 556.531 494.436 557.498V561H495.596V557.224C495.596 555.833 494.877 555.054 493.571 555.054C492.723 555.054 492.164 555.43 491.879 556.053H491.794V552.879H490.628V561ZM498.274 561.097C499.048 561.097 499.66 560.764 500.004 560.173H500.095V561H501.25V557.009C501.25 555.785 500.423 555.054 498.956 555.054C497.63 555.054 496.711 555.693 496.572 556.649L496.566 556.687H497.689L497.694 556.666C497.834 556.252 498.258 556.016 498.903 556.016C499.692 556.016 500.095 556.37 500.095 557.009V557.525L498.516 557.616C497.125 557.702 496.341 558.309 496.341 559.351V559.362C496.341 560.42 497.162 561.097 498.274 561.097ZM497.501 559.313V559.303C497.501 558.776 497.866 558.486 498.672 558.438L500.095 558.347V558.846C500.095 559.598 499.456 560.167 498.586 560.167C497.957 560.167 497.501 559.851 497.501 559.313ZM504.546 561.038C504.771 561.038 504.986 561.011 505.174 560.979V560.049C505.013 560.065 504.911 560.071 504.734 560.071C504.159 560.071 503.923 559.813 503.923 559.185V556.085H505.174V555.167H503.923V553.695H502.736V555.167H501.822V556.085H502.736V559.464C502.736 560.586 503.262 561.038 504.546 561.038Z" fill="#ACACAC"/>
<path d="M533 530.27C533 526.284 533 524.29 533.788 522.773C534.452 521.495 535.495 520.452 536.773 519.788C538.29 519 540.284 519 544.27 519H604.73C608.716 519 610.71 519 612.227 519.788C613.505 520.452 614.548 521.495 615.212 522.773C616 524.29 616 526.284 616 530.27V555.73C616 559.716 616 561.71 615.212 563.227C614.548 564.505 613.505 565.548 612.227 566.212C610.71 567 608.716 567 604.73 567H544.27C540.284 567 538.29 567 536.773 566.212C535.495 565.548 534.452 564.505 533.788 563.227C533 561.71 533 559.716 533 555.73V530.27Z" fill="#1B1B1B"/>
<path fill-rule="evenodd" clip-rule="evenodd" d="M566 526C564.895 526 564 526.895 564 528V540C564 541.105 564.895 542 566 542H584C585.105 542 586 541.105 586 540V528C586 526.895 585.105 526 584 526H566ZM575.53 529.47C575.237 529.177 574.763 529.177 574.47 529.47L571.47 532.47C571.177 532.763 571.177 533.237 571.47 533.53C571.763 533.823 572.237 533.823 572.53 533.53L574.25 531.811V537C574.25 537.414 574.586 537.75 575 537.75C575.414 537.75 575.75 537.414 575.75 537V531.811L577.47 533.53C577.763 533.823 578.237 533.823 578.53 533.53C578.823 533.237 578.823 532.763 578.53 532.47L575.53 529.47Z" fill="#69D569"/>
<g clip-path="url(#clip6_623_356)">
<path d="M605.47 535.804C605.73 536.063 606.15 536.063 606.41 535.804L608.647 533.573C608.842 533.378 609.158 533.378 609.353 533.573L611.59 535.804C611.85 536.063 612.27 536.063 612.53 535.804C612.789 535.544 612.789 535.123 612.53 534.863L609.354 531.687C609.158 531.492 608.842 531.492 608.646 531.687L605.47 534.863C605.211 535.123 605.211 535.544 605.47 535.804Z" fill="#69D569"/>
</g>
<path d="M546.723 561.188C548.527 561.188 549.682 560.264 549.682 558.782V558.776C549.682 557.627 549.016 556.972 547.389 556.623L546.546 556.435C545.541 556.22 545.133 555.844 545.133 555.269V555.264C545.133 554.533 545.804 554.109 546.712 554.109C547.652 554.104 548.259 554.565 548.361 555.199L548.372 555.269H549.537L549.532 555.194C549.446 553.991 548.372 553.062 546.728 553.062C545.085 553.062 543.924 553.985 543.919 555.323V555.328C543.919 556.472 544.596 557.203 546.17 557.536L547.018 557.718C548.044 557.938 548.463 558.325 548.463 558.921V558.927C548.463 559.646 547.759 560.141 546.771 560.141C545.734 560.141 544.988 559.689 544.923 558.986L544.918 558.927H543.736L543.742 558.997C543.849 560.302 544.972 561.188 546.723 561.188ZM550.636 561H551.802V557.579C551.802 556.639 552.333 556.053 553.187 556.053C554.041 556.053 554.444 556.531 554.444 557.498V561H555.604V557.224C555.604 555.833 554.885 555.054 553.579 555.054C552.731 555.054 552.172 555.43 551.888 556.053H551.802V552.879H550.636V561ZM558.282 561.097C559.056 561.097 559.668 560.764 560.012 560.173H560.103V561H561.258V557.009C561.258 555.785 560.431 555.054 558.965 555.054C557.638 555.054 556.719 555.693 556.58 556.649L556.574 556.687H557.697L557.702 556.666C557.842 556.252 558.266 556.016 558.911 556.016C559.7 556.016 560.103 556.37 560.103 557.009V557.525L558.524 557.616C557.133 557.702 556.349 558.309 556.349 559.351V559.362C556.349 560.42 557.171 561.097 558.282 561.097ZM557.509 559.313V559.303C557.509 558.776 557.874 558.486 558.68 558.438L560.103 558.347V558.846C560.103 559.598 559.464 560.167 558.594 560.167C557.966 560.167 557.509 559.851 557.509 559.313ZM562.352 561H563.517V557.514C563.517 556.671 564.124 556.123 565.016 556.123C565.236 556.123 565.435 556.15 565.644 556.193V555.119C565.526 555.092 565.322 555.065 565.134 555.065C564.355 555.065 563.813 555.43 563.603 556.048H563.517V555.167H562.352V561ZM568.505 561.113C569.998 561.113 570.804 560.253 570.997 559.485L571.008 559.437L569.885 559.442L569.864 559.485C569.724 559.786 569.278 560.157 568.532 560.157C567.57 560.157 566.958 559.507 566.936 558.39H571.072V557.981C571.072 556.23 570.073 555.054 568.446 555.054C566.818 555.054 565.765 556.273 565.765 558.094V558.1C565.765 559.947 566.797 561.113 568.505 561.113ZM568.451 556.01C569.241 556.01 569.826 556.515 569.917 557.557H566.952C567.054 556.553 567.656 556.01 568.451 556.01ZM577.121 561.188C578.926 561.188 580.08 560.264 580.08 558.782V558.776C580.08 557.627 579.414 556.972 577.787 556.623L576.944 556.435C575.939 556.22 575.531 555.844 575.531 555.269V555.264C575.531 554.533 576.203 554.109 577.11 554.109C578.05 554.104 578.657 554.565 578.759 555.199L578.77 555.269H579.935L579.93 555.194C579.844 553.991 578.77 553.062 577.126 553.062C575.483 553.062 574.323 553.985 574.317 555.323V555.328C574.317 556.472 574.994 557.203 576.568 557.536L577.416 557.718C578.442 557.938 578.861 558.325 578.861 558.921V558.927C578.861 559.646 578.158 560.141 577.169 560.141C576.133 560.141 575.386 559.689 575.322 558.986L575.316 558.927H574.135L574.14 558.997C574.247 560.302 575.37 561.188 577.121 561.188ZM583.435 561.113C584.88 561.113 585.713 560.334 585.922 559.201L585.933 559.152H584.816L584.805 559.179C584.617 559.808 584.166 560.141 583.435 560.141C582.474 560.141 581.878 559.356 581.878 558.067V558.057C581.878 556.8 582.463 556.026 583.435 556.026C584.209 556.026 584.681 556.456 584.81 557.031L584.816 557.047L585.933 557.042V557.015C585.772 555.881 584.896 555.054 583.43 555.054C581.727 555.054 580.691 556.209 580.691 558.057V558.067C580.691 559.953 581.733 561.113 583.435 561.113ZM586.704 561H587.87V557.514C587.87 556.671 588.477 556.123 589.368 556.123C589.588 556.123 589.787 556.15 589.997 556.193V555.119C589.878 555.092 589.674 555.065 589.486 555.065C588.708 555.065 588.165 555.43 587.956 556.048H587.87V555.167H586.704V561ZM592.857 561.113C594.35 561.113 595.156 560.253 595.349 559.485L595.36 559.437L594.238 559.442L594.216 559.485C594.076 559.786 593.631 560.157 592.884 560.157C591.923 560.157 591.31 559.507 591.289 558.39H595.425V557.981C595.425 556.23 594.426 555.054 592.798 555.054C591.171 555.054 590.118 556.273 590.118 558.094V558.1C590.118 559.947 591.149 561.113 592.857 561.113ZM592.804 556.01C593.593 556.01 594.179 556.515 594.27 557.557H591.305C591.407 556.553 592.009 556.01 592.804 556.01ZM598.71 561.113C600.203 561.113 601.008 560.253 601.202 559.485L601.213 559.437L600.09 559.442L600.068 559.485C599.929 559.786 599.483 560.157 598.736 560.157C597.775 560.157 597.163 559.507 597.141 558.39H601.277V557.981C601.277 556.23 600.278 555.054 598.65 555.054C597.023 555.054 595.97 556.273 595.97 558.094V558.1C595.97 559.947 597.002 561.113 598.71 561.113ZM598.656 556.01C599.445 556.01 600.031 556.515 600.122 557.557H597.157C597.259 556.553 597.861 556.01 598.656 556.01ZM602.113 561H603.278V557.579C603.278 556.639 603.81 556.053 604.664 556.053C605.518 556.053 605.921 556.531 605.921 557.498V561H607.081V557.224C607.081 555.833 606.361 555.054 605.056 555.054C604.207 555.054 603.649 555.43 603.364 556.053H603.278V555.167H602.113V561Z" fill="#69D569"/>
<path d="M616 530.27C616 526.284 616 524.29 616.788 522.773C617.452 521.495 618.495 520.452 619.773 519.788C621.29 519 623.284 519 627.27 519H680.73C684.716 519 686.71 519 688.227 519.788C689.505 520.452 690.548 521.495 691.212 522.773C692 524.29 692 526.284 692 530.27V555.73C692 559.716 692 561.71 691.212 563.227C690.548 564.505 689.505 565.548 688.227 566.212C686.71 567 684.716 567 680.73 567H627.27C623.284 567 621.29 567 619.773 566.212C618.495 565.548 617.452 564.505 616.788 563.227C616 561.71 616 559.716 616 555.73V530.27Z" fill="#1B1B1B"/>
<rect x="651.5" y="524" width="5" height="20" rx="1" fill="#ACACAC"/>
<rect x="657.75" y="529" width="5" height="15" rx="1" fill="#ACACAC"/>
<rect x="645.25" y="534" width="5" height="10" rx="1" fill="#ACACAC"/>
<path d="M639.21 561H640.413V558.352H642.228C643.748 558.352 644.801 557.315 644.801 555.801V555.79C644.801 554.27 643.748 553.25 642.228 553.25H639.21V561ZM641.927 554.265C642.969 554.265 643.576 554.829 643.576 555.795V555.806C643.576 556.778 642.969 557.342 641.927 557.342H640.413V554.265H641.927ZM647.978 561.113C649.686 561.113 650.734 559.969 650.734 558.089V558.078C650.734 556.198 649.681 555.054 647.978 555.054C646.27 555.054 645.218 556.204 645.218 558.078V558.089C645.218 559.969 646.265 561.113 647.978 561.113ZM647.978 560.141C646.974 560.141 646.41 559.383 646.41 558.089V558.078C646.41 556.784 646.974 556.026 647.978 556.026C648.977 556.026 649.547 556.784 649.547 558.078V558.089C649.547 559.378 648.977 560.141 647.978 560.141ZM651.629 561H652.794V552.879H651.629V561ZM654.033 561H655.198V552.879H654.033V561ZM656.99 554.125C657.387 554.125 657.721 553.797 657.721 553.4C657.721 552.997 657.387 552.669 656.99 552.669C656.587 552.669 656.26 552.997 656.26 553.4C656.26 553.797 656.587 554.125 656.99 554.125ZM656.405 561H657.565V555.167H656.405V561ZM658.712 561H659.878V557.579C659.878 556.639 660.409 556.053 661.263 556.053C662.117 556.053 662.52 556.531 662.52 557.498V561H663.68V557.224C663.68 555.833 662.961 555.054 661.655 555.054C660.807 555.054 660.248 555.43 659.963 556.053H659.878V555.167H658.712V561ZM667.223 563.057C668.877 563.057 669.925 562.208 669.925 560.882V555.167H668.765V556.123H668.695C668.356 555.468 667.723 555.065 666.906 555.065C665.392 555.065 664.462 556.241 664.462 557.906V557.917C664.462 559.561 665.386 560.715 666.885 560.715C667.685 560.715 668.329 560.361 668.684 559.727H668.77V560.876C668.77 561.671 668.201 562.123 667.239 562.123C666.45 562.123 665.977 561.838 665.88 561.435L665.875 561.424H664.699L664.688 561.435C664.828 562.407 665.741 563.057 667.223 563.057ZM667.207 559.754C666.213 559.754 665.655 558.997 665.655 557.912V557.901C665.655 556.816 666.213 556.053 667.207 556.053C668.19 556.053 668.791 556.816 668.791 557.901V557.912C668.791 559.002 668.195 559.754 667.207 559.754Z" fill="#ACACAC"/>
<path d="M692 530.27C692 526.284 692 524.29 692.788 522.773C693.452 521.495 694.495 520.452 695.773 519.788C697.29 519 699.284 519 703.27 519H754.73C758.716 519 760.71 519 762.227 519.788C763.505 520.452 764.548 521.495 765.212 522.773C766 524.29 766 526.284 766 530.27V555.73C766 559.716 766 561.71 765.212 563.227C764.548 564.505 763.505 565.548 762.227 566.212C760.71 567 758.716 567 754.73 567H703.27C699.284 567 697.29 567 695.773 566.212C694.495 565.548 693.452 564.505 692.788 563.227C692 561.71 692 559.716 692 555.73V530.27Z" fill="#1B1B1B"/>
<circle cx="729" cy="534" r="9.25" stroke="#ACACAC" stroke-width="1.5"/>
<circle cx="729" cy="534" r="7" fill="#ACACAC"/>
<path d="M713.032 561H714.235V558.019H715.933L717.512 561H718.903L717.163 557.831C718.108 557.514 718.667 556.666 718.667 555.624V555.613C718.667 554.173 717.678 553.25 716.088 553.25H713.032V561ZM714.235 557.042V554.259H715.933C716.862 554.259 717.431 554.786 717.431 555.645V555.656C717.431 556.537 716.894 557.042 715.97 557.042H714.235ZM721.973 561.113C723.466 561.113 724.272 560.253 724.465 559.485L724.476 559.437L723.353 559.442L723.332 559.485C723.192 559.786 722.746 560.157 722 560.157C721.038 560.157 720.426 559.507 720.405 558.39H724.54V557.981C724.54 556.23 723.541 555.054 721.914 555.054C720.286 555.054 719.234 556.273 719.234 558.094V558.1C719.234 559.947 720.265 561.113 721.973 561.113ZM721.919 556.01C722.709 556.01 723.294 556.515 723.386 557.557H720.421C720.523 556.553 721.124 556.01 721.919 556.01ZM727.831 561.113C729.275 561.113 730.108 560.334 730.317 559.201L730.328 559.152H729.211L729.2 559.179C729.012 559.808 728.561 560.141 727.831 560.141C726.869 560.141 726.273 559.356 726.273 558.067V558.057C726.273 556.8 726.858 556.026 727.831 556.026C728.604 556.026 729.077 556.456 729.206 557.031L729.211 557.047L730.328 557.042V557.015C730.167 555.881 729.292 555.054 727.825 555.054C726.123 555.054 725.086 556.209 725.086 558.057V558.067C725.086 559.953 726.128 561.113 727.831 561.113ZM733.57 561.113C735.278 561.113 736.326 559.969 736.326 558.089V558.078C736.326 556.198 735.273 555.054 733.57 555.054C731.862 555.054 730.809 556.204 730.809 558.078V558.089C730.809 559.969 731.857 561.113 733.57 561.113ZM733.57 560.141C732.566 560.141 732.002 559.383 732.002 558.089V558.078C732.002 556.784 732.566 556.026 733.57 556.026C734.569 556.026 735.139 556.784 735.139 558.078V558.089C735.139 559.378 734.569 560.141 733.57 560.141ZM737.167 561H738.332V557.514C738.332 556.671 738.939 556.123 739.831 556.123C740.051 556.123 740.25 556.15 740.459 556.193V555.119C740.341 555.092 740.137 555.065 739.949 555.065C739.17 555.065 738.628 555.43 738.418 556.048H738.332V555.167H737.167V561ZM742.998 561.097C743.814 561.097 744.453 560.721 744.792 560.082H744.883V561H746.043V552.879H744.883V556.091H744.792C744.48 555.462 743.798 555.065 742.998 555.065C741.515 555.065 740.581 556.23 740.581 558.078V558.089C740.581 559.92 741.531 561.097 742.998 561.097ZM743.331 560.103C742.353 560.103 741.768 559.34 741.768 558.089V558.078C741.768 556.827 742.353 556.064 743.331 556.064C744.297 556.064 744.899 556.832 744.899 558.078V558.089C744.899 559.335 744.303 560.103 743.331 560.103Z" fill="#ACACAC"/>
<path d="M766 530.27C766 526.284 766 524.29 766.788 522.773C767.452 521.495 768.495 520.452 769.773 519.788C771.29 519 773.284 519 777.27 519H858.73C862.716 519 864.71 519 866.227 519.788C867.505 520.452 868.548 521.495 869.212 522.773C870 524.29 870 526.284 870 530.27V555.73C870 559.716 870 561.71 869.212 563.227C868.548 564.505 867.505 565.548 866.227 566.212C864.71 567 862.716 567 858.73 567H777.27C773.284 567 771.29 567 769.773 566.212C768.495 565.548 767.452 564.505 766.788 563.227C766 561.71 766 559.716 766 555.73V530.27Z" fill="#1B1B1B"/>
<rect x="809" y="525" width="8" height="8" rx="1" fill="#ACACAC"/>
<rect x="809" y="535" width="8" height="8" rx="1" fill="#ACACAC"/>
<rect x="819" y="525" width="8" height="8" rx="1" fill="#ACACAC"/>
<rect x="819" y="535" width="8" height="8" rx="1" fill="#ACACAC"/>
<path d="M779.181 561H782.366C784.02 561 785.014 560.173 785.014 558.814V558.803C785.014 557.793 784.316 557.052 783.268 556.939V556.848C784.031 556.719 784.627 555.994 784.627 555.188V555.178C784.627 553.991 783.752 553.25 782.296 553.25H779.181V561ZM782.017 554.232C782.908 554.232 783.429 554.657 783.429 555.387V555.398C783.429 556.15 782.876 556.547 781.813 556.547H780.384V554.232H782.017ZM782.054 557.466C783.188 557.466 783.784 557.896 783.784 558.728V558.739C783.784 559.571 783.209 560.017 782.124 560.017H780.384V557.466H782.054ZM785.877 561H787.042V557.514C787.042 556.671 787.649 556.123 788.541 556.123C788.761 556.123 788.96 556.15 789.169 556.193V555.119C789.051 555.092 788.847 555.065 788.659 555.065C787.88 555.065 787.338 555.43 787.128 556.048H787.042V555.167H785.877V561ZM792.03 561.113C793.523 561.113 794.329 560.253 794.522 559.485L794.533 559.437L793.41 559.442L793.389 559.485C793.249 559.786 792.803 560.157 792.057 560.157C791.095 560.157 790.483 559.507 790.461 558.39H794.597V557.981C794.597 556.23 793.598 555.054 791.971 555.054C790.343 555.054 789.29 556.273 789.29 558.094V558.1C789.29 559.947 790.322 561.113 792.03 561.113ZM791.976 556.01C792.766 556.01 793.351 556.515 793.442 557.557H790.477C790.579 556.553 791.181 556.01 791.976 556.01ZM797.033 561.097C797.807 561.097 798.419 560.764 798.763 560.173H798.854V561H800.009V557.009C800.009 555.785 799.182 555.054 797.716 555.054C796.389 555.054 795.47 555.693 795.331 556.649L795.325 556.687H796.448L796.453 556.666C796.593 556.252 797.017 556.016 797.662 556.016C798.451 556.016 798.854 556.37 798.854 557.009V557.525L797.275 557.616C795.884 557.702 795.1 558.309 795.1 559.351V559.362C795.1 560.42 795.922 561.097 797.033 561.097ZM796.26 559.313V559.303C796.26 558.776 796.625 558.486 797.431 558.438L798.854 558.347V558.846C798.854 559.598 798.215 560.167 797.345 560.167C796.717 560.167 796.26 559.851 796.26 559.313ZM801.156 561H802.322V558.878L802.821 558.379L804.83 561H806.248L803.654 557.627L806.087 555.167H804.723L802.408 557.627H802.322V552.879H801.156V561ZM808.931 561.113C810.639 561.113 811.687 559.969 811.687 558.089V558.078C811.687 556.198 810.634 555.054 808.931 555.054C807.223 555.054 806.171 556.204 806.171 558.078V558.089C806.171 559.969 807.218 561.113 808.931 561.113ZM808.931 560.141C807.927 560.141 807.363 559.383 807.363 558.089V558.078C807.363 556.784 807.927 556.026 808.931 556.026C809.93 556.026 810.5 556.784 810.5 558.078V558.089C810.5 559.378 809.93 560.141 808.931 560.141ZM814.472 561.113C815.321 561.113 815.912 560.748 816.191 560.119H816.282V561H817.442V555.167H816.282V558.588C816.282 559.528 815.783 560.114 814.848 560.114C813.994 560.114 813.64 559.636 813.64 558.669V555.167H812.474V558.943C812.474 560.323 813.156 561.113 814.472 561.113ZM820.776 561.038C821.001 561.038 821.216 561.011 821.404 560.979V560.049C821.243 560.065 821.141 560.071 820.964 560.071C820.389 560.071 820.153 559.813 820.153 559.185V556.085H821.404V555.167H820.153V553.695H818.966V555.167H818.053V556.085H818.966V559.464C818.966 560.586 819.492 561.038 820.776 561.038ZM824.805 561H826.008V558.019H827.706L829.285 561H830.676L828.936 557.831C829.881 557.514 830.439 556.666 830.439 555.624V555.613C830.439 554.173 829.451 553.25 827.861 553.25H824.805V561ZM826.008 557.042V554.259H827.706C828.635 554.259 829.204 554.786 829.204 555.645V555.656C829.204 556.537 828.667 557.042 827.743 557.042H826.008ZM833.767 561.113C835.475 561.113 836.523 559.969 836.523 558.089V558.078C836.523 556.198 835.47 555.054 833.767 555.054C832.059 555.054 831.007 556.204 831.007 558.078V558.089C831.007 559.969 832.054 561.113 833.767 561.113ZM833.767 560.141C832.763 560.141 832.199 559.383 832.199 558.089V558.078C832.199 556.784 832.763 556.026 833.767 556.026C834.766 556.026 835.336 556.784 835.336 558.078V558.089C835.336 559.378 834.766 560.141 833.767 560.141ZM839.835 561.113C841.543 561.113 842.59 559.969 842.59 558.089V558.078C842.59 556.198 841.537 555.054 839.835 555.054C838.127 555.054 837.074 556.204 837.074 558.078V558.089C837.074 559.969 838.121 561.113 839.835 561.113ZM839.835 560.141C838.83 560.141 838.266 559.383 838.266 558.089V558.078C838.266 556.784 838.83 556.026 839.835 556.026C840.834 556.026 841.403 556.784 841.403 558.078V558.089C841.403 559.378 840.834 560.141 839.835 560.141ZM843.431 561H844.597V557.417C844.597 556.655 845.118 556.053 845.821 556.053C846.509 556.053 846.944 556.472 846.944 557.138V561H848.104V557.31C848.104 556.606 848.593 556.053 849.334 556.053C850.097 556.053 850.462 556.451 850.462 557.256V561H851.622V556.977C851.622 555.763 850.934 555.054 849.758 555.054C848.947 555.054 848.276 555.468 847.98 556.096H847.889C847.631 555.468 847.067 555.054 846.272 555.054C845.51 555.054 844.94 555.425 844.683 556.064H844.597V555.167H843.431V561ZM854.821 561.113C856.207 561.113 857.238 560.377 857.238 559.297V559.287C857.238 558.443 856.701 557.965 855.578 557.702L854.654 557.493C853.999 557.337 853.731 557.111 853.731 556.746V556.735C853.731 556.268 854.193 555.951 854.832 555.951C855.487 555.951 855.901 556.257 856.013 556.666V556.676H857.125V556.671C857.023 555.72 856.169 555.054 854.837 555.054C853.516 555.054 852.571 555.785 852.571 556.8V556.805C852.571 557.659 853.081 558.159 854.182 558.411L855.111 558.626C855.788 558.782 856.062 559.029 856.062 559.394V559.405C856.062 559.883 855.562 560.21 854.842 560.21C854.15 560.21 853.725 559.915 853.58 559.475L853.575 559.469H852.409V559.475C852.522 560.452 853.414 561.113 854.821 561.113Z" fill="#ACACAC"/>
<path d="M870 530.27C870 526.284 870 524.29 870.788 522.773C871.452 521.495 872.495 520.452 873.773 519.788C875.29 519 877.284 519 881.27 519H927.73C931.716 519 933.71 519 935.227 519.788C936.505 520.452 937.548 521.495 938.212 522.773C939 524.29 939 526.284 939 530.27V555.73C939 559.716 939 561.71 938.212 563.227C937.548 564.505 936.505 565.548 935.227 566.212C933.71 567 931.716 567 927.73 567H881.27C877.284 567 875.29 567 873.773 566.212C872.495 565.548 871.452 564.505 870.788 563.227C870 561.71 870 559.716 870 555.73V530.27Z" fill="#1B1B1B"/>
<path d="M913 524V526M913 528V526M913 526H911M913 526H915" stroke="#ACACAC" stroke-linecap="round" stroke-linejoin="round"/>
<path fill-rule="evenodd" clip-rule="evenodd" d="M905 525C906.489 525 907.893 525.361 909.13 526.001C909.127 526.042 909.125 526.083 909.125 526.125C909.125 526.953 909.797 527.625 910.625 527.625H911.353L911.375 527.647V528.375C911.375 529.203 912.047 529.875 912.875 529.875C912.917 529.875 912.958 529.873 912.999 529.87C913.639 531.107 914 532.511 914 534C914 538.971 909.971 543 905 543C900.029 543 896 538.971 896 534C896 529.029 900.029 525 905 525ZM902.75 532.875C903.371 532.875 903.875 532.371 903.875 531.75C903.875 531.129 903.371 530.625 902.75 530.625C902.129 530.625 901.625 531.129 901.625 531.75C901.625 532.371 902.129 532.875 902.75 532.875ZM908.375 531.75C908.375 532.371 907.871 532.875 907.25 532.875C906.629 532.875 906.125 532.371 906.125 531.75C906.125 531.129 906.629 530.625 907.25 530.625C907.871 530.625 908.375 531.129 908.375 531.75ZM902.072 534.901C901.949 534.654 901.648 534.554 901.401 534.678C901.154 534.801 901.054 535.102 901.178 535.349C901.478 535.948 901.896 536.582 902.517 537.066C903.146 537.557 903.958 537.875 905 537.875C906.042 537.875 906.854 537.557 907.483 537.066C908.103 536.582 908.522 535.948 908.822 535.349C908.946 535.102 908.846 534.801 908.599 534.678C908.352 534.554 908.051 534.654 907.928 534.901C907.665 535.427 907.328 535.918 906.868 536.278C906.416 536.63 905.822 536.875 905 536.875C904.178 536.875 903.584 536.63 903.132 536.278C902.672 535.918 902.335 535.427 902.072 534.901Z" fill="#ACACAC"/>
<path d="M881.988 561H883.191V558.019H884.888L886.468 561H887.859L886.118 557.831C887.064 557.514 887.622 556.666 887.622 555.624V555.613C887.622 554.173 886.634 553.25 885.044 553.25H881.988V561ZM883.191 557.042V554.259H884.888C885.818 554.259 886.387 554.786 886.387 555.645V555.656C886.387 556.537 885.85 557.042 884.926 557.042H883.191ZM890.929 561.113C892.422 561.113 893.228 560.253 893.421 559.485L893.432 559.437L892.309 559.442L892.288 559.485C892.148 559.786 891.702 560.157 890.956 560.157C889.994 560.157 889.382 559.507 889.36 558.39H893.496V557.981C893.496 556.23 892.497 555.054 890.87 555.054C889.242 555.054 888.19 556.273 888.19 558.094V558.1C888.19 559.947 889.221 561.113 890.929 561.113ZM890.875 556.01C891.665 556.01 892.25 556.515 892.341 557.557H889.377C889.479 556.553 890.08 556.01 890.875 556.01ZM895.933 561.097C896.706 561.097 897.318 560.764 897.662 560.173H897.753V561H898.908V557.009C898.908 555.785 898.081 555.054 896.615 555.054C895.288 555.054 894.37 555.693 894.23 556.649L894.225 556.687H895.347L895.352 556.666C895.492 556.252 895.916 556.016 896.561 556.016C897.35 556.016 897.753 556.37 897.753 557.009V557.525L896.174 557.616C894.783 557.702 893.999 558.309 893.999 559.351V559.362C893.999 560.42 894.821 561.097 895.933 561.097ZM895.159 559.313V559.303C895.159 558.776 895.524 558.486 896.33 558.438L897.753 558.347V558.846C897.753 559.598 897.114 560.167 896.244 560.167C895.616 560.167 895.159 559.851 895.159 559.313ZM902.456 561.113C903.901 561.113 904.734 560.334 904.943 559.201L904.954 559.152H903.837L903.826 559.179C903.638 559.808 903.187 560.141 902.456 560.141C901.495 560.141 900.899 559.356 900.899 558.067V558.057C900.899 556.8 901.484 556.026 902.456 556.026C903.23 556.026 903.702 556.456 903.831 557.031L903.837 557.047L904.954 557.042V557.015C904.793 555.881 903.917 555.054 902.451 555.054C900.748 555.054 899.712 556.209 899.712 558.057V558.067C899.712 559.953 900.754 561.113 902.456 561.113ZM908.013 561.038C908.239 561.038 908.454 561.011 908.642 560.979V560.049C908.48 560.065 908.378 560.071 908.201 560.071C907.626 560.071 907.39 559.813 907.39 559.185V556.085H908.642V555.167H907.39V553.695H906.203V555.167H905.29V556.085H906.203V559.464C906.203 560.586 906.729 561.038 908.013 561.038ZM910.057 554.125C910.455 554.125 910.788 553.797 910.788 553.4C910.788 552.997 910.455 552.669 910.057 552.669C909.655 552.669 909.327 552.997 909.327 553.4C909.327 553.797 909.655 554.125 910.057 554.125ZM909.472 561H910.632V555.167H909.472V561ZM914.25 561.113C915.958 561.113 917.005 559.969 917.005 558.089V558.078C917.005 556.198 915.953 555.054 914.25 555.054C912.542 555.054 911.489 556.204 911.489 558.078V558.089C911.489 559.969 912.537 561.113 914.25 561.113ZM914.25 560.141C913.246 560.141 912.682 559.383 912.682 558.089V558.078C912.682 556.784 913.246 556.026 914.25 556.026C915.249 556.026 915.818 556.784 915.818 558.078V558.089C915.818 559.378 915.249 560.141 914.25 560.141ZM917.847 561H919.012V557.579C919.012 556.639 919.544 556.053 920.398 556.053C921.252 556.053 921.655 556.531 921.655 557.498V561H922.815V557.224C922.815 555.833 922.095 555.054 920.79 555.054C919.941 555.054 919.383 555.43 919.098 556.053H919.012V555.167H917.847V561ZM926.014 561.113C927.4 561.113 928.431 560.377 928.431 559.297V559.287C928.431 558.443 927.894 557.965 926.771 557.702L925.847 557.493C925.192 557.337 924.924 557.111 924.924 556.746V556.735C924.924 556.268 925.385 555.951 926.025 555.951C926.68 555.951 927.093 556.257 927.206 556.666V556.676H928.318V556.671C928.216 555.72 927.362 555.054 926.03 555.054C924.709 555.054 923.763 555.785 923.763 556.8V556.805C923.763 557.659 924.274 558.159 925.375 558.411L926.304 558.626C926.981 558.782 927.255 559.029 927.255 559.394V559.405C927.255 559.883 926.755 560.21 926.035 560.21C925.342 560.21 924.918 559.915 924.773 559.475L924.768 559.469H923.602V559.475C923.715 560.452 924.607 561.113 926.014 561.113Z" fill="#ACACAC"/>
</g>
<rect x="84.25" y="68.25" width="988.43" height="499.5" rx="7.75" stroke="black" stroke-width="0.5"/>
</g>
<circle cx="333" cy="300" r="59" fill="#D76327"/>
<path d="M316.419 299.084C316.419 299.084 311.487 299.313 308.391 302.279C305.295 305.246 304.262 306.731 304.725 311.295C305.188 315.859 309.198 320.197 310.23 321.337C311.262 322.477 319.98 328.641 319.98 328.641L319.178 325.669C319.178 325.669 324.683 330.127 332.024 330.234C339.365 330.341 346.133 329.664 349.345 327.152C352.556 324.64 356.8 317.681 356.8 317.681L356.916 316.653C356.916 316.653 352.556 318.365 348.656 314.828C344.756 311.291 342.577 309.806 342.577 309.806C342.577 309.806 339.248 306.891 334.775 307.607C330.302 308.323 327.092 312.2 319.407 310.833C311.722 309.466 314.703 303.302 314.703 303.302L316.419 299.084Z" fill="white"/>
<path d="M351.748 273.636H335.231V283.108H338.099V305.246H337.525V306.503H329.381V305.818H328.235V283.222H330.987V273.75H314.814V283.222H317.223V309.583H328.235V309.127H329.381V308.785H341.425V308.443H341.884V283.108H345.095V307.188H343.375V311.523H347.161V310.268H348.652V309.242H349.225V283.108H351.748V273.636Z" fill="white"/>
<path d="M356.949 315.201C356.925 315.213 354.483 316.446 352.249 315.806C350.174 315.21 348.053 313.396 346.953 312.341L349.651 309.607V283.85H352.128V273.355H334.611V283.857H337.158V305.383C336.922 305.618 336.725 305.803 336.569 305.941C336.417 306.072 336.281 306.219 336.161 306.38H330.264L329.262 305.383V283.85H331.797V273.355H314.279V283.857H316.816V298.255C314.62 298.66 308.088 300.183 305.545 304.14C303.839 306.632 303.309 309.598 304.015 312.717C304.694 315.701 306.468 318.704 309.155 321.405C313.41 325.679 319.748 329.427 320.011 329.585L321.767 330.619L320.599 327.279C323.221 328.738 328.611 330.927 337.386 330.927C337.836 330.927 338.296 330.92 338.763 330.909C346.775 330.705 351.591 326.674 354.217 323.329C357.051 319.72 357.987 316.196 358.019 316.048L358.433 314.441L356.949 315.201ZM337.504 306.824C337.701 306.644 337.996 306.36 338.39 305.973V282.618H335.913V274.638H350.891V282.618H348.356V309.079L346.03 311.435L344.885 310.461L346.881 308.435V281.034H349.358V276.171H337.388V281.034H339.923V306.557L338.694 307.751C338.063 307.623 337.424 307.543 336.781 307.512C337.085 307.211 337.326 306.981 337.504 306.82V306.824ZM315.566 282.618V274.638H330.486V282.618H327.951V305.969C328.305 306.322 328.589 306.585 328.807 306.762C329.024 306.939 329.327 307.221 329.721 307.612H334.771C332.97 307.832 330.697 308.347 328.771 308.839L326.478 306.557V281.034H329.01V276.171H317.038V281.034H319.575V308.433L320.778 309.657C319.433 309.602 318.422 309.43 318.041 309.079V282.618H315.566ZM353.033 322.411C349.502 326.91 344.684 329.269 338.717 329.42C325.497 329.758 319.705 324.934 319.65 324.885L317.531 323.05L318.979 327.191C316.776 325.766 312.984 323.146 310.208 320.359C305.1 315.225 303.785 309.329 306.778 304.968L306.79 304.949C308.608 302.112 313.087 300.649 315.717 300.014L314.61 300.492C314.61 300.492 312.686 301.405 312.125 303.282C311.564 305.158 312.635 308.302 312.635 308.302L313.349 306.63C313.626 308.042 314.18 309.386 314.978 310.586C316.457 312.766 320.689 313.324 320.689 313.324L319.567 311.803C319.567 311.803 322.011 312.158 325.174 311.498C326.396 311.244 327.397 310.858 328.394 310.475C330.188 310.002 332.409 309.467 334.241 309.186C337.772 309.122 340.114 309.649 341.599 310.211C342.052 310.4 342.43 310.575 342.704 310.708C342.784 310.752 342.86 310.794 342.931 310.834C343.152 310.985 343.338 311.121 343.485 311.225L345.097 312.59C345.478 313.005 348.592 316.303 351.834 317.233C353.387 317.68 354.957 317.435 356.071 317.115C355.314 319.014 354.292 320.797 353.033 322.411V322.411Z" fill="#66442B"/>
<path d="M346.299 313.775C345.659 313.19 345.226 312.73 345.098 312.59L343.486 311.224C343.351 311.12 343.154 310.985 342.932 310.834C342.862 310.793 342.786 310.752 342.706 310.708C342.434 310.573 342.054 310.4 341.6 310.211C340.116 309.649 337.768 309.122 334.243 309.186C332.411 309.467 330.189 309.996 328.395 310.475C327.398 310.858 326.394 311.243 325.175 311.497C322.015 312.158 319.568 311.803 319.568 311.803L320.69 313.324C320.69 313.324 316.459 312.766 314.98 310.585C314.182 309.386 313.628 308.042 313.35 306.63L312.636 308.302C312.636 308.302 311.566 305.158 312.127 303.282C312.631 301.594 314.236 300.688 314.555 300.52V300.511C314.555 300.511 311.316 301.717 309.394 303.39L309.484 303.329C308.743 304.03 306.733 306.077 306.547 307.871C306.317 310.077 307.006 312.208 307.006 312.208L307.617 309.621C307.617 309.621 307.922 313.654 309.382 315.556C310.842 317.458 315.031 321.182 315.031 321.182L314.572 317.631C314.572 317.631 317.201 322.7 324.893 325.29C330.467 327.167 334.93 327.502 338.535 327.109C340.06 326.826 341.559 326.419 343.016 325.893C345.819 324.878 347.4 323.408 347.4 323.408L342.255 322.398L347.097 320.166C347.097 320.166 345.389 318.974 342.509 318.746C340.373 318.577 337.155 318.746 337.155 318.746C337.155 318.746 340.928 316.719 343.682 316.818C346.436 316.916 346.612 316.615 346.612 316.615C345.97 315.979 345.279 315.392 344.548 314.859C343.249 313.945 340.882 312.957 340.882 312.957H343.71C344.372 312.969 345.32 313.301 346.299 313.775Z" fill="#D76327"/>
<circle cx="824" cy="300" r="59" fill="#237CC1"/>
<path d="M845.175 318.061H801.649C794.162 318.061 787.277 311.886 786.717 304.303C786.496 301.398 787.119 298.491 788.508 295.941C789.898 293.391 791.993 291.311 794.534 289.959C797.076 288.606 799.952 288.04 802.808 288.33C805.663 288.621 808.371 289.755 810.598 291.593L805.966 297.38C804.659 296.296 803.021 295.709 801.334 295.72C799.39 295.72 797.527 296.504 796.152 297.9C794.778 299.295 794.006 301.188 794.006 303.162C794.006 305.135 794.778 307.028 796.152 308.423C797.527 309.819 799.39 310.603 801.334 310.603H817.466V289.921C817.466 281.684 823.438 274.525 831.498 273.61C835.41 273.165 839.345 274.215 842.536 276.555C845.728 278.895 847.948 282.358 848.763 286.269C852.614 287.097 856.024 289.351 858.328 292.593C860.632 295.834 861.666 299.83 861.228 303.803C860.344 312.001 853.286 318.061 845.175 318.061ZM824.81 310.603H845.285C849.614 310.603 853.421 307.395 853.926 303.029C854.068 301.829 853.959 300.612 853.608 299.457C853.256 298.302 852.67 297.235 851.886 296.326C851.102 295.416 850.138 294.685 849.058 294.178C847.977 293.671 846.803 293.401 845.613 293.385L841.76 293.432V289.481C841.745 288.272 841.479 287.08 840.981 285.983C840.483 284.885 839.763 283.906 838.867 283.11C837.972 282.313 836.922 281.717 835.785 281.359C834.648 281.002 833.45 280.891 832.268 281.034C827.969 281.543 824.81 285.414 824.81 289.81V310.603Z" fill="white"/>
<defs>
<filter id="filter0_di_623_356" x="0" y="0" width="1148.93" height="660" filterUnits="userSpaceOnUse" color-interpolation-filters="sRGB">
<feFlood flood-opacity="0" result="BackgroundImageFix"/>
<feColorMatrix in="SourceAlpha" type="matrix" values="0 0 0 0 0 0 0 0 0 0 0 0 0 0 0 0 0 0 127 0" result="hardAlpha"/>
<feOffset dx="-4" dy="12"/>
<feGaussianBlur stdDeviation="40"/>
<feColorMatrix type="matrix" values="0 0 0 0 0 0 0 0 0 0 0 0 0 0 0 0 0 0 0.55 0"/>
<feBlend mode="normal" in2="BackgroundImageFix" result="effect1_dropShadow_623_356"/>
<feBlend mode="normal" in="SourceGraphic" in2="effect1_dropShadow_623_356" result="shape"/>
<feColorMatrix in="SourceAlpha" type="matrix" values="0 0 0 0 0 0 0 0 0 0 0 0 0 0 0 0 0 0 127 0" result="hardAlpha"/>
<feMorphology radius="1.25" operator="erode" in="SourceAlpha" result="effect2_innerShadow_623_356"/>
<feOffset/>
<feComposite in2="hardAlpha" operator="arithmetic" k2="-1" k3="1"/>
<feColorMatrix type="matrix" values="0 0 0 0 1 0 0 0 0 1 0 0 0 0 1 0 0 0 0.25 0"/>
<feBlend mode="normal" in2="shape" result="effect2_innerShadow_623_356"/>
</filter>
<filter id="filter1_i_623_356" x="84" y="68" width="989" height="22" filterUnits="userSpaceOnUse" color-interpolation-filters="sRGB">
<feFlood flood-opacity="0" result="BackgroundImageFix"/>
<feBlend mode="normal" in="SourceGraphic" in2="BackgroundImageFix" result="shape"/>
<feColorMatrix in="SourceAlpha" type="matrix" values="0 0 0 0 0 0 0 0 0 0 0 0 0 0 0 0 0 0 127 0" result="hardAlpha"/>
<feOffset dy="-1"/>
<feComposite in2="hardAlpha" operator="arithmetic" k2="-1" k3="1"/>
<feColorMatrix type="matrix" values="0 0 0 0 0 0 0 0 0 0 0 0 0 0 0 0 0 0 1 0"/>
<feBlend mode="normal" in2="shape" result="effect1_innerShadow_623_356"/>
</filter>
<linearGradient id="paint0_linear_623_356" x1="824.176" y1="169.226" x2="824.176" y2="438.775" gradientUnits="userSpaceOnUse">
<stop stop-color="#F8FA9D"/>
<stop offset="0.572917" stop-color="#8FBC4A"/>
<stop offset="1" stop-color="#F8FA9D"/>
</linearGradient>
<clipPath id="clip0_623_356">
<rect x="84" y="68" width="988.93" height="500" rx="8" fill="white"/>
</clipPath>
<clipPath id="clip1_623_356">
<rect width="483.429" height="269.549" fill="white" transform="translate(91 169.226)"/>
</clipPath>
<clipPath id="clip2_623_356">
<rect x="582" y="169.226" width="484.352" height="269.549" fill="white"/>
</clipPath>
<clipPath id="clip3_623_356">
<rect width="12" height="12" fill="white" transform="translate(148 528)"/>
</clipPath>
<clipPath id="clip4_623_356">
<rect width="12" height="12" fill="white" transform="translate(234 528)"/>
</clipPath>
<clipPath id="clip5_623_356">
<rect width="12" height="12" fill="white" transform="translate(442 528)"/>
</clipPath>
<clipPath id="clip6_623_356">
<rect width="12" height="12" fill="white" transform="translate(603 528)"/>
</clipPath>
</defs>
</svg>
