<svg width="790" height="500" viewBox="0 0 790 500" fill="none" xmlns="http://www.w3.org/2000/svg">
<g clip-path="url(#clip0_869_2745)">
<g filter="url(#filter0_i_869_2745)">
<g clip-path="url(#clip1_869_2745)">
<rect width="988.93" height="500" rx="8" fill="white"/>
<rect width="989" height="428" transform="translate(0 22)" fill="#111111"/>
<g clip-path="url(#clip2_869_2745)">
<rect x="7" y="101.226" width="483.429" height="269.549" fill="#242424"/>
<rect width="51" height="17" transform="translate(8 354.226)" fill="#0A0A0A"/>
<path d="M16.7046 358.05V363.609C16.7008 364.38 16.4575 365.011 15.9746 365.501C15.4954 365.992 14.8441 366.267 14.0205 366.327L13.7341 366.338C12.8394 366.338 12.1263 366.096 11.5947 365.614C11.0632 365.131 10.7936 364.466 10.7861 363.62V358.05H11.853V363.586C11.853 364.178 12.0159 364.638 12.3416 364.968C12.6672 365.293 13.1314 365.456 13.7341 365.456C14.3443 365.456 14.8104 365.293 15.1323 364.968C15.458 364.642 15.6208 364.184 15.6208 363.592V358.05H16.7046ZM18.7658 360.15L18.7995 360.914C19.2637 360.33 19.8702 360.038 20.6189 360.038C21.9029 360.038 22.5505 360.762 22.5617 362.211V366.226H21.5229V362.205C21.5192 361.767 21.4181 361.443 21.2197 361.234C21.025 361.024 20.7199 360.919 20.3044 360.919C19.9675 360.919 19.6718 361.009 19.4172 361.189C19.1626 361.368 18.9642 361.604 18.822 361.896V366.226H17.7832V360.15H18.7658ZM24.797 366.226H23.7582V360.15H24.797V366.226ZM23.674 358.538C23.674 358.37 23.7245 358.228 23.8256 358.112C23.9304 357.996 24.0839 357.938 24.2861 357.938C24.4882 357.938 24.6417 357.996 24.7465 358.112C24.8513 358.228 24.9037 358.37 24.9037 358.538C24.9037 358.707 24.8513 358.847 24.7465 358.959C24.6417 359.072 24.4882 359.128 24.2861 359.128C24.0839 359.128 23.9304 359.072 23.8256 358.959C23.7245 358.847 23.674 358.707 23.674 358.538ZM33.0692 362.615H29.6383V366.226H28.5601V358.05H33.6251V358.937H29.6383V361.733H33.0692V362.615ZM33.8951 363.132C33.8951 362.536 34.0111 362.001 34.2432 361.526C34.4791 361.05 34.8047 360.683 35.2203 360.425C35.6395 360.167 36.1168 360.038 36.6521 360.038C37.4795 360.038 38.1477 360.324 38.6568 360.897C39.1696 361.469 39.4261 362.231 39.4261 363.182V363.255C39.4261 363.847 39.3119 364.378 39.0835 364.85C38.8589 365.318 38.5351 365.683 38.1121 365.945C37.6928 366.207 37.2099 366.338 36.6634 366.338C35.8398 366.338 35.1716 366.052 34.6587 365.479C34.1496 364.906 33.8951 364.148 33.8951 363.205V363.132ZM34.9395 363.255C34.9395 363.929 35.0949 364.47 35.4056 364.878C35.72 365.286 36.1393 365.49 36.6634 365.49C37.1912 365.49 37.6105 365.284 37.9212 364.872C38.2319 364.457 38.3873 363.877 38.3873 363.132C38.3873 362.465 38.2282 361.926 37.91 361.514C37.5955 361.099 37.1762 360.891 36.6521 360.891C36.1393 360.891 35.7256 361.095 35.4112 361.503C35.0967 361.911 34.9395 362.495 34.9395 363.255ZM42.1836 362.368L43.5313 360.15H44.7442L42.7564 363.154L44.8059 366.226H43.6043L42.2004 363.951L40.7966 366.226H39.5894L41.6389 363.154L39.6511 360.15H40.8528L42.1836 362.368ZM47.7993 366.338C46.9757 366.338 46.3056 366.068 45.789 365.529C45.2724 364.986 45.0141 364.262 45.0141 363.356V363.165C45.0141 362.563 45.1283 362.025 45.3567 361.554C45.5888 361.078 45.9107 360.708 46.3225 360.442C46.738 360.172 47.1872 360.038 47.6701 360.038C48.46 360.038 49.0739 360.298 49.5119 360.818C49.9499 361.338 50.1689 362.083 50.1689 363.053V363.485H46.0529C46.0679 364.084 46.242 364.569 46.5752 364.94C46.9121 365.307 47.3388 365.49 47.8554 365.49C48.2223 365.49 48.533 365.415 48.7876 365.265C49.0421 365.116 49.2649 364.917 49.4558 364.67L50.0903 365.164C49.5812 365.947 48.8175 366.338 47.7993 366.338ZM47.6701 360.891C47.2509 360.891 46.899 361.045 46.6145 361.352C46.33 361.655 46.154 362.082 46.0866 362.632H49.1301V362.553C49.1001 362.025 48.9579 361.617 48.7033 361.329C48.4488 361.037 48.1044 360.891 47.6701 360.891ZM54.4538 364.614C54.4538 364.333 54.3471 364.116 54.1337 363.963C53.9241 363.805 53.5554 363.671 53.0275 363.558C52.5034 363.446 52.086 363.311 51.7753 363.154C51.4684 362.997 51.24 362.81 51.0903 362.593C50.9443 362.375 50.8713 362.117 50.8713 361.818C50.8713 361.32 51.0809 360.899 51.5002 360.554C51.9232 360.21 52.4623 360.038 53.1174 360.038C53.8062 360.038 54.3639 360.215 54.7907 360.571C55.2212 360.927 55.4365 361.382 55.4365 361.936H54.392C54.392 361.651 54.2704 361.406 54.027 361.2C53.7874 360.994 53.4842 360.891 53.1174 360.891C52.7393 360.891 52.4435 360.973 52.2302 361.138C52.0168 361.303 51.9101 361.518 51.9101 361.784C51.9101 362.035 52.0093 362.224 52.2077 362.351C52.4061 362.478 52.7636 362.6 53.2802 362.716C53.8005 362.832 54.2217 362.971 54.5436 363.132C54.8656 363.293 55.1033 363.487 55.2568 363.716C55.414 363.94 55.4926 364.215 55.4926 364.541C55.4926 365.084 55.2755 365.52 54.8412 365.849C54.407 366.175 53.8436 366.338 53.1511 366.338C52.6644 366.338 52.2339 366.252 51.8596 366.08C51.4852 365.907 51.1913 365.668 50.978 365.361C50.7683 365.05 50.6635 364.715 50.6635 364.356H51.7023C51.721 364.704 51.8596 364.981 52.1179 365.187C52.3799 365.389 52.7243 365.49 53.1511 365.49C53.5441 365.49 53.8586 365.411 54.0944 365.254C54.334 365.093 54.4538 364.88 54.4538 364.614Z" fill="white"/>
</g>
<g clip-path="url(#clip3_869_2745)">
<rect x="498" y="101.226" width="484.352" height="269.549" fill="#242424"/>
<rect width="49" height="17" transform="translate(498 354.226)" fill="#0A0A0A"/>
<path d="M506.963 363.631C506.862 364.496 506.542 365.164 506.003 365.636C505.467 366.104 504.754 366.338 503.863 366.338C502.897 366.338 502.123 365.992 501.539 365.299C500.958 364.607 500.668 363.68 500.668 362.52V361.733C500.668 360.973 500.803 360.305 501.073 359.729C501.346 359.152 501.731 358.711 502.229 358.404C502.727 358.093 503.304 357.938 503.959 357.938C504.827 357.938 505.524 358.181 506.048 358.667C506.572 359.15 506.877 359.82 506.963 360.678H505.879C505.786 360.026 505.582 359.555 505.267 359.263C504.956 358.971 504.52 358.825 503.959 358.825C503.27 358.825 502.729 359.079 502.336 359.588C501.947 360.097 501.752 360.822 501.752 361.761V362.553C501.752 363.44 501.937 364.146 502.308 364.67C502.678 365.194 503.197 365.456 503.863 365.456C504.462 365.456 504.921 365.322 505.239 365.052C505.561 364.779 505.774 364.305 505.879 363.631H506.963ZM511.568 366.226C511.508 366.106 511.459 365.892 511.422 365.585C510.939 366.087 510.362 366.338 509.692 366.338C509.093 366.338 508.601 366.169 508.216 365.833C507.834 365.492 507.643 365.061 507.643 364.541C507.643 363.908 507.882 363.418 508.362 363.07C508.844 362.718 509.522 362.542 510.394 362.542H511.405V362.065C511.405 361.702 511.296 361.413 511.079 361.2C510.862 360.983 510.542 360.874 510.119 360.874C509.748 360.874 509.438 360.968 509.187 361.155C508.936 361.342 508.811 361.569 508.811 361.834H507.766C507.766 361.531 507.873 361.239 508.086 360.958C508.304 360.674 508.596 360.449 508.962 360.285C509.333 360.12 509.739 360.038 510.181 360.038C510.881 360.038 511.429 360.214 511.826 360.565C512.223 360.914 512.429 361.395 512.444 362.009V364.805C512.444 365.363 512.515 365.806 512.657 366.136V366.226H511.568ZM509.844 365.434C510.17 365.434 510.478 365.35 510.77 365.181C511.062 365.013 511.274 364.794 511.405 364.524V363.278H510.591C509.318 363.278 508.682 363.65 508.682 364.395C508.682 364.721 508.79 364.975 509.007 365.159C509.224 365.342 509.503 365.434 509.844 365.434ZM517.363 365.625C516.959 366.1 516.366 366.338 515.583 366.338C514.936 366.338 514.441 366.151 514.101 365.776C513.764 365.398 513.594 364.84 513.59 364.103V360.15H514.629V364.075C514.629 364.996 515.003 365.456 515.752 365.456C516.545 365.456 517.073 365.161 517.335 364.569V360.15H518.374V366.226H517.386L517.363 365.625ZM523.035 364.614C523.035 364.333 522.928 364.116 522.715 363.963C522.505 363.805 522.137 363.671 521.609 363.558C521.085 363.446 520.667 363.311 520.357 363.154C520.05 362.997 519.821 362.81 519.672 362.593C519.526 362.375 519.453 362.117 519.453 361.818C519.453 361.32 519.662 360.899 520.081 360.554C520.504 360.21 521.044 360.038 521.699 360.038C522.387 360.038 522.945 360.215 523.372 360.571C523.802 360.927 524.018 361.382 524.018 361.936H522.973C522.973 361.651 522.852 361.406 522.608 361.2C522.369 360.994 522.065 360.891 521.699 360.891C521.321 360.891 521.025 360.973 520.811 361.138C520.598 361.303 520.491 361.518 520.491 361.784C520.491 362.035 520.591 362.224 520.789 362.351C520.987 362.478 521.345 362.6 521.861 362.716C522.382 362.832 522.803 362.971 523.125 363.132C523.447 363.293 523.685 363.487 523.838 363.716C523.995 363.94 524.074 364.215 524.074 364.541C524.074 365.084 523.857 365.52 523.422 365.849C522.988 366.175 522.425 366.338 521.732 366.338C521.246 366.338 520.815 366.252 520.441 366.08C520.066 365.907 519.773 365.668 519.559 365.361C519.35 365.05 519.245 364.715 519.245 364.356H520.284C520.302 364.704 520.441 364.981 520.699 365.187C520.961 365.389 521.306 365.49 521.732 365.49C522.125 365.49 522.44 365.411 522.676 365.254C522.915 365.093 523.035 364.88 523.035 364.614ZM528.718 366.226C528.658 366.106 528.61 365.892 528.572 365.585C528.089 366.087 527.513 366.338 526.843 366.338C526.244 366.338 525.751 366.169 525.366 365.833C524.984 365.492 524.793 365.061 524.793 364.541C524.793 363.908 525.033 363.418 525.512 363.07C525.995 362.718 526.672 362.542 527.545 362.542H528.555V362.065C528.555 361.702 528.447 361.413 528.23 361.2C528.012 360.983 527.692 360.874 527.269 360.874C526.899 360.874 526.588 360.968 526.337 361.155C526.086 361.342 525.961 361.569 525.961 361.834H524.917C524.917 361.531 525.023 361.239 525.237 360.958C525.454 360.674 525.746 360.449 526.113 360.285C526.483 360.12 526.889 360.038 527.331 360.038C528.031 360.038 528.58 360.214 528.976 360.565C529.373 360.914 529.579 361.395 529.594 362.009V364.805C529.594 365.363 529.665 365.806 529.807 366.136V366.226H528.718ZM526.994 365.434C527.32 365.434 527.629 365.35 527.921 365.181C528.213 365.013 528.424 364.794 528.555 364.524V363.278H527.741C526.468 363.278 525.832 363.65 525.832 364.395C525.832 364.721 525.94 364.975 526.158 365.159C526.375 365.342 526.654 365.434 526.994 365.434ZM535.906 363.255C535.906 364.184 535.693 364.93 535.266 365.496C534.839 366.057 534.266 366.338 533.548 366.338C532.78 366.338 532.187 366.066 531.768 365.524L531.717 366.226H530.763V357.601H531.801V360.818C532.221 360.298 532.799 360.038 533.536 360.038C534.274 360.038 534.852 360.316 535.272 360.874C535.695 361.432 535.906 362.196 535.906 363.165V363.255ZM534.867 363.137C534.867 362.43 534.731 361.883 534.457 361.498C534.184 361.112 533.791 360.919 533.278 360.919C532.593 360.919 532.101 361.237 531.801 361.874V364.502C532.12 365.138 532.616 365.456 533.289 365.456C533.787 365.456 534.175 365.264 534.452 364.878C534.729 364.492 534.867 363.912 534.867 363.137ZM537.889 366.226H536.85V357.601H537.889V366.226ZM541.618 366.338C540.794 366.338 540.124 366.068 539.607 365.529C539.091 364.986 538.832 364.262 538.832 363.356V363.165C538.832 362.563 538.947 362.025 539.175 361.554C539.407 361.078 539.729 360.708 540.141 360.442C540.556 360.172 541.006 360.038 541.488 360.038C542.278 360.038 542.892 360.298 543.33 360.818C543.768 361.338 543.987 362.083 543.987 363.053V363.485H539.871C539.886 364.084 540.06 364.569 540.394 364.94C540.73 365.307 541.157 365.49 541.674 365.49C542.041 365.49 542.351 365.415 542.606 365.265C542.86 365.116 543.083 364.917 543.274 364.67L543.909 365.164C543.4 365.947 542.636 366.338 541.618 366.338ZM541.488 360.891C541.069 360.891 540.717 361.045 540.433 361.352C540.148 361.655 539.972 362.082 539.905 362.632H542.948V362.553C542.919 362.025 542.776 361.617 542.522 361.329C542.267 361.037 541.923 360.891 541.488 360.891Z" fill="white"/>
</g>
<rect x="497" y="100.226" width="486.352" height="271.549" stroke="url(#paint0_linear_869_2745)" stroke-width="2"/>
<rect x="8" y="30" width="26" height="26" rx="4" fill="#111111"/>
<path d="M21.0004 49C21.75 49 27 46.1765 27 39.8235C26.6133 39.8236 23.3229 39.1177 21.0004 37C18.6779 39.1176 15.387 39.8236 15 39.8235C15 46.1765 20.2507 49 21.0004 49Z" fill="#69D569"/>
<path d="M19 43L20.6667 44.5L24 41.5" stroke="#111111" stroke-linecap="round" stroke-linejoin="round"/>
<rect x="39" y="30" width="128" height="26" rx="4" fill="#111111" fill-opacity="0.4"/>
<path d="M49.5981 47.2021C51.9621 47.2021 53.4277 45.5569 53.4277 42.9514V42.9402C53.4277 40.3291 51.9565 38.6951 49.5981 38.6951C47.2453 38.6951 45.7629 40.3291 45.7629 42.9402V42.9514C45.7629 45.5569 47.2229 47.2021 49.5981 47.2021ZM49.5981 45.95C48.1381 45.95 47.2397 44.7708 47.2397 42.9514V42.9402C47.2397 41.1096 48.1606 39.9473 49.5981 39.9473C51.0356 39.9473 51.9509 41.1096 51.9509 42.9402V42.9514C51.9509 44.7708 51.0412 45.95 49.5981 45.95ZM54.3688 47H55.767V43.4343C55.767 42.5583 56.3791 42.0024 57.3112 42.0024C57.5526 42.0024 57.7829 42.0361 58.0075 42.0811V40.8289C57.8727 40.7896 57.6537 40.7615 57.4403 40.7615C56.6317 40.7615 56.0702 41.1489 55.8625 41.8059H55.767V40.8625H54.3688V47ZM59.2967 39.835C59.7516 39.835 60.1278 39.47 60.1278 39.0095C60.1278 38.5547 59.7516 38.1841 59.2967 38.1841C58.8363 38.1841 58.4601 38.5547 58.4601 39.0095C58.4601 39.47 58.8363 39.835 59.2967 39.835ZM58.5948 47H59.993V40.8625H58.5948V47ZM63.7754 49.1562C65.5667 49.1562 66.701 48.2634 66.701 46.8484V40.8625H65.3028V41.8733H65.2298C64.8816 41.177 64.219 40.7615 63.3711 40.7615C61.7876 40.7615 60.8218 41.9856 60.8218 43.76V43.7712C60.8218 45.512 61.7876 46.7136 63.3431 46.7136C64.191 46.7136 64.8592 46.3542 65.2129 45.6973H65.3084V46.8708C65.3084 47.657 64.7525 48.1006 63.7979 48.1006C63.0174 48.1006 62.5513 47.8254 62.4559 47.4324L62.4502 47.4155H61.052L61.0464 47.4324C61.1868 48.4656 62.1583 49.1562 63.7754 49.1562ZM63.7754 45.6018C62.804 45.6018 62.2537 44.855 62.2537 43.7712V43.76C62.2537 42.6763 62.804 41.9238 63.7754 41.9238C64.7413 41.9238 65.3309 42.6763 65.3309 43.76V43.7712C65.3309 44.855 64.7469 45.6018 63.7754 45.6018ZM68.5574 39.835C69.0122 39.835 69.3884 39.47 69.3884 39.0095C69.3884 38.5547 69.0122 38.1841 68.5574 38.1841C68.0969 38.1841 67.7207 38.5547 67.7207 39.0095C67.7207 39.47 68.0969 39.835 68.5574 39.835ZM67.8555 47H69.2537V40.8625H67.8555V47ZM70.3969 47H71.7951V43.4231C71.7951 42.5022 72.3117 41.9182 73.1428 41.9182C73.9907 41.9182 74.3781 42.4011 74.3781 43.3557V47H75.7763V43.03C75.7763 41.5701 75.0295 40.7446 73.6594 40.7446C72.7722 40.7446 72.1826 41.1433 71.8906 41.8003H71.7951V40.8625H70.3969V47ZM78.5255 47.1011C79.3341 47.1011 79.9855 46.7529 80.3224 46.1577H80.4179V47H81.7992V42.8054C81.7992 41.5083 80.912 40.7446 79.3341 40.7446C77.8742 40.7446 76.8859 41.4297 76.7511 42.4629L76.7455 42.5134H78.0651L78.0707 42.491C78.2111 42.0867 78.6266 41.8564 79.2667 41.8564C80.0192 41.8564 80.4179 42.1934 80.4179 42.8054V43.3333L78.84 43.4287C77.3463 43.5186 76.5097 44.1587 76.5097 45.2537V45.2649C76.5097 46.3823 77.3576 47.1011 78.5255 47.1011ZM77.891 45.1975V45.1863C77.891 44.6809 78.256 44.3945 79.0365 44.344L80.4179 44.2542V44.7483C80.4179 45.4783 79.7946 46.0286 78.9523 46.0286C78.3346 46.0286 77.891 45.7197 77.891 45.1975ZM82.9593 47H84.3575V38.4873H82.9593V47ZM91.0015 47.2021C92.9443 47.2021 94.1628 46.2139 94.1628 44.636V44.6304C94.1628 43.4062 93.4497 42.7212 91.7427 42.3618L90.8723 42.1765C89.8616 41.9631 89.4517 41.6038 89.4517 41.031V41.0254C89.4517 40.3347 90.0918 39.9136 90.9902 39.9136C91.9167 39.908 92.5176 40.3572 92.6187 40.9861L92.6299 41.0535H94.0168L94.0112 40.9805C93.9102 39.6777 92.7927 38.6951 90.9958 38.6951C89.2439 38.6951 87.9973 39.6721 87.9973 41.1208V41.1265C87.9973 42.3337 88.7161 43.1086 90.3726 43.4568L91.2429 43.6365C92.2874 43.8611 92.7085 44.2148 92.7085 44.7988V44.8044C92.7085 45.5007 92.0234 45.9836 91.0464 45.9836C90.0188 45.9836 89.2944 45.5344 89.2271 44.855L89.2214 44.7988H87.8176L87.8232 44.8774C87.9243 46.2756 89.1204 47.2021 91.0015 47.2021ZM97.7207 47.1235C99.5568 47.1235 100.674 45.9219 100.674 43.9341V43.9229C100.674 41.9463 99.5512 40.7446 97.7207 40.7446C95.8957 40.7446 94.767 41.9519 94.767 43.9229V43.9341C94.767 45.9219 95.8789 47.1235 97.7207 47.1235ZM97.7207 45.9893C96.7492 45.9893 96.1933 45.2312 96.1933 43.9397V43.9285C96.1933 42.637 96.7492 41.8733 97.7207 41.8733C98.6865 41.8733 99.2424 42.637 99.2424 43.9285V43.9397C99.2424 45.2312 98.6921 45.9893 97.7207 45.9893ZM103.536 47.1235C104.423 47.1235 105.046 46.7249 105.333 46.0679H105.428V47H106.826V40.8625H105.428V44.4395C105.428 45.3604 104.945 45.9443 104.041 45.9443C103.199 45.9443 102.845 45.4614 102.845 44.5125V40.8625H101.447V44.8325C101.447 46.2925 102.154 47.1235 103.536 47.1235ZM107.958 47H109.357V43.4231C109.357 42.5022 109.873 41.9182 110.704 41.9182C111.552 41.9182 111.94 42.4011 111.94 43.3557V47H113.338V43.03C113.338 41.5701 112.591 40.7446 111.221 40.7446C110.334 40.7446 109.744 41.1433 109.452 41.8003H109.357V40.8625H107.958V47ZM116.626 47.1011C117.491 47.1011 118.153 46.708 118.49 46.0398H118.586V47H119.99V38.4873H118.586V41.8396H118.49C118.17 41.177 117.468 40.7615 116.626 40.7615C115.071 40.7615 114.11 41.9744 114.11 43.9285V43.9397C114.11 45.8826 115.087 47.1011 116.626 47.1011ZM117.064 45.9219C116.109 45.9219 115.531 45.175 115.531 43.9397V43.9285C115.531 42.6931 116.115 41.9407 117.064 41.9407C118.013 41.9407 118.608 42.6987 118.608 43.9285V43.9397C118.608 45.1694 118.019 45.9219 117.064 45.9219ZM122.211 42.9402C122.728 42.9402 123.104 42.5527 123.104 42.0586C123.104 41.5588 122.728 41.1714 122.211 41.1714C121.7 41.1714 121.318 41.5588 121.318 42.0586C121.318 42.5527 121.7 42.9402 122.211 42.9402ZM122.211 47.1123C122.728 47.1123 123.104 46.7192 123.104 46.2251C123.104 45.7253 122.728 45.3379 122.211 45.3379C121.7 45.3379 121.318 45.7253 121.318 46.2251C121.318 46.7192 121.7 47.1123 122.211 47.1123ZM130.511 47.2021C132.875 47.2021 134.341 45.5569 134.341 42.9514V42.9402C134.341 40.3291 132.87 38.6951 130.511 38.6951C128.159 38.6951 126.676 40.3291 126.676 42.9402V42.9514C126.676 45.5569 128.136 47.2021 130.511 47.2021ZM130.511 45.95C129.051 45.95 128.153 44.7708 128.153 42.9514V42.9402C128.153 41.1096 129.074 39.9473 130.511 39.9473C131.949 39.9473 132.864 41.1096 132.864 42.9402V42.9514C132.864 44.7708 131.954 45.95 130.511 45.95ZM135.731 47H137.129V41.9463H138.438V40.8625H137.107V40.3347C137.107 39.7507 137.36 39.4363 138.017 39.4363C138.213 39.4363 138.387 39.4475 138.494 39.4644V38.4873C138.269 38.448 138.017 38.4312 137.719 38.4312C136.355 38.4312 135.731 39.032 135.731 40.2561V40.8625H134.726V41.9463H135.731V47ZM139.693 47H141.092V41.9463H142.4V40.8625H141.069V40.3347C141.069 39.7507 141.322 39.4363 141.979 39.4363C142.175 39.4363 142.349 39.4475 142.456 39.4644V38.4873C142.231 38.448 141.979 38.4312 141.681 38.4312C140.317 38.4312 139.693 39.032 139.693 40.2561V40.8625H138.688V41.9463H139.693V47Z" fill="white"/>
<path d="M153 41L157 45L161 41H153Z" fill="white"/>
<g filter="url(#filter1_i_869_2745)">
<rect width="989" height="22" fill="#393A3B"/>
<ellipse cx="11.5645" cy="10.2905" rx="4.5" ry="4.5" fill="#ED695E"/>
<circle cx="25.9644" cy="10.2905" r="4.5" fill="#F4BE4F"/>
<circle cx="40.3643" cy="10.2905" r="4.5" fill="#63C454"/>
</g>
<rect width="989" height="50" transform="translate(0 450)" fill="#1B1B1B"/>
<path d="M2 462.27C2 458.284 2 456.29 2.78811 454.773C3.45223 453.495 4.49468 452.452 5.77318 451.788C7.29035 451 9.28357 451 13.27 451H65.73C69.7164 451 71.7097 451 73.2268 451.788C74.5053 452.452 75.5478 453.495 76.2119 454.773C77 456.29 77 458.284 77 462.27V487.73C77 491.716 77 493.71 76.2119 495.227C75.5478 496.505 74.5053 497.548 73.2268 498.212C71.7097 499 69.7164 499 65.73 499H13.27C9.28356 499 7.29035 499 5.77318 498.212C4.49468 497.548 3.45223 496.505 2.78811 495.227C2 493.71 2 491.716 2 487.73V462.27Z" fill="#1B1B1B"/>
<rect x="36" y="456" width="8" height="14" rx="4" fill="#ACACAC"/>
<path fill-rule="evenodd" clip-rule="evenodd" d="M34.8029 466.748C34.7444 466.338 34.4142 466 34 466C33.5858 466 33.2456 466.337 33.2911 466.749C33.6364 469.878 36.1209 472.363 39.25 472.709V475.25H37C36.5858 475.25 36.25 475.586 36.25 476C36.25 476.414 36.5858 476.75 37 476.75H43C43.4142 476.75 43.75 476.414 43.75 476C43.75 475.586 43.4142 475.25 43 475.25H40.75V472.709C43.8791 472.363 46.3636 469.878 46.7089 466.749C46.7544 466.337 46.4142 466 46 466C45.5858 466 45.2556 466.338 45.1972 466.748C44.8342 469.293 42.6456 471.25 40 471.25C37.3544 471.25 35.1658 469.293 34.8029 466.748Z" fill="#ACACAC"/>
<g clip-path="url(#clip4_869_2745)">
<path d="M66.4703 467.804C66.7298 468.063 67.1505 468.063 67.4103 467.804L69.6468 465.573C69.842 465.378 70.158 465.378 70.3532 465.573L72.5897 467.804C72.8495 468.063 73.2702 468.063 73.5297 467.804V467.804C73.7895 467.544 73.7895 467.123 73.5297 466.863L70.3536 463.687C70.1583 463.492 69.8417 463.492 69.6464 463.687L66.4703 466.863C66.2105 467.123 66.2105 467.544 66.4703 467.804V467.804Z" fill="#ACACAC"/>
</g>
<path d="M17.8641 493H18.9598V487.312H19.0457L21.3177 493H22.2093L24.4866 487.312H24.5672V493H25.6629V485.25H24.2771L21.8064 491.432H21.7205L19.2498 485.25H17.8641V493ZM28.8673 493.113C29.7159 493.113 30.3067 492.748 30.586 492.119H30.6773V493H31.8375V487.167H30.6773V490.588C30.6773 491.528 30.1778 492.114 29.2433 492.114C28.3893 492.114 28.0348 491.636 28.0348 490.669V487.167H26.8692V490.943C26.8692 492.323 27.5514 493.113 28.8673 493.113ZM35.1708 493.038C35.3964 493.038 35.6112 493.011 35.7992 492.979V492.049C35.6381 492.065 35.536 492.071 35.3588 492.071C34.7841 492.071 34.5478 491.813 34.5478 491.185V488.085H35.7992V487.167H34.5478V485.695H33.3607V487.167H32.4477V488.085H33.3607V491.464C33.3607 492.586 33.8871 493.038 35.1708 493.038ZM38.9929 493.113C40.486 493.113 41.2917 492.253 41.4851 491.485L41.4958 491.437L40.3732 491.442L40.3518 491.485C40.2121 491.786 39.7663 492.157 39.0197 492.157C38.0583 492.157 37.446 491.507 37.4245 490.39H41.5603V489.981C41.5603 488.23 40.5612 487.054 38.9338 487.054C37.3063 487.054 36.2536 488.273 36.2536 490.094V490.1C36.2536 491.947 37.2849 493.113 38.9929 493.113ZM38.9392 488.01C39.7287 488.01 40.3142 488.515 40.4055 489.557H37.4406C37.5427 488.553 38.1442 488.01 38.9392 488.01Z" fill="#ACACAC"/>
<path d="M77 462.27C77 458.284 77 456.29 77.7881 454.773C78.4522 453.495 79.4947 452.452 80.7732 451.788C82.2903 451 84.2836 451 88.27 451H151.73C155.716 451 157.71 451 159.227 451.788C160.505 452.452 161.548 453.495 162.212 454.773C163 456.29 163 458.284 163 462.27V487.73C163 491.716 163 493.71 162.212 495.227C161.548 496.505 160.505 497.548 159.227 498.212C157.71 499 155.716 499 151.73 499H88.27C84.2836 499 82.2903 499 80.7732 498.212C79.4947 497.548 78.4522 496.505 77.7881 495.227C77 493.71 77 491.716 77 487.73V462.27Z" fill="#1B1B1B"/>
<path d="M126 463.566C126 463.215 126.184 462.889 126.486 462.709L129.486 460.909C130.152 460.509 131 460.989 131 461.766V471.234C131 472.011 130.152 472.491 129.486 472.091L126.486 470.291C126.184 470.111 126 469.785 126 469.434V463.566Z" fill="#ACACAC"/>
<path fill-rule="evenodd" clip-rule="evenodd" d="M123.212 460.667C122.578 460.245 121.818 460 121 460H111C109.895 460 109 460.895 109 462V469C109 470.59 109.927 471.963 111.271 472.608L123.212 460.667ZM115.121 473H123C124.105 473 125 472.105 125 471V464C125 463.726 124.973 463.459 124.92 463.201L115.121 473Z" fill="#ACACAC"/>
<path d="M130 456L110 476" stroke="#EE6762" stroke-width="1.5" stroke-linecap="round"/>
<g clip-path="url(#clip5_869_2745)">
<path d="M152.47 467.804C152.73 468.063 153.15 468.063 153.41 467.804L155.647 465.573C155.842 465.378 156.158 465.378 156.353 465.573L158.59 467.804C158.85 468.063 159.27 468.063 159.53 467.804V467.804C159.789 467.544 159.789 467.123 159.53 466.863L156.354 463.687C156.158 463.492 155.842 463.492 155.646 463.687L152.47 466.863C152.211 467.123 152.211 467.544 152.47 467.804V467.804Z" fill="#ACACAC"/>
</g>
<path d="M96.8994 493.188C98.7041 493.188 99.8589 492.264 99.8589 490.782V490.776C99.8589 489.627 99.1929 488.972 97.5654 488.623L96.7222 488.435C95.7178 488.22 95.3096 487.844 95.3096 487.269V487.264C95.3096 486.533 95.981 486.109 96.8887 486.109C97.8286 486.104 98.4355 486.565 98.5376 487.199L98.5483 487.269H99.7139L99.7085 487.194C99.6226 485.991 98.5483 485.062 96.9048 485.062C95.2612 485.062 94.1011 485.985 94.0957 487.323V487.328C94.0957 488.472 94.7725 489.203 96.3462 489.536L97.1948 489.718C98.2207 489.938 98.6396 490.325 98.6396 490.921V490.927C98.6396 491.646 97.936 492.141 96.9478 492.141C95.9111 492.141 95.1646 491.689 95.1001 490.986L95.0947 490.927H93.9131L93.9185 490.997C94.0259 492.302 95.1484 493.188 96.8994 493.188ZM102.961 493.038C103.187 493.038 103.402 493.011 103.59 492.979V492.049C103.429 492.065 103.326 492.071 103.149 492.071C102.575 492.071 102.338 491.813 102.338 491.185V488.085H103.59V487.167H102.338V485.695H101.151V487.167H100.238V488.085H101.151V491.464C101.151 492.586 101.678 493.038 102.961 493.038ZM105.999 493.097C106.773 493.097 107.385 492.764 107.729 492.173H107.82V493H108.975V489.009C108.975 487.785 108.148 487.054 106.681 487.054C105.355 487.054 104.436 487.693 104.296 488.649L104.291 488.687H105.414L105.419 488.666C105.559 488.252 105.983 488.016 106.628 488.016C107.417 488.016 107.82 488.37 107.82 489.009V489.525L106.241 489.616C104.85 489.702 104.066 490.309 104.066 491.351V491.362C104.066 492.42 104.887 493.097 105.999 493.097ZM105.226 491.313V491.303C105.226 490.776 105.591 490.486 106.397 490.438L107.82 490.347V490.846C107.82 491.598 107.181 492.167 106.311 492.167C105.682 492.167 105.226 491.851 105.226 491.313ZM110.068 493H111.234V489.514C111.234 488.671 111.841 488.123 112.732 488.123C112.953 488.123 113.151 488.15 113.361 488.193V487.119C113.243 487.092 113.038 487.065 112.85 487.065C112.072 487.065 111.529 487.43 111.32 488.048H111.234V487.167H110.068V493ZM116.425 493.038C116.651 493.038 116.866 493.011 117.054 492.979V492.049C116.893 492.065 116.791 492.071 116.613 492.071C116.039 492.071 115.802 491.813 115.802 491.185V488.085H117.054V487.167H115.802V485.695H114.615V487.167H113.702V488.085H114.615V491.464C114.615 492.586 115.142 493.038 116.425 493.038ZM122.619 493H123.946L126.707 485.25H125.402L123.328 491.55H123.237L121.164 485.25H119.859L122.619 493ZM127.983 486.125C128.38 486.125 128.713 485.797 128.713 485.4C128.713 484.997 128.38 484.669 127.983 484.669C127.58 484.669 127.253 484.997 127.253 485.4C127.253 485.797 127.58 486.125 127.983 486.125ZM127.398 493H128.558V487.167H127.398V493ZM131.832 493.097C132.648 493.097 133.287 492.721 133.626 492.082H133.717V493H134.877V484.879H133.717V488.091H133.626C133.314 487.462 132.632 487.065 131.832 487.065C130.35 487.065 129.415 488.23 129.415 490.078V490.089C129.415 491.92 130.366 493.097 131.832 493.097ZM132.165 492.103C131.187 492.103 130.602 491.34 130.602 490.089V490.078C130.602 488.827 131.187 488.064 132.165 488.064C133.132 488.064 133.733 488.832 133.733 490.078V490.089C133.733 491.335 133.137 492.103 132.165 492.103ZM138.511 493.113C140.005 493.113 140.81 492.253 141.004 491.485L141.014 491.437L139.892 491.442L139.87 491.485C139.731 491.786 139.285 492.157 138.538 492.157C137.577 492.157 136.965 491.507 136.943 490.39H141.079V489.981C141.079 488.23 140.08 487.054 138.452 487.054C136.825 487.054 135.772 488.273 135.772 490.094V490.1C135.772 491.947 136.803 493.113 138.511 493.113ZM138.458 488.01C139.247 488.01 139.833 488.515 139.924 489.557H136.959C137.061 488.553 137.663 488.01 138.458 488.01ZM144.385 493.113C146.093 493.113 147.141 491.969 147.141 490.089V490.078C147.141 488.198 146.088 487.054 144.385 487.054C142.677 487.054 141.625 488.204 141.625 490.078V490.089C141.625 491.969 142.672 493.113 144.385 493.113ZM144.385 492.141C143.381 492.141 142.817 491.383 142.817 490.089V490.078C142.817 488.784 143.381 488.026 144.385 488.026C145.384 488.026 145.954 488.784 145.954 490.078V490.089C145.954 491.378 145.384 492.141 144.385 492.141Z" fill="#ACACAC"/>
<path d="M207 462.27C207 458.284 207 456.29 207.788 454.773C208.452 453.495 209.495 452.452 210.773 451.788C212.29 451 214.284 451 218.27 451H273.73C277.716 451 279.71 451 281.227 451.788C282.505 452.452 283.548 453.495 284.212 454.773C285 456.29 285 458.284 285 462.27V487.73C285 491.716 285 493.71 284.212 495.227C283.548 496.505 282.505 497.548 281.227 498.212C279.71 499 277.716 499 273.73 499H218.27C214.284 499 212.29 499 210.773 498.212C209.495 497.548 208.452 496.505 207.788 495.227C207 493.71 207 491.716 207 487.73V462.27Z" fill="#1B1B1B"/>
<mask id="mask0_869_2745" style="mask-type:alpha" maskUnits="userSpaceOnUse" x="238" y="457" width="16" height="17">
<path d="M246 474C247 474 254 470 254 461C253.484 461 249.097 460 246 457C242.904 460 238.516 461 238 461C238 470 245.001 474 246 474Z" fill="#C4C4C4"/>
</mask>
<g mask="url(#mask0_869_2745)">
<rect x="237" y="456" width="9" height="9.5" fill="#ACACAC"/>
<rect x="246" y="465.5" width="9" height="9.5" fill="#ACACAC"/>
</g>
<path d="M246 474C247 474 254 470 254 461C253.484 461 249.097 460 246 457C242.904 460 238.516 461 238 461C238 470 245.001 474 246 474Z" stroke="#ACACAC" stroke-linejoin="round"/>
<path d="M229.97 493.188C231.775 493.188 232.929 492.264 232.929 490.782V490.776C232.929 489.627 232.263 488.972 230.636 488.623L229.793 488.435C228.788 488.22 228.38 487.844 228.38 487.269V487.264C228.38 486.533 229.051 486.109 229.959 486.109C230.899 486.104 231.506 486.565 231.608 487.199L231.619 487.269H232.784L232.779 487.194C232.693 485.991 231.619 485.062 229.975 485.062C228.332 485.062 227.172 485.985 227.166 487.323V487.328C227.166 488.472 227.843 489.203 229.417 489.536L230.265 489.718C231.291 489.938 231.71 490.325 231.71 490.921V490.927C231.71 491.646 231.007 492.141 230.018 492.141C228.982 492.141 228.235 491.689 228.171 490.986L228.165 490.927H226.984L226.989 490.997C227.096 492.302 228.219 493.188 229.97 493.188ZM236.279 493.113C237.772 493.113 238.578 492.253 238.771 491.485L238.782 491.437L237.659 491.442L237.638 491.485C237.498 491.786 237.052 492.157 236.306 492.157C235.344 492.157 234.732 491.507 234.71 490.39H238.846V489.981C238.846 488.23 237.847 487.054 236.22 487.054C234.592 487.054 233.54 488.273 233.54 490.094V490.1C233.54 491.947 234.571 493.113 236.279 493.113ZM236.225 488.01C237.015 488.01 237.6 488.515 237.691 489.557H234.727C234.829 488.553 235.43 488.01 236.225 488.01ZM242.137 493.113C243.581 493.113 244.414 492.334 244.623 491.201L244.634 491.152H243.517L243.506 491.179C243.318 491.808 242.867 492.141 242.137 492.141C241.175 492.141 240.579 491.356 240.579 490.067V490.057C240.579 488.8 241.164 488.026 242.137 488.026C242.91 488.026 243.383 488.456 243.512 489.031L243.517 489.047L244.634 489.042V489.015C244.473 487.881 243.597 487.054 242.131 487.054C240.429 487.054 239.392 488.209 239.392 490.057V490.067C239.392 491.953 240.434 493.113 242.137 493.113ZM247.35 493.113C248.198 493.113 248.789 492.748 249.068 492.119H249.16V493H250.32V487.167H249.16V490.588C249.16 491.528 248.66 492.114 247.726 492.114C246.872 492.114 246.517 491.636 246.517 490.669V487.167H245.352V490.943C245.352 492.323 246.034 493.113 247.35 493.113ZM251.451 493H252.617V489.514C252.617 488.671 253.224 488.123 254.115 488.123C254.335 488.123 254.534 488.15 254.744 488.193V487.119C254.625 487.092 254.421 487.065 254.233 487.065C253.454 487.065 252.912 487.43 252.703 488.048H252.617V487.167H251.451V493ZM255.912 486.125C256.31 486.125 256.643 485.797 256.643 485.4C256.643 484.997 256.31 484.669 255.912 484.669C255.509 484.669 255.182 484.997 255.182 485.4C255.182 485.797 255.509 486.125 255.912 486.125ZM255.327 493H256.487V487.167H255.327V493ZM259.836 493.038C260.062 493.038 260.277 493.011 260.465 492.979V492.049C260.304 492.065 260.202 492.071 260.024 492.071C259.45 492.071 259.213 491.813 259.213 491.185V488.085H260.465V487.167H259.213V485.695H258.026V487.167H257.113V488.085H258.026V491.464C258.026 492.586 258.553 493.038 259.836 493.038ZM261.843 495.052C263.025 495.052 263.616 494.617 264.11 493.226L266.28 487.167H265.055L263.599 491.829H263.497L262.036 487.167H260.78L262.896 493.005L262.81 493.306C262.638 493.897 262.31 494.128 261.768 494.128C261.634 494.128 261.489 494.123 261.376 494.106V495.025C261.526 495.041 261.698 495.052 261.843 495.052Z" fill="#ACACAC"/>
<path d="M285 462.27C285 458.284 285 456.29 285.788 454.773C286.452 453.495 287.495 452.452 288.773 451.788C290.29 451 292.284 451 296.27 451H359.73C363.716 451 365.71 451 367.227 451.788C368.505 452.452 369.548 453.495 370.212 454.773C371 456.29 371 458.284 371 462.27V487.73C371 491.716 371 493.71 370.212 495.227C369.548 496.505 368.505 497.548 367.227 498.212C365.71 499 363.716 499 359.73 499H296.27C292.284 499 290.29 499 288.773 498.212C287.495 497.548 286.452 496.505 285.788 495.227C285 493.71 285 491.716 285 487.73V462.27Z" fill="#1B1B1B"/>
<circle cx="324" cy="462" r="4" fill="#ACACAC"/>
<circle cx="333.5" cy="463.5" r="3.5" fill="#ACACAC"/>
<path d="M328.846 475C329.923 475 331 473.654 331 472.308C331 469.077 327.21 468 324 468C320.79 468 317 469.077 317 472.308C317 473.654 318.077 475 319.154 475H328.846Z" fill="#ACACAC"/>
<path fill-rule="evenodd" clip-rule="evenodd" d="M329.304 474.922C330.208 474.616 331 473.462 331 472.308C331 471.232 330.58 470.395 329.9 469.757C328.79 470.33 328 471.266 328 472.692C328 473.668 328.605 474.644 329.304 474.922ZM331.573 475H337.308C338.154 475 339 473.846 339 472.692C339 469.923 336.022 469 333.5 469C332.824 469 332.114 469.066 331.439 469.217C332.084 470.022 332.5 471.044 332.5 472.308C332.5 473.317 332.122 474.274 331.573 475Z" fill="#ACACAC"/>
<g clip-path="url(#clip6_869_2745)">
<path d="M360.47 467.804C360.73 468.063 361.15 468.063 361.41 467.804L363.647 465.573C363.842 465.378 364.158 465.378 364.353 465.573L366.59 467.804C366.85 468.063 367.27 468.063 367.53 467.804V467.804C367.789 467.544 367.789 467.123 367.53 466.863L364.354 463.687C364.158 463.492 363.842 463.492 363.646 463.687L360.47 466.863C360.211 467.123 360.211 467.544 360.47 467.804V467.804Z" fill="#ACACAC"/>
</g>
<path d="M300.104 493H301.307V490.352H303.122C304.642 490.352 305.695 489.315 305.695 487.801V487.79C305.695 486.27 304.642 485.25 303.122 485.25H300.104V493ZM302.821 486.265C303.863 486.265 304.47 486.829 304.47 487.795V487.806C304.47 488.778 303.863 489.342 302.821 489.342H301.307V486.265H302.821ZM307.949 493.097C308.722 493.097 309.334 492.764 309.678 492.173H309.769V493H310.924V489.009C310.924 487.785 310.097 487.054 308.631 487.054C307.304 487.054 306.386 487.693 306.246 488.649L306.241 488.687H307.363L307.369 488.666C307.508 488.252 307.933 488.016 308.577 488.016C309.367 488.016 309.769 488.37 309.769 489.009V489.525L308.19 489.616C306.799 489.702 306.015 490.309 306.015 491.351V491.362C306.015 492.42 306.837 493.097 307.949 493.097ZM307.175 491.313V491.303C307.175 490.776 307.54 490.486 308.346 490.438L309.769 490.347V490.846C309.769 491.598 309.13 492.167 308.26 492.167C307.632 492.167 307.175 491.851 307.175 491.313ZM312.018 493H313.183V489.514C313.183 488.671 313.79 488.123 314.682 488.123C314.902 488.123 315.101 488.15 315.31 488.193V487.119C315.192 487.092 314.988 487.065 314.8 487.065C314.021 487.065 313.479 487.43 313.269 488.048H313.183V487.167H312.018V493ZM318.375 493.038C318.601 493.038 318.815 493.011 319.003 492.979V492.049C318.842 492.065 318.74 492.071 318.563 492.071C317.988 492.071 317.752 491.813 317.752 491.185V488.085H319.003V487.167H317.752V485.695H316.565V487.167H315.652V488.085H316.565V491.464C316.565 492.586 317.091 493.038 318.375 493.038ZM320.419 486.125C320.817 486.125 321.15 485.797 321.15 485.4C321.15 484.997 320.817 484.669 320.419 484.669C320.016 484.669 319.689 484.997 319.689 485.4C319.689 485.797 320.016 486.125 320.419 486.125ZM319.834 493H320.994V487.167H319.834V493ZM324.596 493.113C326.041 493.113 326.873 492.334 327.083 491.201L327.093 491.152H325.976L325.965 491.179C325.777 491.808 325.326 492.141 324.596 492.141C323.634 492.141 323.038 491.356 323.038 490.067V490.057C323.038 488.8 323.624 488.026 324.596 488.026C325.369 488.026 325.842 488.456 325.971 489.031L325.976 489.047L327.093 489.042V489.015C326.932 487.881 326.057 487.054 324.59 487.054C322.888 487.054 321.851 488.209 321.851 490.057V490.067C321.851 491.953 322.893 493.113 324.596 493.113ZM328.472 486.125C328.869 486.125 329.202 485.797 329.202 485.4C329.202 484.997 328.869 484.669 328.472 484.669C328.069 484.669 327.741 484.997 327.741 485.4C327.741 485.797 328.069 486.125 328.472 486.125ZM327.886 493H329.046V487.167H327.886V493ZM330.194 494.944H331.359V492.076H331.445C331.757 492.705 332.439 493.097 333.239 493.097C334.721 493.097 335.656 491.937 335.656 490.089V490.078C335.656 488.241 334.711 487.065 333.239 487.065C332.423 487.065 331.783 487.446 331.445 488.085H331.359V487.167H330.194V494.944ZM332.911 492.103C331.939 492.103 331.338 491.335 331.338 490.089V490.078C331.338 488.832 331.939 488.064 332.911 488.064C333.883 488.064 334.469 488.821 334.469 490.078V490.089C334.469 491.34 333.883 492.103 332.911 492.103ZM338.108 493.097C338.882 493.097 339.494 492.764 339.838 492.173H339.929V493H341.084V489.009C341.084 487.785 340.257 487.054 338.791 487.054C337.464 487.054 336.545 487.693 336.406 488.649L336.4 488.687H337.523L337.528 488.666C337.668 488.252 338.092 488.016 338.737 488.016C339.526 488.016 339.929 488.37 339.929 489.009V489.525L338.35 489.616C336.959 489.702 336.175 490.309 336.175 491.351V491.362C336.175 492.42 336.997 493.097 338.108 493.097ZM337.335 491.313V491.303C337.335 490.776 337.7 490.486 338.506 490.438L339.929 490.347V490.846C339.929 491.598 339.29 492.167 338.42 492.167C337.792 492.167 337.335 491.851 337.335 491.313ZM342.178 493H343.343V489.579C343.343 488.639 343.875 488.053 344.729 488.053C345.583 488.053 345.986 488.531 345.986 489.498V493H347.146V489.224C347.146 487.833 346.426 487.054 345.121 487.054C344.272 487.054 343.714 487.43 343.429 488.053H343.343V487.167H342.178V493ZM350.425 493.038C350.651 493.038 350.866 493.011 351.054 492.979V492.049C350.893 492.065 350.791 492.071 350.613 492.071C350.039 492.071 349.802 491.813 349.802 491.185V488.085H351.054V487.167H349.802V485.695H348.615V487.167H347.702V488.085H348.615V491.464C348.615 492.586 349.142 493.038 350.425 493.038ZM353.898 493.113C355.284 493.113 356.315 492.377 356.315 491.297V491.287C356.315 490.443 355.778 489.965 354.656 489.702L353.732 489.493C353.077 489.337 352.808 489.111 352.808 488.746V488.735C352.808 488.268 353.27 487.951 353.909 487.951C354.564 487.951 354.978 488.257 355.091 488.666V488.676H356.203V488.671C356.1 487.72 355.246 487.054 353.914 487.054C352.593 487.054 351.648 487.785 351.648 488.8V488.805C351.648 489.659 352.158 490.159 353.259 490.411L354.188 490.626C354.865 490.782 355.139 491.029 355.139 491.394V491.405C355.139 491.883 354.64 492.21 353.92 492.21C353.227 492.21 352.803 491.915 352.658 491.475L352.652 491.469H351.487V491.475C351.6 492.452 352.491 493.113 353.898 493.113Z" fill="#ACACAC"/>
<path d="M371 462.27C371 458.284 371 456.29 371.788 454.773C372.452 453.495 373.495 452.452 374.773 451.788C376.29 451 378.284 451 382.27 451H437.73C441.716 451 443.71 451 445.227 451.788C446.505 452.452 447.548 453.495 448.212 454.773C449 456.29 449 458.284 449 462.27V487.73C449 491.716 449 493.71 448.212 495.227C447.548 496.505 446.505 497.548 445.227 498.212C443.71 499 441.716 499 437.73 499H382.27C378.284 499 376.29 499 374.773 498.212C373.495 497.548 372.452 496.505 371.788 495.227C371 493.71 371 491.716 371 487.73V462.27Z" fill="#1B1B1B"/>
<path fill-rule="evenodd" clip-rule="evenodd" d="M403 458C401.343 458 400 459.343 400 461V468.333C400 469.99 401.343 471.333 403 471.333H403.889V474.463C403.889 474.922 404.457 475.139 404.763 474.795L407.84 471.333H417C418.657 471.333 420 469.99 420 468.333V461C420 459.343 418.657 458 417 458H403Z" fill="#ACACAC"/>
<path d="M402.457 493.188C404.186 493.188 405.449 492.2 405.674 490.712V490.68H404.482L404.471 490.701C404.251 491.577 403.483 492.125 402.457 492.125C401.06 492.125 400.19 490.97 400.19 489.133V489.122C400.19 487.28 401.06 486.125 402.451 486.125C403.472 486.125 404.251 486.743 404.476 487.693V487.709H405.669L405.674 487.683C405.47 486.141 404.159 485.062 402.451 485.062C400.298 485.062 398.96 486.619 398.96 489.122V489.133C398.96 491.63 400.303 493.188 402.457 493.188ZM406.628 493H407.794V489.579C407.794 488.639 408.325 488.053 409.179 488.053C410.033 488.053 410.436 488.531 410.436 489.498V493H411.596V489.224C411.596 487.833 410.877 487.054 409.571 487.054C408.723 487.054 408.164 487.43 407.879 488.053H407.794V484.879H406.628V493ZM414.274 493.097C415.048 493.097 415.66 492.764 416.004 492.173H416.095V493H417.25V489.009C417.25 487.785 416.423 487.054 414.956 487.054C413.63 487.054 412.711 487.693 412.572 488.649L412.566 488.687H413.689L413.694 488.666C413.834 488.252 414.258 488.016 414.903 488.016C415.692 488.016 416.095 488.37 416.095 489.009V489.525L414.516 489.616C413.125 489.702 412.341 490.309 412.341 491.351V491.362C412.341 492.42 413.162 493.097 414.274 493.097ZM413.501 491.313V491.303C413.501 490.776 413.866 490.486 414.672 490.438L416.095 490.347V490.846C416.095 491.598 415.456 492.167 414.586 492.167C413.957 492.167 413.501 491.851 413.501 491.313ZM420.546 493.038C420.771 493.038 420.986 493.011 421.174 492.979V492.049C421.013 492.065 420.911 492.071 420.734 492.071C420.159 492.071 419.923 491.813 419.923 491.185V488.085H421.174V487.167H419.923V485.695H418.736V487.167H417.822V488.085H418.736V491.464C418.736 492.586 419.262 493.038 420.546 493.038Z" fill="#ACACAC"/>
<path d="M449 462.27C449 458.284 449 456.29 449.788 454.773C450.452 453.495 451.495 452.452 452.773 451.788C454.29 451 456.284 451 460.27 451H520.73C524.716 451 526.71 451 528.227 451.788C529.505 452.452 530.548 453.495 531.212 454.773C532 456.29 532 458.284 532 462.27V487.73C532 491.716 532 493.71 531.212 495.227C530.548 496.505 529.505 497.548 528.227 498.212C526.71 499 524.716 499 520.73 499H460.27C456.284 499 454.29 499 452.773 498.212C451.495 497.548 450.452 496.505 449.788 495.227C449 493.71 449 491.716 449 487.73V462.27Z" fill="#1B1B1B"/>
<path fill-rule="evenodd" clip-rule="evenodd" d="M482 458C480.895 458 480 458.895 480 460V472C480 473.105 480.895 474 482 474H500C501.105 474 502 473.105 502 472V460C502 458.895 501.105 458 500 458H482ZM491.53 461.47C491.237 461.177 490.763 461.177 490.47 461.47L487.47 464.47C487.177 464.763 487.177 465.237 487.47 465.53C487.763 465.823 488.237 465.823 488.53 465.53L490.25 463.811V469C490.25 469.414 490.586 469.75 491 469.75C491.414 469.75 491.75 469.414 491.75 469V463.811L493.47 465.53C493.763 465.823 494.237 465.823 494.53 465.53C494.823 465.237 494.823 464.763 494.53 464.47L491.53 461.47Z" fill="#69D569"/>
<g clip-path="url(#clip7_869_2745)">
<path d="M521.47 467.804C521.73 468.063 522.15 468.063 522.41 467.804L524.647 465.573C524.842 465.378 525.158 465.378 525.353 465.573L527.59 467.804C527.85 468.063 528.27 468.063 528.53 467.804V467.804C528.789 467.544 528.789 467.123 528.53 466.863L525.354 463.687C525.158 463.492 524.842 463.492 524.646 463.687L521.47 466.863C521.211 467.123 521.211 467.544 521.47 467.804V467.804Z" fill="#69D569"/>
</g>
<path d="M462.723 493.188C464.527 493.188 465.682 492.264 465.682 490.782V490.776C465.682 489.627 465.016 488.972 463.389 488.623L462.546 488.435C461.541 488.22 461.133 487.844 461.133 487.269V487.264C461.133 486.533 461.804 486.109 462.712 486.109C463.652 486.104 464.259 486.565 464.361 487.199L464.372 487.269H465.537L465.532 487.194C465.446 485.991 464.372 485.062 462.728 485.062C461.085 485.062 459.924 485.985 459.919 487.323V487.328C459.919 488.472 460.596 489.203 462.17 489.536L463.018 489.718C464.044 489.938 464.463 490.325 464.463 490.921V490.927C464.463 491.646 463.759 492.141 462.771 492.141C461.734 492.141 460.988 491.689 460.923 490.986L460.918 490.927H459.736L459.742 490.997C459.849 492.302 460.972 493.188 462.723 493.188ZM466.636 493H467.802V489.579C467.802 488.639 468.333 488.053 469.187 488.053C470.041 488.053 470.444 488.531 470.444 489.498V493H471.604V489.224C471.604 487.833 470.885 487.054 469.579 487.054C468.731 487.054 468.172 487.43 467.888 488.053H467.802V484.879H466.636V493ZM474.282 493.097C475.056 493.097 475.668 492.764 476.012 492.173H476.103V493H477.258V489.009C477.258 487.785 476.431 487.054 474.965 487.054C473.638 487.054 472.719 487.693 472.58 488.649L472.574 488.687H473.697L473.702 488.666C473.842 488.252 474.266 488.016 474.911 488.016C475.7 488.016 476.103 488.37 476.103 489.009V489.525L474.524 489.616C473.133 489.702 472.349 490.309 472.349 491.351V491.362C472.349 492.42 473.171 493.097 474.282 493.097ZM473.509 491.313V491.303C473.509 490.776 473.874 490.486 474.68 490.438L476.103 490.347V490.846C476.103 491.598 475.464 492.167 474.594 492.167C473.966 492.167 473.509 491.851 473.509 491.313ZM478.352 493H479.517V489.514C479.517 488.671 480.124 488.123 481.016 488.123C481.236 488.123 481.435 488.15 481.644 488.193V487.119C481.526 487.092 481.322 487.065 481.134 487.065C480.355 487.065 479.813 487.43 479.603 488.048H479.517V487.167H478.352V493ZM484.505 493.113C485.998 493.113 486.804 492.253 486.997 491.485L487.008 491.437L485.885 491.442L485.864 491.485C485.724 491.786 485.278 492.157 484.532 492.157C483.57 492.157 482.958 491.507 482.936 490.39H487.072V489.981C487.072 488.23 486.073 487.054 484.446 487.054C482.818 487.054 481.765 488.273 481.765 490.094V490.1C481.765 491.947 482.797 493.113 484.505 493.113ZM484.451 488.01C485.241 488.01 485.826 488.515 485.917 489.557H482.952C483.054 488.553 483.656 488.01 484.451 488.01ZM493.121 493.188C494.926 493.188 496.08 492.264 496.08 490.782V490.776C496.08 489.627 495.414 488.972 493.787 488.623L492.944 488.435C491.939 488.22 491.531 487.844 491.531 487.269V487.264C491.531 486.533 492.203 486.109 493.11 486.109C494.05 486.104 494.657 486.565 494.759 487.199L494.77 487.269H495.935L495.93 487.194C495.844 485.991 494.77 485.062 493.126 485.062C491.483 485.062 490.323 485.985 490.317 487.323V487.328C490.317 488.472 490.994 489.203 492.568 489.536L493.416 489.718C494.442 489.938 494.861 490.325 494.861 490.921V490.927C494.861 491.646 494.158 492.141 493.169 492.141C492.133 492.141 491.386 491.689 491.322 490.986L491.316 490.927H490.135L490.14 490.997C490.247 492.302 491.37 493.188 493.121 493.188ZM499.435 493.113C500.88 493.113 501.713 492.334 501.922 491.201L501.933 491.152H500.816L500.805 491.179C500.617 491.808 500.166 492.141 499.435 492.141C498.474 492.141 497.878 491.356 497.878 490.067V490.057C497.878 488.8 498.463 488.026 499.435 488.026C500.209 488.026 500.681 488.456 500.81 489.031L500.816 489.047L501.933 489.042V489.015C501.772 487.881 500.896 487.054 499.43 487.054C497.727 487.054 496.691 488.209 496.691 490.057V490.067C496.691 491.953 497.733 493.113 499.435 493.113ZM502.704 493H503.87V489.514C503.87 488.671 504.477 488.123 505.368 488.123C505.588 488.123 505.787 488.15 505.997 488.193V487.119C505.878 487.092 505.674 487.065 505.486 487.065C504.708 487.065 504.165 487.43 503.956 488.048H503.87V487.167H502.704V493ZM508.857 493.113C510.35 493.113 511.156 492.253 511.349 491.485L511.36 491.437L510.238 491.442L510.216 491.485C510.076 491.786 509.631 492.157 508.884 492.157C507.923 492.157 507.31 491.507 507.289 490.39H511.425V489.981C511.425 488.23 510.426 487.054 508.798 487.054C507.171 487.054 506.118 488.273 506.118 490.094V490.1C506.118 491.947 507.149 493.113 508.857 493.113ZM508.804 488.01C509.593 488.01 510.179 488.515 510.27 489.557H507.305C507.407 488.553 508.009 488.01 508.804 488.01ZM514.71 493.113C516.203 493.113 517.008 492.253 517.202 491.485L517.213 491.437L516.09 491.442L516.068 491.485C515.929 491.786 515.483 492.157 514.736 492.157C513.775 492.157 513.163 491.507 513.141 490.39H517.277V489.981C517.277 488.23 516.278 487.054 514.65 487.054C513.023 487.054 511.97 488.273 511.97 490.094V490.1C511.97 491.947 513.002 493.113 514.71 493.113ZM514.656 488.01C515.445 488.01 516.031 488.515 516.122 489.557H513.157C513.259 488.553 513.861 488.01 514.656 488.01ZM518.113 493H519.278V489.579C519.278 488.639 519.81 488.053 520.664 488.053C521.518 488.053 521.921 488.531 521.921 489.498V493H523.081V489.224C523.081 487.833 522.361 487.054 521.056 487.054C520.207 487.054 519.649 487.43 519.364 488.053H519.278V487.167H518.113V493Z" fill="#69D569"/>
<path d="M532 462.27C532 458.284 532 456.29 532.788 454.773C533.452 453.495 534.495 452.452 535.773 451.788C537.29 451 539.284 451 543.27 451H596.73C600.716 451 602.71 451 604.227 451.788C605.505 452.452 606.548 453.495 607.212 454.773C608 456.29 608 458.284 608 462.27V487.73C608 491.716 608 493.71 607.212 495.227C606.548 496.505 605.505 497.548 604.227 498.212C602.71 499 600.716 499 596.73 499H543.27C539.284 499 537.29 499 535.773 498.212C534.495 497.548 533.452 496.505 532.788 495.227C532 493.71 532 491.716 532 487.73V462.27Z" fill="#1B1B1B"/>
<rect x="567.5" y="456" width="5" height="20" rx="1" fill="#ACACAC"/>
<rect x="573.75" y="461" width="5" height="15" rx="1" fill="#ACACAC"/>
<rect x="561.25" y="466" width="5" height="10" rx="1" fill="#ACACAC"/>
<path d="M555.21 493H556.413V490.352H558.228C559.748 490.352 560.801 489.315 560.801 487.801V487.79C560.801 486.27 559.748 485.25 558.228 485.25H555.21V493ZM557.927 486.265C558.969 486.265 559.576 486.829 559.576 487.795V487.806C559.576 488.778 558.969 489.342 557.927 489.342H556.413V486.265H557.927ZM563.978 493.113C565.686 493.113 566.734 491.969 566.734 490.089V490.078C566.734 488.198 565.681 487.054 563.978 487.054C562.27 487.054 561.218 488.204 561.218 490.078V490.089C561.218 491.969 562.265 493.113 563.978 493.113ZM563.978 492.141C562.974 492.141 562.41 491.383 562.41 490.089V490.078C562.41 488.784 562.974 488.026 563.978 488.026C564.977 488.026 565.547 488.784 565.547 490.078V490.089C565.547 491.378 564.977 492.141 563.978 492.141ZM567.629 493H568.794V484.879H567.629V493ZM570.033 493H571.198V484.879H570.033V493ZM572.99 486.125C573.387 486.125 573.721 485.797 573.721 485.4C573.721 484.997 573.387 484.669 572.99 484.669C572.587 484.669 572.26 484.997 572.26 485.4C572.26 485.797 572.587 486.125 572.99 486.125ZM572.405 493H573.565V487.167H572.405V493ZM574.712 493H575.878V489.579C575.878 488.639 576.409 488.053 577.263 488.053C578.117 488.053 578.52 488.531 578.52 489.498V493H579.68V489.224C579.68 487.833 578.961 487.054 577.655 487.054C576.807 487.054 576.248 487.43 575.963 488.053H575.878V487.167H574.712V493ZM583.223 495.057C584.877 495.057 585.925 494.208 585.925 492.882V487.167H584.765V488.123H584.695C584.356 487.468 583.723 487.065 582.906 487.065C581.392 487.065 580.462 488.241 580.462 489.906V489.917C580.462 491.561 581.386 492.715 582.885 492.715C583.685 492.715 584.329 492.361 584.684 491.727H584.77V492.876C584.77 493.671 584.201 494.123 583.239 494.123C582.45 494.123 581.977 493.838 581.88 493.435L581.875 493.424H580.699L580.688 493.435C580.828 494.407 581.741 495.057 583.223 495.057ZM583.207 491.754C582.213 491.754 581.655 490.997 581.655 489.912V489.901C581.655 488.816 582.213 488.053 583.207 488.053C584.19 488.053 584.791 488.816 584.791 489.901V489.912C584.791 491.002 584.195 491.754 583.207 491.754Z" fill="#ACACAC"/>
<path d="M608 462.27C608 458.284 608 456.29 608.788 454.773C609.452 453.495 610.495 452.452 611.773 451.788C613.29 451 615.284 451 619.27 451H670.73C674.716 451 676.71 451 678.227 451.788C679.505 452.452 680.548 453.495 681.212 454.773C682 456.29 682 458.284 682 462.27V487.73C682 491.716 682 493.71 681.212 495.227C680.548 496.505 679.505 497.548 678.227 498.212C676.71 499 674.716 499 670.73 499H619.27C615.284 499 613.29 499 611.773 498.212C610.495 497.548 609.452 496.505 608.788 495.227C608 493.71 608 491.716 608 487.73V462.27Z" fill="#1B1B1B"/>
<circle cx="645" cy="466" r="9.25" stroke="#ACACAC" stroke-width="1.5"/>
<circle cx="645" cy="466" r="7" fill="#ACACAC"/>
<path d="M629.032 493H630.235V490.019H631.933L633.512 493H634.903L633.163 489.831C634.108 489.514 634.667 488.666 634.667 487.624V487.613C634.667 486.173 633.678 485.25 632.088 485.25H629.032V493ZM630.235 489.042V486.259H631.933C632.862 486.259 633.431 486.786 633.431 487.645V487.656C633.431 488.537 632.894 489.042 631.97 489.042H630.235ZM637.973 493.113C639.466 493.113 640.272 492.253 640.465 491.485L640.476 491.437L639.353 491.442L639.332 491.485C639.192 491.786 638.746 492.157 638 492.157C637.038 492.157 636.426 491.507 636.405 490.39H640.54V489.981C640.54 488.23 639.541 487.054 637.914 487.054C636.286 487.054 635.234 488.273 635.234 490.094V490.1C635.234 491.947 636.265 493.113 637.973 493.113ZM637.919 488.01C638.709 488.01 639.294 488.515 639.386 489.557H636.421C636.523 488.553 637.124 488.01 637.919 488.01ZM643.831 493.113C645.275 493.113 646.108 492.334 646.317 491.201L646.328 491.152H645.211L645.2 491.179C645.012 491.808 644.561 492.141 643.831 492.141C642.869 492.141 642.273 491.356 642.273 490.067V490.057C642.273 488.8 642.858 488.026 643.831 488.026C644.604 488.026 645.077 488.456 645.206 489.031L645.211 489.047L646.328 489.042V489.015C646.167 487.881 645.292 487.054 643.825 487.054C642.123 487.054 641.086 488.209 641.086 490.057V490.067C641.086 491.953 642.128 493.113 643.831 493.113ZM649.57 493.113C651.278 493.113 652.326 491.969 652.326 490.089V490.078C652.326 488.198 651.273 487.054 649.57 487.054C647.862 487.054 646.809 488.204 646.809 490.078V490.089C646.809 491.969 647.857 493.113 649.57 493.113ZM649.57 492.141C648.566 492.141 648.002 491.383 648.002 490.089V490.078C648.002 488.784 648.566 488.026 649.57 488.026C650.569 488.026 651.139 488.784 651.139 490.078V490.089C651.139 491.378 650.569 492.141 649.57 492.141ZM653.167 493H654.332V489.514C654.332 488.671 654.939 488.123 655.831 488.123C656.051 488.123 656.25 488.15 656.459 488.193V487.119C656.341 487.092 656.137 487.065 655.949 487.065C655.17 487.065 654.628 487.43 654.418 488.048H654.332V487.167H653.167V493ZM658.998 493.097C659.814 493.097 660.453 492.721 660.792 492.082H660.883V493H662.043V484.879H660.883V488.091H660.792C660.48 487.462 659.798 487.065 658.998 487.065C657.515 487.065 656.581 488.23 656.581 490.078V490.089C656.581 491.92 657.531 493.097 658.998 493.097ZM659.331 492.103C658.353 492.103 657.768 491.34 657.768 490.089V490.078C657.768 488.827 658.353 488.064 659.331 488.064C660.297 488.064 660.899 488.832 660.899 490.078V490.089C660.899 491.335 660.303 492.103 659.331 492.103Z" fill="#ACACAC"/>
<path d="M682 462.27C682 458.284 682 456.29 682.788 454.773C683.452 453.495 684.495 452.452 685.773 451.788C687.29 451 689.284 451 693.27 451H774.73C778.716 451 780.71 451 782.227 451.788C783.505 452.452 784.548 453.495 785.212 454.773C786 456.29 786 458.284 786 462.27V487.73C786 491.716 786 493.71 785.212 495.227C784.548 496.505 783.505 497.548 782.227 498.212C780.71 499 778.716 499 774.73 499H693.27C689.284 499 687.29 499 685.773 498.212C684.495 497.548 683.452 496.505 682.788 495.227C682 493.71 682 491.716 682 487.73V462.27Z" fill="#1B1B1B"/>
<rect x="725" y="457" width="8" height="8" rx="1" fill="#ACACAC"/>
<rect x="725" y="467" width="8" height="8" rx="1" fill="#ACACAC"/>
<rect x="735" y="457" width="8" height="8" rx="1" fill="#ACACAC"/>
<rect x="735" y="467" width="8" height="8" rx="1" fill="#ACACAC"/>
<path d="M695.181 493H698.366C700.02 493 701.014 492.173 701.014 490.814V490.803C701.014 489.793 700.316 489.052 699.268 488.939V488.848C700.031 488.719 700.627 487.994 700.627 487.188V487.178C700.627 485.991 699.752 485.25 698.296 485.25H695.181V493ZM698.017 486.232C698.908 486.232 699.429 486.657 699.429 487.387V487.398C699.429 488.15 698.876 488.547 697.813 488.547H696.384V486.232H698.017ZM698.054 489.466C699.188 489.466 699.784 489.896 699.784 490.728V490.739C699.784 491.571 699.209 492.017 698.124 492.017H696.384V489.466H698.054ZM701.877 493H703.042V489.514C703.042 488.671 703.649 488.123 704.541 488.123C704.761 488.123 704.96 488.15 705.169 488.193V487.119C705.051 487.092 704.847 487.065 704.659 487.065C703.88 487.065 703.338 487.43 703.128 488.048H703.042V487.167H701.877V493ZM708.03 493.113C709.523 493.113 710.329 492.253 710.522 491.485L710.533 491.437L709.41 491.442L709.389 491.485C709.249 491.786 708.803 492.157 708.057 492.157C707.095 492.157 706.483 491.507 706.461 490.39H710.597V489.981C710.597 488.23 709.598 487.054 707.971 487.054C706.343 487.054 705.29 488.273 705.29 490.094V490.1C705.29 491.947 706.322 493.113 708.03 493.113ZM707.976 488.01C708.766 488.01 709.351 488.515 709.442 489.557H706.477C706.579 488.553 707.181 488.01 707.976 488.01ZM713.033 493.097C713.807 493.097 714.419 492.764 714.763 492.173H714.854V493H716.009V489.009C716.009 487.785 715.182 487.054 713.716 487.054C712.389 487.054 711.47 487.693 711.331 488.649L711.325 488.687H712.448L712.453 488.666C712.593 488.252 713.017 488.016 713.662 488.016C714.451 488.016 714.854 488.37 714.854 489.009V489.525L713.275 489.616C711.884 489.702 711.1 490.309 711.1 491.351V491.362C711.1 492.42 711.922 493.097 713.033 493.097ZM712.26 491.313V491.303C712.26 490.776 712.625 490.486 713.431 490.438L714.854 490.347V490.846C714.854 491.598 714.215 492.167 713.345 492.167C712.717 492.167 712.26 491.851 712.26 491.313ZM717.156 493H718.322V490.878L718.821 490.379L720.83 493H722.248L719.654 489.627L722.087 487.167H720.723L718.408 489.627H718.322V484.879H717.156V493ZM724.931 493.113C726.639 493.113 727.687 491.969 727.687 490.089V490.078C727.687 488.198 726.634 487.054 724.931 487.054C723.223 487.054 722.171 488.204 722.171 490.078V490.089C722.171 491.969 723.218 493.113 724.931 493.113ZM724.931 492.141C723.927 492.141 723.363 491.383 723.363 490.089V490.078C723.363 488.784 723.927 488.026 724.931 488.026C725.93 488.026 726.5 488.784 726.5 490.078V490.089C726.5 491.378 725.93 492.141 724.931 492.141ZM730.472 493.113C731.321 493.113 731.912 492.748 732.191 492.119H732.282V493H733.442V487.167H732.282V490.588C732.282 491.528 731.783 492.114 730.848 492.114C729.994 492.114 729.64 491.636 729.64 490.669V487.167H728.474V490.943C728.474 492.323 729.156 493.113 730.472 493.113ZM736.776 493.038C737.001 493.038 737.216 493.011 737.404 492.979V492.049C737.243 492.065 737.141 492.071 736.964 492.071C736.389 492.071 736.153 491.813 736.153 491.185V488.085H737.404V487.167H736.153V485.695H734.966V487.167H734.053V488.085H734.966V491.464C734.966 492.586 735.492 493.038 736.776 493.038ZM740.805 493H742.008V490.019H743.706L745.285 493H746.676L744.936 489.831C745.881 489.514 746.439 488.666 746.439 487.624V487.613C746.439 486.173 745.451 485.25 743.861 485.25H740.805V493ZM742.008 489.042V486.259H743.706C744.635 486.259 745.204 486.786 745.204 487.645V487.656C745.204 488.537 744.667 489.042 743.743 489.042H742.008ZM749.767 493.113C751.475 493.113 752.523 491.969 752.523 490.089V490.078C752.523 488.198 751.47 487.054 749.767 487.054C748.059 487.054 747.007 488.204 747.007 490.078V490.089C747.007 491.969 748.054 493.113 749.767 493.113ZM749.767 492.141C748.763 492.141 748.199 491.383 748.199 490.089V490.078C748.199 488.784 748.763 488.026 749.767 488.026C750.766 488.026 751.336 488.784 751.336 490.078V490.089C751.336 491.378 750.766 492.141 749.767 492.141ZM755.835 493.113C757.543 493.113 758.59 491.969 758.59 490.089V490.078C758.59 488.198 757.537 487.054 755.835 487.054C754.127 487.054 753.074 488.204 753.074 490.078V490.089C753.074 491.969 754.121 493.113 755.835 493.113ZM755.835 492.141C754.83 492.141 754.266 491.383 754.266 490.089V490.078C754.266 488.784 754.83 488.026 755.835 488.026C756.834 488.026 757.403 488.784 757.403 490.078V490.089C757.403 491.378 756.834 492.141 755.835 492.141ZM759.431 493H760.597V489.417C760.597 488.655 761.118 488.053 761.821 488.053C762.509 488.053 762.944 488.472 762.944 489.138V493H764.104V489.31C764.104 488.606 764.593 488.053 765.334 488.053C766.097 488.053 766.462 488.451 766.462 489.256V493H767.622V488.977C767.622 487.763 766.934 487.054 765.758 487.054C764.947 487.054 764.276 487.468 763.98 488.096H763.889C763.631 487.468 763.067 487.054 762.272 487.054C761.51 487.054 760.94 487.425 760.683 488.064H760.597V487.167H759.431V493ZM770.821 493.113C772.207 493.113 773.238 492.377 773.238 491.297V491.287C773.238 490.443 772.701 489.965 771.578 489.702L770.654 489.493C769.999 489.337 769.731 489.111 769.731 488.746V488.735C769.731 488.268 770.193 487.951 770.832 487.951C771.487 487.951 771.901 488.257 772.013 488.666V488.676H773.125V488.671C773.023 487.72 772.169 487.054 770.837 487.054C769.516 487.054 768.571 487.785 768.571 488.8V488.805C768.571 489.659 769.081 490.159 770.182 490.411L771.111 490.626C771.788 490.782 772.062 491.029 772.062 491.394V491.405C772.062 491.883 771.562 492.21 770.842 492.21C770.15 492.21 769.725 491.915 769.58 491.475L769.575 491.469H768.409V491.475C768.522 492.452 769.414 493.113 770.821 493.113Z" fill="#ACACAC"/>
<path d="M786 462.27C786 458.284 786 456.29 786.788 454.773C787.452 453.495 788.495 452.452 789.773 451.788C791.29 451 793.284 451 797.27 451H843.73C847.716 451 849.71 451 851.227 451.788C852.505 452.452 853.548 453.495 854.212 454.773C855 456.29 855 458.284 855 462.27V487.73C855 491.716 855 493.71 854.212 495.227C853.548 496.505 852.505 497.548 851.227 498.212C849.71 499 847.716 499 843.73 499H797.27C793.284 499 791.29 499 789.773 498.212C788.495 497.548 787.452 496.505 786.788 495.227C786 493.71 786 491.716 786 487.73V462.27Z" fill="#1B1B1B"/>
</g>
<rect x="0.25" y="0.25" width="988.43" height="499.5" rx="7.75" stroke="black" stroke-width="0.5"/>
</g>
<circle cx="249" cy="232" r="59" fill="#D76327"/>
<path d="M232.419 231.084C232.419 231.084 227.487 231.313 224.391 234.279C221.295 237.246 220.262 238.731 220.725 243.295C221.188 247.859 225.198 252.197 226.23 253.337C227.262 254.477 235.98 260.641 235.98 260.641L235.178 257.669C235.178 257.669 240.683 262.127 248.024 262.234C255.365 262.341 262.133 261.664 265.345 259.152C268.556 256.64 272.8 249.681 272.8 249.681L272.916 248.653C272.916 248.653 268.556 250.365 264.656 246.828C260.756 243.291 258.577 241.806 258.577 241.806C258.577 241.806 255.248 238.891 250.775 239.607C246.302 240.323 243.092 244.2 235.407 242.833C227.722 241.466 230.703 235.302 230.703 235.302L232.419 231.084Z" fill="white"/>
<path d="M267.748 205.636H251.231V215.108H254.099V237.246H253.525V238.503H245.381V237.818H244.235V215.222H246.988V205.75H230.814V215.222H233.223V241.583H244.235V241.127H245.381V240.785H257.425V240.443H257.884V215.108H261.096V239.188H259.375V243.523H263.161V242.268H264.652V241.241H265.225V215.108H267.748V205.636Z" fill="white"/>
<path d="M272.949 247.201C272.925 247.213 270.483 248.446 268.249 247.806C266.174 247.21 264.053 245.396 262.953 244.341L265.652 241.607V215.85H268.129V205.355H250.611V215.857H253.158V237.383C252.922 237.618 252.725 237.803 252.569 237.941C252.418 238.072 252.281 238.219 252.161 238.38H246.264L245.262 237.383V215.85H247.797V205.355H230.279V215.857H232.816V230.255C230.62 230.66 224.088 232.183 221.545 236.14C219.839 238.632 219.309 241.598 220.016 244.717C220.695 247.701 222.468 250.704 225.156 253.405C229.41 257.679 235.748 261.427 236.011 261.585L237.767 262.619L236.599 259.279C239.221 260.738 244.611 262.927 253.386 262.927C253.836 262.927 254.296 262.92 254.763 262.909C262.775 262.705 267.591 258.674 270.217 255.329C273.051 251.72 273.987 248.196 274.019 248.048L274.434 246.441L272.949 247.201ZM253.505 238.824C253.701 238.644 253.996 238.36 254.39 237.973V214.618H251.913V206.638H266.891V214.618H264.356V241.079L262.03 243.435L260.885 242.461L262.881 240.435V213.034H265.358V208.171H253.388V213.034H255.923V238.557L254.694 239.751C254.063 239.623 253.424 239.543 252.781 239.512C253.085 239.211 253.326 238.981 253.505 238.82V238.824ZM231.566 214.618V206.638H246.487V214.618H243.951V237.969C244.306 238.322 244.589 238.585 244.807 238.762C245.024 238.939 245.327 239.221 245.721 239.612H250.771C248.97 239.832 246.697 240.347 244.771 240.839L242.478 238.557V213.034H245.01V208.171H233.039V213.034H235.575V240.433L236.778 241.657C235.433 241.602 234.422 241.43 234.041 241.079V214.618H231.566ZM269.033 254.411C265.502 258.91 260.684 261.269 254.717 261.42C241.497 261.758 235.706 256.934 235.65 256.885L233.531 255.05L234.979 259.191C232.776 257.766 228.984 255.146 226.208 252.359C221.101 247.225 219.785 241.329 222.778 236.968L222.79 236.949C224.608 234.112 229.087 232.649 231.717 232.014L230.61 232.492C230.61 232.492 228.686 233.405 228.125 235.282C227.565 237.158 228.635 240.302 228.635 240.302L229.349 238.63C229.627 240.042 230.18 241.386 230.978 242.586C232.457 244.766 236.689 245.324 236.689 245.324L235.567 243.803C235.567 243.803 238.011 244.158 241.174 243.498C242.396 243.244 243.397 242.858 244.394 242.475C246.188 242.002 248.409 241.467 250.241 241.186C253.772 241.122 256.115 241.649 257.599 242.211C258.052 242.4 258.43 242.575 258.704 242.708C258.784 242.752 258.86 242.794 258.931 242.834C259.152 242.985 259.338 243.121 259.485 243.225L261.097 244.59C261.479 245.005 264.592 248.303 267.834 249.233C269.387 249.68 270.957 249.435 272.071 249.115C271.314 251.014 270.292 252.797 269.033 254.411V254.411Z" fill="#66442B"/>
<path d="M262.299 245.775C261.659 245.19 261.226 244.73 261.098 244.59L259.486 243.225C259.351 243.121 259.154 242.985 258.932 242.834C258.862 242.794 258.786 242.752 258.706 242.709C258.434 242.573 258.054 242.4 257.6 242.211C256.116 241.649 253.768 241.122 250.243 241.186C248.411 241.467 246.189 241.997 244.395 242.475C243.399 242.858 242.394 243.244 241.176 243.498C238.016 244.158 235.569 243.803 235.569 243.803L236.69 245.324C236.69 245.324 232.459 244.766 230.98 242.586C230.182 241.386 229.628 240.042 229.35 238.63L228.636 240.302C228.636 240.302 227.566 237.158 228.127 235.282C228.631 233.594 230.236 232.688 230.555 232.52V232.511C230.555 232.511 227.316 233.717 225.395 235.39L225.484 235.329C224.743 236.03 222.733 238.077 222.547 239.871C222.317 242.078 223.006 244.208 223.006 244.208L223.617 241.621C223.617 241.621 223.923 245.654 225.382 247.556C226.842 249.458 231.032 253.182 231.032 253.182L230.573 249.631C230.573 249.631 233.202 254.7 240.893 257.29C246.468 259.167 250.93 259.502 254.535 259.109C256.06 258.826 257.559 258.419 259.017 257.893C261.819 256.878 263.4 255.408 263.4 255.408L258.255 254.398L263.097 252.166C263.097 252.166 261.389 250.974 258.509 250.746C256.373 250.577 253.156 250.746 253.156 250.746C253.156 250.746 256.928 248.719 259.682 248.818C262.436 248.917 262.613 248.615 262.613 248.615C261.97 247.979 261.28 247.392 260.548 246.859C259.249 245.946 256.882 244.957 256.882 244.957H259.711C260.372 244.969 261.32 245.301 262.299 245.775Z" fill="#D76327"/>
<circle cx="740" cy="232" r="59" fill="#237CC1"/>
<path d="M761.176 250.061H717.65C710.162 250.061 703.277 243.886 702.717 236.303C702.496 233.398 703.119 230.491 704.508 227.941C705.898 225.391 707.993 223.311 710.535 221.959C713.076 220.606 715.953 220.04 718.808 220.33C721.663 220.621 724.372 221.755 726.598 223.593L721.966 229.38C720.659 228.296 719.021 227.709 717.334 227.72C715.391 227.72 713.527 228.504 712.153 229.9C710.779 231.295 710.007 233.188 710.007 235.162C710.007 237.135 710.779 239.028 712.153 240.423C713.527 241.819 715.391 242.603 717.334 242.603H733.467V221.921C733.467 213.684 739.438 206.525 747.498 205.61C751.41 205.165 755.345 206.215 758.536 208.555C761.728 210.895 763.948 214.358 764.763 218.269C768.614 219.097 772.024 221.351 774.328 224.593C776.632 227.834 777.666 231.83 777.228 235.803C776.344 244.001 769.286 250.061 761.176 250.061ZM740.811 242.603H761.285C765.614 242.603 769.421 239.395 769.926 235.029C770.068 233.829 769.96 232.612 769.608 231.457C769.257 230.302 768.67 229.235 767.886 228.326C767.102 227.416 766.138 226.685 765.058 226.178C763.977 225.671 762.804 225.401 761.613 225.385L757.76 225.432V221.481C757.745 220.272 757.48 219.08 756.981 217.983C756.483 216.885 755.763 215.906 754.868 215.11C753.973 214.313 752.922 213.717 751.786 213.359C750.649 213.002 749.45 212.891 748.269 213.034C743.969 213.543 740.811 217.414 740.811 221.81V242.603Z" fill="white"/>
</g>
<defs>
<filter id="filter0_i_869_2745" x="0" y="0" width="988.93" height="500" filterUnits="userSpaceOnUse" color-interpolation-filters="sRGB">
<feFlood flood-opacity="0" result="BackgroundImageFix"/>
<feBlend mode="normal" in="SourceGraphic" in2="BackgroundImageFix" result="shape"/>
<feColorMatrix in="SourceAlpha" type="matrix" values="0 0 0 0 0 0 0 0 0 0 0 0 0 0 0 0 0 0 127 0" result="hardAlpha"/>
<feMorphology radius="1.25" operator="erode" in="SourceAlpha" result="effect1_innerShadow_869_2745"/>
<feOffset/>
<feComposite in2="hardAlpha" operator="arithmetic" k2="-1" k3="1"/>
<feColorMatrix type="matrix" values="0 0 0 0 1 0 0 0 0 1 0 0 0 0 1 0 0 0 0.25 0"/>
<feBlend mode="normal" in2="shape" result="effect1_innerShadow_869_2745"/>
</filter>
<filter id="filter1_i_869_2745" x="0" y="0" width="989" height="22" filterUnits="userSpaceOnUse" color-interpolation-filters="sRGB">
<feFlood flood-opacity="0" result="BackgroundImageFix"/>
<feBlend mode="normal" in="SourceGraphic" in2="BackgroundImageFix" result="shape"/>
<feColorMatrix in="SourceAlpha" type="matrix" values="0 0 0 0 0 0 0 0 0 0 0 0 0 0 0 0 0 0 127 0" result="hardAlpha"/>
<feOffset dy="-1"/>
<feComposite in2="hardAlpha" operator="arithmetic" k2="-1" k3="1"/>
<feColorMatrix type="matrix" values="0 0 0 0 0 0 0 0 0 0 0 0 0 0 0 0 0 0 1 0"/>
<feBlend mode="normal" in2="shape" result="effect1_innerShadow_869_2745"/>
</filter>
<linearGradient id="paint0_linear_869_2745" x1="740.176" y1="101.226" x2="740.176" y2="370.775" gradientUnits="userSpaceOnUse">
<stop stop-color="#F8FA9D"/>
<stop offset="0.572917" stop-color="#8FBC4A"/>
<stop offset="1" stop-color="#F8FA9D"/>
</linearGradient>
<clipPath id="clip0_869_2745">
<rect width="790" height="500" fill="white"/>
</clipPath>
<clipPath id="clip1_869_2745">
<rect width="988.93" height="500" rx="8" fill="white"/>
</clipPath>
<clipPath id="clip2_869_2745">
<rect width="483.429" height="269.549" fill="white" transform="translate(7 101.226)"/>
</clipPath>
<clipPath id="clip3_869_2745">
<rect x="498" y="101.226" width="484.352" height="269.549" fill="white"/>
</clipPath>
<clipPath id="clip4_869_2745">
<rect width="12" height="12" fill="white" transform="translate(64 460)"/>
</clipPath>
<clipPath id="clip5_869_2745">
<rect width="12" height="12" fill="white" transform="translate(150 460)"/>
</clipPath>
<clipPath id="clip6_869_2745">
<rect width="12" height="12" fill="white" transform="translate(358 460)"/>
</clipPath>
<clipPath id="clip7_869_2745">
<rect width="12" height="12" fill="white" transform="translate(519 460)"/>
</clipPath>
</defs>
</svg>
