<svg width="134" height="82" viewBox="0 0 134 82" fill="none" xmlns="http://www.w3.org/2000/svg">
<path d="M102.41 64.6934H87.6832V67.5464H89.6766V78.6519H87.6832V81.5049H102.41V76.1526H99.1977V78.6519H94.0385V74.2427H98.2128V71.4133H94.0385V67.5464H99.1977V70.0221H102.41V64.6934Z" fill="#237CC1"/>
<path d="M81.3748 57.4072H89.6295C88.5039 55.2851 87.0499 52.6679 85.807 50.758C84.8455 49.2725 83.2039 47.5041 81.3748 46.1602V57.4072Z" fill="#237CC1"/>
<path d="M76.8028 64.6934H68.7356V67.5464H70.8228V78.6519H68.7356V81.5049H76.8028V78.6519H75.044V74.0777H79.5935V78.6519H77.905V81.5049H85.9253V78.6519H83.8147V67.5464H85.9253V64.6934H77.905V67.5464H79.5935V71.2246H75.044V67.5464H76.8028V64.6934Z" fill="#237CC1"/>
<path d="M67.3979 64.6934H52.2485V71.4604H55.133V67.5464H57.6423V78.6519H55.133V81.5049H64.49V78.6519H61.9807V67.5464H64.5603V71.4604H67.3979V64.6934Z" fill="#237CC1"/>
<path d="M37.7328 34.1826C35.5519 34.89 30.1347 36.7999 31.9873 38.8512C34.1214 41.2091 36.2085 39.3463 37.9205 37.7902C39.7496 35.6209 41.0395 34.7721 44.6509 34.7721C46.1049 34.7721 53.0699 33.4281 51.6863 36.399C50.373 39.252 50.2557 43.9206 48.8018 46.137C47.5354 48.094 44.0647 48.5184 43.877 49.5559C43.8067 49.9331 44.3461 50.0746 44.6275 50.1218C46.7615 50.5226 50.631 49.438 52.6478 48.7306C54.5473 48.0704 56.5406 47.033 58.4167 45.8069C62.7083 41.4213 61.6295 33.1923 61.0198 29.5376C57.7367 27.7221 54.9225 27.109 50.5372 24.7983C47.6996 26.3074 42.8217 29.1368 40.1249 29.8206C39.5855 29.9621 38.7412 29.4669 37.897 28.7831C36.0444 29.7027 34.2621 31.0703 32.6909 32.5321C34.7077 32.8858 39.351 33.6403 37.7328 34.1826Z" fill="#237CC1"/>
<path d="M45.0268 53.2811C44.6047 53.3047 44.1825 53.2575 43.7839 53.2103V57.4073H59.0506V48.4946C54.8997 51.2297 50.1157 53.116 45.0268 53.2811Z" fill="#237CC1"/>
<path d="M39.6552 64.6934H32.6433V67.5464H34.8712V78.6519H32.6433V81.5049H39.96V78.6519H37.8494V69.1733L45.0489 81.6228H48.7776V67.5464H51.1227V64.6934H43.6184V67.5464H45.7994V75.1623L39.6552 64.6934Z" fill="#237CC1"/>
<path d="M29.7119 78.6523L26.2176 67.5467H28.4689V64.7173H17.5642V67.5467H19.792L16.5323 78.6523H14.4686V81.4817H21.8557V78.6523H19.6279L20.519 75.7757H24.8575L25.6548 78.6523H23.5208V81.4817H31.7286V78.6523H29.7119ZM24.1539 73.2999H21.2695L22.7703 68.2541" fill="#237CC1"/>
<path d="M13.5547 66.1556C12.4291 65.1889 10.8579 64.7173 8.79416 64.7173H0V67.5467H2.13405V78.6523H0V81.4817H8.79416V78.6523H6.4725V75.3984H8.06718C9.26319 75.3984 10.2481 75.3277 11.022 75.1626C11.8194 75.0212 12.5229 74.7382 13.1326 74.3374C13.7423 73.9365 14.2583 73.3471 14.6335 72.5926C15.0322 71.838 15.2198 70.9892 15.2198 70.0461C15.2198 68.4191 14.6569 67.1223 13.5547 66.1556ZM9.99017 71.8616C9.56805 72.3568 8.60656 72.5926 7.10569 72.5926H6.4725V67.5231H7.29329C8.16098 67.5231 8.79416 67.5703 9.16938 67.6646C9.5446 67.7589 9.89637 68.0183 10.2012 68.4663C10.5061 68.8907 10.6468 69.4094 10.6468 70.0225C10.6234 70.777 10.4123 71.39 9.99017 71.8616Z" fill="#237CC1"/>
<path d="M40.2652 19.1394V0.25293H25.2096V43.7555C25.2096 45.2645 23.8729 46.1841 22.0203 46.1841C20.3084 46.1841 18.9013 45.2645 18.9013 43.7555V0.25293H3.18909V44.6986C3.18909 52.4796 11.2797 58.8458 22.0203 58.8458C30.4861 58.8458 36.9117 54.9318 39.2803 49.4851C39.2803 49.4615 39.3037 49.4379 39.3037 49.4379C39.3272 49.4144 39.3272 49.3672 39.3272 49.3436C39.5851 48.7306 39.8431 48.094 39.9838 47.4338C40.0776 47.1508 40.1714 46.7971 40.2652 46.5378C40.4059 46.0898 40.5466 45.6654 40.7577 45.2645C40.9688 44.793 42.3289 42.7888 42.751 42.6001C42.8214 42.5766 42.7745 42.7416 42.7745 42.7888C42.5165 43.7555 42.4696 44.7458 42.4931 45.7597C46.9722 47.5752 47.1364 43.6612 47.1833 40.7374C47.2302 38.6625 49.8333 36.6819 46.0342 37.2714C44.463 37.5072 41.8599 37.5779 40.5935 38.7804C39.8666 39.7471 38.5299 41.044 38.5533 41.9635C38.5768 42.6709 40.0307 43.5905 39.5617 43.7791C38.9989 43.9913 36.2082 42.9067 35.5281 42.6237C33.7458 45.4532 28.5866 40.761 28.0941 39.0162C27.9534 38.521 28.2348 37.4128 28.5397 36.4225C22.2314 30.5986 34.9184 27.2505 36.8414 23.3128C37.0759 21.1672 37.9436 19.6817 40.2652 19.1394Z" fill="#237CC1"/>
<path d="M40.36 23.7603C40.2662 23.8311 40.149 23.9018 40.0551 23.9961C39.6799 24.7742 39.7737 25.5052 40.8525 25.9767C42.8927 26.8963 46.0117 25.4344 50.3971 24.114C56.4474 25.1279 62.4275 26.354 65.1947 26.4247L72.3942 22.2749C68.4075 22.0863 64.0221 19.469 60.012 19.6105C54.032 19.8227 51.5931 23.1945 47.3484 23.5717C45.2847 23.7368 42.0719 22.3692 40.36 23.7603Z" fill="#237CC1"/>
<path d="M78.1855 17.1824V12.113C78.1855 4.89792 71.2909 0.25293 63.9741 0.25293H43.8062V18.8565C46.0575 18.8093 48.2384 18.7621 50.5366 18.1963C53.2335 17.5361 56.2352 16.2864 59.0728 15.7912V11.83H61.2772C62.9188 11.83 63.9038 12.4667 63.9038 14.1172V15.9091C66.5537 16.4514 69.7665 17.5596 72.2758 18.0784C73.6594 18.2198 75.5824 18.0312 78.1855 17.1824Z" fill="#237CC1"/>
<path d="M111.439 10.6511V0.25293H81.3748V15.9563C83.5323 14.9896 86.0415 13.6692 88.9495 11.8065C97.1808 6.572 99.948 6.78421 102.34 6.68989C104.31 6.61916 107.382 7.30294 111.439 10.6511Z" fill="#237CC1"/>
<path d="M96.6648 13.2447H111.439V12.4666C109.962 11.5471 108.484 10.6275 107.499 10.1559C104.779 8.85912 101.238 9.18922 98.3064 10.3917C95.9144 11.382 92.983 13.9521 89.3247 16.5458C85.6663 19.1394 78.9358 22.1575 75.8637 22.2518C75.2071 22.2754 74.5974 22.2754 74.0111 22.2518L78.6075 25.4585H78.5841C74.4098 26.4252 70.7514 28.9717 67.7966 30.7401C67.7966 31.306 67.7497 31.9898 67.7028 32.7207C70.5638 32.9565 75.6761 31.9426 84.2827 26.6138C91.4118 22.2282 94.437 21.7802 96.6648 21.6623V13.2447Z" fill="#237CC1"/>
<path d="M111.439 57.4073V45.4058H96.6653V33.5458H106.397V27.0381C105.483 26.5194 104.568 26.0478 103.841 25.812C99.6435 24.3265 96.8763 24.916 93.8511 25.8827C91.3887 26.6608 88.3167 28.665 84.6348 31.1879C80.953 33.7108 74.246 36.6346 71.1739 36.7525C69.6261 36.7996 68.2659 36.7525 67.0465 36.6346C66.7885 37.7192 66.4133 38.851 65.9443 39.9356C68.5943 39.464 75.3482 38.9217 81.0233 41.2796C86.5578 43.5667 88.1759 47.6222 89.5127 51.9843C90.2162 54.295 90.6852 56.0869 90.9666 57.4073H111.439Z" fill="#237CC1"/>
<path d="M119.601 78.6523L116.881 73.5829C118.804 72.7104 119.765 71.3193 119.765 69.4094C119.765 68.1833 119.343 67.0987 118.499 66.1556C117.654 65.1889 116.294 64.7173 114.395 64.7173H104.311V67.5467H106.609V78.6523H104.311V81.4817H113.035V78.6523H110.971V74.1487H112.894L116.67 81.5053H121.758V78.6758H119.601V78.6523ZM112.472 71.4608H110.971V67.5467H112.847C113.574 67.5467 114.16 67.7118 114.582 68.0183C115.004 68.3484 115.216 68.82 115.216 69.4802C115.239 70.8006 114.301 71.4608 112.472 71.4608Z" fill="#237CC1"/>
<path d="M130.013 0.25293H114.747V57.4075H130.013V0.25293Z" fill="#237CC1"/>
<path d="M126.754 69.6685C126.496 69.3619 126.355 69.0318 126.355 68.6782C126.355 68.2773 126.519 67.9472 126.847 67.7114C127.176 67.4521 127.551 67.3342 128.02 67.3342C128.63 67.3342 129.146 67.5464 129.591 67.9708C130.037 68.3952 130.318 69.0083 130.412 69.8099H133.226V64.6934H130.412V66.0845C129.685 65.047 128.653 64.5283 127.316 64.5283C126.167 64.5283 125.112 64.9292 124.197 65.7308C123.283 66.5325 122.837 67.6643 122.837 69.1497C122.837 70.3758 123.189 71.3425 123.869 72.0499C124.549 72.7573 125.862 73.5825 127.809 74.5257C128.724 74.9736 129.357 75.3745 129.685 75.7282C130.037 76.0818 130.201 76.5063 130.201 77.025C130.201 77.4966 130.013 77.921 129.662 78.2747C129.31 78.6283 128.888 78.817 128.372 78.817C127.715 78.817 127.129 78.5576 126.613 78.0624C126.097 77.5673 125.839 76.7892 125.792 75.7517H122.955V81.4813H125.792V80.0431C126.589 81.1277 127.715 81.67 129.169 81.67C130.482 81.67 131.608 81.2456 132.569 80.4203C133.531 79.5951 134 78.3454 134 76.6713C134 75.7282 133.812 74.9265 133.437 74.1956C133.062 73.4882 132.523 72.8987 131.866 72.4507C131.209 72.0027 130.271 71.5076 129.028 70.9417C127.785 70.423 127.012 69.975 126.754 69.6685Z" fill="#237CC1"/>
</svg>
