<svg width="18" height="18" viewBox="0 0 18 18" fill="none" xmlns="http://www.w3.org/2000/svg">
<mask id="path-1-inside-1_409_237" fill="white">
<path fill-rule="evenodd" clip-rule="evenodd" d="M9 18C13.9706 18 18 13.9706 18 9C18 4.02944 13.9706 0 9 0C4.02944 0 0 4.02944 0 9C0 13.9706 4.02944 18 9 18ZM5.25 14.1962L15 9L5.25 3.80385L5.25 14.1962Z"/>
</mask>
<path fill-rule="evenodd" clip-rule="evenodd" d="M9 18C13.9706 18 18 13.9706 18 9C18 4.02944 13.9706 0 9 0C4.02944 0 0 4.02944 0 9C0 13.9706 4.02944 18 9 18ZM5.25 14.1962L15 9L5.25 3.80385L5.25 14.1962Z" fill="white"/>
<path d="M15 9L15.4703 9.8825L17.1262 9L15.4703 8.1175L15 9ZM5.25 14.1962H4.25V15.8622L5.72032 15.0787L5.25 14.1962ZM5.25 3.80385L5.72032 2.92135L4.25 2.13776V3.80385H5.25ZM17 9C17 13.4183 13.4183 17 9 17V19C14.5228 19 19 14.5228 19 9H17ZM9 1C13.4183 1 17 4.58172 17 9H19C19 3.47715 14.5228 -1 9 -1V1ZM1 9C1 4.58172 4.58172 1 9 1V-1C3.47715 -1 -1 3.47715 -1 9H1ZM9 17C4.58172 17 1 13.4183 1 9H-1C-1 14.5228 3.47715 19 9 19V17ZM14.5297 8.1175L4.77968 13.3137L5.72032 15.0787L15.4703 9.8825L14.5297 8.1175ZM4.77968 4.68634L14.5297 9.8825L15.4703 8.1175L5.72032 2.92135L4.77968 4.68634ZM6.25 14.1962L6.25 3.80385H4.25L4.25 14.1962H6.25Z" fill="white" mask="url(#path-1-inside-1_409_237)"/>
</svg>
